<?xml version="1.0" encoding="UTF-8"?>
<svg version="1.1" xmlns="http://www.w3.org/2000/svg" width="566" height="566">
<path d="M0 0 C0.82945658 0.00205532 1.65891315 0.00411064 2.51350477 0.00622824 C3.39032537 0.0044752 4.26714596 0.00272216 5.17053688 0.000916 C8.14726372 -0.00378446 11.12394257 -0.0012682 14.10067156 0.00114992 C16.24088103 -0.00071602 18.38109016 -0.00301584 20.52129874 -0.0057154 C26.43259883 -0.01186664 32.34388485 -0.01169593 38.25518742 -0.01052102 C44.61859629 -0.01031785 50.98200054 -0.01582774 57.34540728 -0.02057859 C69.8235187 -0.0289038 82.30162526 -0.0316472 94.77973922 -0.03219097 C104.91652348 -0.03264984 115.05330621 -0.03470463 125.19008997 -0.0378916 C128.10388657 -0.03878909 131.01768318 -0.0396789 133.93147978 -0.04056647 C135.01792722 -0.04089805 135.01792722 -0.04089805 136.12632309 -0.04123632 C156.50979076 -0.04739372 176.89325788 -0.05133655 197.27672651 -0.05089304 C198.04581454 -0.05087746 198.81490256 -0.05086188 199.60729628 -0.05084583 C203.5056986 -0.05076272 207.40410093 -0.05066368 211.30250325 -0.05056112 C212.0767942 -0.05054118 212.85108515 -0.05052123 213.64883947 -0.05050068 C215.21464538 -0.05046025 216.7804513 -0.05041845 218.34625721 -0.05037529 C242.71549687 -0.04976234 267.08472262 -0.05727145 291.4539583 -0.07094786 C318.80764633 -0.08629271 346.16132523 -0.09491505 373.51501784 -0.09398463 C376.4291288 -0.09391 379.34323975 -0.09386129 382.25735071 -0.09383032 C383.33371134 -0.09381284 383.33371134 -0.09381284 384.43181663 -0.093795 C396.0031452 -0.09376417 407.57446175 -0.10016286 419.14578674 -0.10876258 C430.76561787 -0.11722002 442.38542737 -0.11807176 454.00526031 -0.11165326 C460.30613507 -0.10837262 466.60696603 -0.10838654 472.90783671 -0.11700651 C478.66706133 -0.12480481 484.42620695 -0.12350925 490.18542949 -0.11472238 C492.2776155 -0.11317253 494.36980721 -0.11505853 496.4619865 -0.12058245 C499.28872591 -0.12755606 502.1151814 -0.12241784 504.94191054 -0.11402628 C505.76902594 -0.11899446 506.59614135 -0.12396264 507.44832087 -0.12908137 C513.06233206 -0.09343347 513.06233206 -0.09343347 515.29062822 2.13486269 C515.49025398 4.66350989 515.56431644 7.08300296 515.55132464 9.61301211 C515.55515018 10.39326832 515.55897573 11.17352454 515.5629172 11.97742489 C515.57328084 14.6061435 515.56924875 17.23464505 515.56528643 19.86337832 C515.56963101 21.74217982 515.57481331 23.62097956 515.5807741 25.49977663 C515.59420178 30.61328563 515.59473865 35.72672089 515.5922108 40.84024408 C515.59114376 45.10249997 515.59601752 49.36474078 515.60081622 53.62699345 C515.61192418 63.67796777 515.6123414 73.72890473 515.60630205 83.77988222 C515.60025824 94.16479365 515.6125807 104.54956972 515.63387212 114.93445805 C515.65145681 123.83722483 515.6574945 132.73994841 515.65423438 141.64273193 C515.65241656 146.96589597 515.65510721 152.28896345 515.66894892 157.61211184 C515.68147203 162.61566581 515.67963581 167.61900789 515.66653803 172.62255839 C515.6641607 174.46326115 515.66694794 176.30397858 515.67516115 178.14466456 C515.68553314 180.64893104 515.67760592 183.15247383 515.66485003 185.65671328 C515.67222431 186.39269448 515.6795986 187.12867568 515.68719634 187.88695934 C515.66535833 189.91143587 515.66535833 189.91143587 515.29062822 193.13486269 C513.80562822 194.12486269 513.80562822 194.12486269 512.29062822 195.13486269 C509.63828447 194.19345644 509.63828447 194.19345644 506.35312822 192.57236269 C500.37303627 189.79023249 494.3779764 187.90160795 487.97812822 186.32236269 C486.74364946 186.01286684 486.74364946 186.01286684 485.48423174 185.69711855 C456.20733433 178.6931183 424.67821064 184.88848656 399.09922197 200.32236269 C394.93218346 203.01152245 391.08183813 205.94191108 387.29062822 209.13486269 C386.50172197 209.77810488 385.71281572 210.42134707 384.90000322 211.08408144 C363.43696927 229.34115907 350.47493799 256.80088155 347.53281572 284.63095644 C345.94606996 307.58758468 350.93576841 327.94136829 359.29062822 349.13486269 C356.72771654 351.69777437 355.79029809 351.38530963 352.2310808 351.38654497 C350.61457919 351.39436821 350.61457919 351.39436821 348.96542099 351.4023495 C347.7718739 351.39788806 346.57832681 351.39342661 345.34861162 351.38882998 C343.45777999 351.39350995 343.45777999 351.39350995 341.52874973 351.39828447 C338.01805084 351.40666962 334.50746003 351.40249034 330.99676064 351.39631203 C327.21469382 351.3918033 323.43264613 351.39876367 319.65058306 351.40427187 C312.23460357 351.41318653 304.81866445 351.41123407 297.40268335 351.40544659 C291.37306447 351.40093551 285.34345693 351.4003148 279.31383684 351.40249422 C278.02803118 351.40295392 278.02803118 351.40295392 276.71624964 351.40342291 C274.97492002 351.40406235 273.2335904 351.40471078 271.49226078 351.40536809 C255.14309429 351.41107815 238.79395018 351.40450433 222.44478735 351.39376736 C208.42366316 351.38484399 194.40257212 351.38637254 180.38144854 351.39560488 C164.10442301 351.40631761 147.82741717 351.41051531 131.5503886 351.40438035 C129.81290765 351.40374326 128.07542669 351.40311452 126.33794573 351.40249422 C125.0556301 351.4020314 125.0556301 351.4020314 123.74740911 351.40155922 C117.73077937 351.39983433 111.71416215 351.40274321 105.69753435 351.40745333 C98.3563338 351.41307386 91.015176 351.41152164 83.67398033 351.40089184 C79.93001103 351.39564891 76.1861129 351.39355461 72.44214419 351.40019014 C68.3775393 351.40728464 64.31311282 351.39879159 60.24851397 351.38882998 C59.07281265 351.39329142 57.89711133 351.39775286 56.6857827 351.4023495 C37.82088531 351.31278454 23.24773881 344.7872947 9.54062822 331.82236269 C-6.76777765 314.72765868 -7.45903399 296.47028442 -7.30435893 274.0456405 C-7.28463129 270.37713218 -7.29418231 266.70867686 -7.29994795 263.04013613 C-7.30672933 255.87683568 -7.28721221 248.71384253 -7.25878467 241.55060486 C-7.22681504 233.20683133 -7.22252817 224.86311054 -7.21959274 216.51928462 C-7.21354299 201.64091405 -7.18449625 186.76268045 -7.14150068 171.88437441 C-7.09980391 157.44296539 -7.07153872 143.0016207 -7.05946943 128.56015566 C-7.05872122 127.66856324 -7.057973 126.77697082 -7.05720212 125.85836045 C-7.05422788 122.27466742 -7.05129058 118.69097436 -7.04841583 115.10728125 C-7.03570052 99.67832794 -7.01194352 84.24938898 -6.98677757 68.82045171 C-6.98279408 66.32063835 -6.97907608 63.82082472 -6.97542354 61.32101086 C-6.96242391 52.58223264 -6.94613635 43.84347984 -6.92043914 35.10472874 C-6.90982707 31.49142459 -6.90072919 27.87813487 -6.89586851 24.26481798 C-6.89051074 20.35763517 -6.87736034 16.45050213 -6.86327192 12.54334047 C-6.86277416 11.38920062 -6.86227641 10.23506077 -6.86176357 9.04594699 C-6.85668902 8.00818775 -6.85161448 6.97042851 -6.84638616 5.90122202 C-6.84405552 4.99840404 -6.84172488 4.09558606 -6.83932361 3.16540995 C-6.56590682 -1.1068322 -3.59168843 0.01329278 0 0 Z M246.29062822 91.13486269 C244.25478145 94.67867256 242.53258925 98.35395504 240.79844072 102.05283144 C239.7536617 104.21532455 238.70806405 106.37742232 237.66172197 108.53915957 C236.03040574 111.93843262 234.40688208 115.34089909 232.79795244 118.75082949 C231.23606335 122.04970841 229.64459898 125.33292724 228.04844072 128.61533144 C227.57528429 129.639265 227.10212786 130.66319857 226.61463335 131.71816042 C223.18656171 138.70027828 223.18656171 138.70027828 219.08701494 140.68881777 C217.83420733 140.83601259 216.58139971 140.98320742 215.29062822 141.13486269 C213.65474017 141.41138521 212.01936092 141.69092715 210.38437822 141.97275332 C208.52045051 142.24998413 206.65582305 142.52253922 204.79062822 142.79111269 C203.79611651 142.93891176 202.80160479 143.08671084 201.77695635 143.23898867 C197.54814952 143.86730362 193.31776676 144.48470631 189.08750322 145.10312441 C185.98797396 145.55784291 182.88930167 146.01810423 179.79062822 146.47861269 C178.36847002 146.68339235 178.36847002 146.68339235 176.91758135 146.89230898 C171.9085516 147.63732574 167.05823922 148.39405736 162.29062822 150.13486269 C159.88230729 153.7473441 159.56701968 154.87361237 160.29062822 159.13486269 C164.56109985 165.04427072 170.15485902 169.99360919 175.44687822 174.96689394 C176.97977093 176.43849201 178.51097307 177.91185275 180.04062822 179.38681582 C182.42067006 181.68041367 184.80752232 183.96312633 187.22422197 186.21811464 C189.57697172 188.41905102 191.88882902 190.6567429 194.19687822 192.90439394 C194.92378863 193.56623186 195.65069903 194.22806978 196.39963701 194.9099634 C199.22579571 197.71837104 201.14147173 199.68804892 201.55956438 203.74353579 C201.32906063 206.60693774 200.86979906 209.3221727 200.29062822 212.13486269 C200.03525733 213.79874207 199.78311976 215.46312154 199.53452471 217.12802675 C199.24754124 218.80286216 198.95649642 220.47700593 198.66172197 222.15048769 C198.34590335 223.99683101 198.03015004 225.84318551 197.71445635 227.68955019 C197.2202479 230.54891669 196.72411124 233.40793642 196.22641924 236.26669863 C195.74163308 239.0604786 195.26388244 241.85539678 194.78672197 244.65048769 C194.63674257 245.49854982 194.48676317 246.34661196 194.33223894 247.22037295 C192.62769086 255.65805643 192.62769086 255.65805643 194.72812822 263.63486269 C198.59361391 265.89758602 202.09927437 265.1163344 206.29062822 264.13486269 C209.98830171 262.63715258 213.42970316 260.75577091 216.91562822 258.82236269 C217.90039141 258.29489443 218.88515459 257.76742617 219.89975908 257.22397402 C224.11358751 254.96602952 228.30784288 252.67296569 232.50107744 250.37705019 C235.61163333 248.67925864 238.73197428 247.0005673 241.85312822 245.32236269 C242.80977373 244.78893252 243.76641924 244.25550234 244.75205401 243.70590761 C246.10339434 242.98044741 246.10339434 242.98044741 247.48203447 242.24033144 C248.26779863 241.8087372 249.05356279 241.37714296 249.86313799 240.93247011 C254.14117278 239.52682396 257.34618278 240.72074411 261.36411455 242.48251894 C262.43943438 243.04841738 263.5147542 243.61431582 264.62265947 244.19736269 C265.21241564 244.50496019 265.8021718 244.8125577 266.40979937 245.12947634 C267.66468668 245.78553239 268.91755869 246.44545572 270.16852739 247.10895327 C272.11792206 248.14270779 274.07275111 249.16546635 276.02915362 250.18588808 C281.63630386 253.11685977 287.22323564 256.0816753 292.76719072 259.13095644 C293.5382918 259.55183535 294.30939287 259.97271425 295.10386065 260.40634707 C296.47252302 261.15760916 297.83524556 261.91984804 299.19028643 262.69540957 C303.05501221 264.82035899 305.88740382 265.61845381 310.29062822 265.13486269 C312.67505625 264.07592298 312.67505625 264.07592298 314.29062822 262.13486269 C315.36758369 258.38206521 315.23182502 255.49079203 314.54624346 251.67368105 C314.35952578 250.60584887 314.1728081 249.53801668 313.9804323 248.43782595 C313.77213289 247.29499651 313.56383349 246.15216707 313.34922197 244.97470644 C312.92651435 242.54830578 312.50399398 240.12187248 312.08164385 237.69540957 C311.40529335 233.87391843 310.72469955 230.0532368 310.0398958 226.23325136 C309.38200437 222.54474141 308.73986225 218.8537455 308.09922197 215.16220644 C307.78373652 213.44492594 307.78373652 213.44492594 307.46187761 211.6929529 C307.27831209 210.62827288 307.09474657 209.56359285 306.90561846 208.4666498 C306.738277 207.53130907 306.57093554 206.59596834 306.39852312 205.63228396 C306.21861421 201.46796892 307.87122031 199.59592897 310.61094072 196.58408144 C311.5364876 195.67271425 312.46203447 194.76134707 313.41562822 193.82236269 C314.32570635 192.91872988 315.23578447 192.01509707 316.17344072 191.08408144 C318.40072249 188.93782477 320.69867451 186.89724238 323.04062822 184.87705019 C327.93263624 180.62719814 332.55783113 176.12649755 337.16562822 171.57236269 C338.0189876 170.74800722 338.87234697 169.92365175 339.75156572 169.07431582 C340.56625322 168.26800722 341.38094072 167.46169863 342.22031572 166.63095644 C342.95492022 165.91093447 343.68952471 165.1909125 344.44638994 164.44907168 C346.58988614 161.75934432 347.46348987 159.45944158 348.29062822 156.13486269 C348.03246079 153.36428243 348.03246079 153.36428243 346.29062822 151.13486269 C340.2455547 147.88590706 334.15447606 147.20844206 327.40781572 146.37314394 C325.08338652 146.05632478 322.75917334 145.73791741 320.43515947 145.41806582 C316.7918752 144.92617569 313.14835532 144.4452148 309.50010088 143.99155214 C305.96417942 143.54676568 302.43676177 143.05738482 298.90781572 142.56064394 C297.81814501 142.43635515 296.72847429 142.31206637 295.60578325 142.18401125 C288.31254461 141.11035158 288.31254461 141.11035158 285.6442354 138.56326845 C284.29375588 136.48206599 283.28890555 134.40551854 282.29062822 132.13486269 C281.44676564 130.49498496 280.60012038 128.85653696 279.75107744 127.21933535 C278.86208402 125.41436896 277.97698716 123.60747943 277.09531572 121.79892519 C276.12286891 119.82876972 275.15020645 117.85872068 274.17734697 115.88876894 C272.66240814 112.80903502 271.15007447 109.72807242 269.64170244 106.6451166 C268.17485864 103.65123863 266.69824461 100.66234284 265.22031572 97.67392519 C264.77026171 96.74689791 264.32020769 95.81987063 263.85651568 94.86475161 C263.22037844 93.58234087 263.22037844 93.58234087 262.57138994 92.27402285 C262.01776278 91.14439623 262.01776278 91.14439623 261.45295122 89.99194887 C260.27562861 87.82802481 260.27562861 87.82802481 257.29062822 86.13486269 C251.87307448 85.31045234 249.46174458 86.95356271 246.29062822 91.13486269 Z " fill="#000000" transform="translate(6.709371775388718,169.86513730883598)"/>
<path d="M0 0 C2.24270108 -0.00220449 4.48492364 -0.02044673 6.72753906 -0.03930664 C8.15201655 -0.04223771 9.57649637 -0.04422442 11.00097656 -0.04516602 C12.29293945 -0.0492749 13.58490234 -0.05338379 14.91601562 -0.05761719 C17.98535156 0.18530273 17.98535156 0.18530273 19.98535156 2.18530273 C20.19278735 4.80788377 20.30399717 7.37191553 20.36035156 9.99780273 C20.92562913 23.1996793 24.36494518 35.82530593 34.15722656 45.28295898 C44.95959077 54.05522371 57.99625837 58.59993014 71.98535156 57.18530273 C83.52173946 55.3637678 95.53118872 50.36942031 102.75878906 40.84936523 C109.85924342 30.3934219 112.40829851 20.62723885 112.65869141 8.15185547 C112.79498412 2.37567018 112.79498412 2.37567018 114.98535156 0.18530273 C117.64655304 -0.06637955 117.64655304 -0.06637955 121.09680176 -0.06866455 C123.05288109 -0.07712402 123.05288109 -0.07712402 125.04847717 -0.08575439 C126.50204523 -0.08186542 127.95561274 -0.07776905 129.40917969 -0.07348633 C130.93330554 -0.07619507 132.45743008 -0.07975535 133.98155212 -0.08410645 C138.12816243 -0.09324662 142.27467353 -0.08967952 146.42128563 -0.08334827 C150.75388234 -0.07829668 155.08647036 -0.08297738 159.41906738 -0.08612061 C166.69589773 -0.08976271 173.97268752 -0.08495476 181.24951172 -0.07543945 C189.67126671 -0.06455443 198.09292488 -0.06807983 206.51467752 -0.07909226 C213.7359292 -0.08815819 220.95715167 -0.08945383 228.17840719 -0.08421493 C232.49550559 -0.08109139 236.81255843 -0.08069635 241.12965393 -0.0872879 C245.18764864 -0.09305067 249.24551809 -0.08908421 253.30349922 -0.07749939 C254.79588678 -0.07484705 256.28828482 -0.07562763 257.78066826 -0.08002472 C259.81174222 -0.0854588 261.84283913 -0.0774483 263.87390137 -0.06866455 C265.58177448 -0.06753347 265.58177448 -0.06753347 267.32415009 -0.06637955 C269.98535156 0.18530273 269.98535156 0.18530273 271.98535156 2.18530273 C272.21615617 4.46997617 272.34541305 6.76530671 272.42285156 9.06030273 C273.14812263 23.17350281 276.87128003 36.39991163 287.52050781 46.33374023 C298.29714849 54.42902974 310.54403003 58.34779541 323.98535156 57.18530273 C337.0227027 55.02366938 348.05481541 49.6539936 356.51660156 39.31420898 C362.85962957 30.01239048 364.47602065 19.48553909 365.30249023 8.50830078 C365.79073528 2.37991902 365.79073528 2.37991902 367.98535156 0.18530273 C372.3061283 -0.24363898 376.64441106 -0.18627457 380.98413086 -0.18530273 C383.12016812 -0.18959149 385.25398931 -0.22564166 387.38964844 -0.26391602 C405.16383742 -0.41043673 420.50943304 4.39294423 433.63378906 16.82983398 C447.7734893 30.9930221 454.13173027 45.3477732 454.15332031 65.41967773 C454.15664871 66.4940509 454.15997711 67.56842407 454.16340637 68.675354 C454.16845505 70.93794325 454.17081534 73.20053989 454.1706543 75.46313477 C454.17285267 78.93705278 454.19106258 82.4106591 454.20996094 85.88452148 C454.21289283 88.08373915 454.21487899 90.28295832 454.21582031 92.48217773 C454.22300583 93.52484802 454.23019135 94.56751831 454.2375946 95.64178467 C454.23451797 96.6032843 454.23144135 97.56478394 454.22827148 98.55541992 C454.2296965 99.40336121 454.23112152 100.25130249 454.23258972 101.12493896 C453.98535156 103.18530273 453.98535156 103.18530273 451.98535156 105.18530273 C449.17002084 105.38181787 446.45313908 105.45110942 443.63663387 105.4341917 C442.75835984 105.43679899 441.8800858 105.43940627 440.9751974 105.44209257 C437.99950219 105.44844444 435.02401386 105.44039753 432.04832458 105.43254089 C429.90653898 105.43412748 427.76475387 105.43658957 425.62297016 105.4398573 C419.71197854 105.44630077 413.80105489 105.44017961 407.8900677 105.43209302 C401.52533213 105.42553881 395.16060444 105.4304595 388.79586792 105.43397522 C377.75982796 105.43844358 366.72381029 105.43553001 355.68777275 105.42732811 C344.10920462 105.41872469 332.53064553 105.41380769 320.95207405 105.41399574 C319.87322699 105.41400721 319.87322699 105.41400721 318.77258504 105.41401891 C315.85327325 105.41405982 312.93396147 105.41412543 310.01464969 105.41422472 C282.60969775 105.4151315 255.20475962 105.40517515 227.79981247 105.38979506 C203.4304231 105.376169 179.06104354 105.3699338 154.69165039 105.37060547 C153.12684246 105.37064588 151.56203452 105.37068624 149.99722659 105.37072655 C148.83683188 105.37075707 148.83683188 105.37075707 147.65299485 105.37078822 C143.75914652 105.37088901 139.86529818 105.37097959 135.97144985 105.37105846 C134.81925718 105.37108353 134.81925718 105.37108353 133.6437879 105.37110911 C113.30459222 105.37147395 92.96539777 105.36693921 72.62620312 105.3607319 C71.90307801 105.36051163 71.1799529 105.36029136 70.4349149 105.36006441 C67.52680561 105.35917614 64.61869631 105.35828775 61.71058702 105.35737345 C51.57621972 105.35420891 41.44185339 105.3527036 31.30748562 105.35226196 C18.25088783 105.3516659 5.1942994 105.34757843 -7.8622951 105.33783051 C-14.16303968 105.33319779 -20.46377424 105.33017241 -26.76452065 105.33142471 C-32.52240135 105.33251368 -38.28025982 105.32903889 -44.03813588 105.32177619 C-46.13094602 105.31995157 -48.22375844 105.3198434 -50.31656868 105.32154348 C-53.14166342 105.32358579 -55.96668368 105.31958542 -58.79177189 105.31393719 C-60.03595675 105.31702017 -60.03595675 105.31702017 -61.30527666 105.32016543 C-66.90049355 105.29945762 -66.90049355 105.29945762 -68.01464844 104.18530273 C-68.13421283 102.57762036 -68.18478475 100.96474517 -68.20751953 99.3527832 C-68.22358246 98.3201535 -68.23964539 97.2875238 -68.25619507 96.22360229 C-68.30081856 91.43659054 -68.34181724 86.64972096 -68.36474609 81.86254883 C-68.38118412 79.35268808 -68.40830944 76.84287172 -68.44677734 74.33325195 C-68.80428982 50.88354237 -66.2172951 35.06544666 -49.76464844 17.37280273 C-35.36848115 3.75277664 -19.16133426 -0.00211681 0 0 Z " fill="#000000" transform="translate(68.0146484375,49.814697265625)"/>
<path d="M0 0 C0.99515625 0.43054688 1.9903125 0.86109375 3.015625 1.3046875 C19.73269195 9.0505536 35.53600181 23.16556234 45 39 C45.66644531 40.10730469 46.33289063 41.21460938 47.01953125 42.35546875 C59.62349754 64.17137425 63.52240294 92.61231003 57.04492188 117.08007812 C52.90002278 130.66385636 46.23228518 143.23153557 37 154 C36.57992676 154.50080078 36.15985352 155.00160156 35.72705078 155.51757812 C20.37745386 173.70716351 -1.96450788 187.52111204 -26 190 C-56.46664285 191.65897131 -82.3568414 185.97156109 -105.64160156 165.56103516 C-125.80520472 147.10920617 -137.91297885 122.80488923 -139.25390625 95.4140625 C-140.13719152 68.19816971 -130.9973263 43.64991386 -112.5625 23.625 C-83.47732855 -6.97157881 -38.97478517 -17.31113555 0 0 Z M-11.69921875 51.8125 C-13.33583933 53.48120389 -14.9732314 55.14915141 -16.61132812 56.81640625 C-19.16642545 59.42114829 -21.71657083 62.03003589 -24.25415039 64.65185547 C-26.72223091 67.19831406 -29.20872208 69.72548674 -31.69921875 72.25 C-32.45764572 73.04253174 -33.21607269 73.83506348 -33.9974823 74.65161133 C-34.71205093 75.36986084 -35.42661957 76.08811035 -36.1628418 76.828125 C-36.78491013 77.4665332 -37.40697845 78.10494141 -38.04789734 78.76269531 C-40 80 -40 80 -42.54391479 79.79415894 C-45.81869543 78.73528024 -48.61992783 77.19280293 -51.62109375 75.5078125 C-52.24347427 75.16120575 -52.8658548 74.814599 -53.50709534 74.45748901 C-55.48752224 73.35299958 -57.46262393 72.23937885 -59.4375 71.125 C-61.40982709 70.01968559 -63.38321538 68.9162981 -65.35719299 67.81393433 C-66.58164411 67.12931946 -67.80497451 66.44269476 -69.02696228 65.75369263 C-77.46171673 60.74454277 -77.46171673 60.74454277 -87 60 C-89.10242444 60.85219923 -89.10242444 60.85219923 -90 63 C-90.74706649 67.09810178 -90.74706649 67.09810178 -90 71 C-84.57580656 76.85468499 -76.20357041 80.29648877 -69.25 83.9375 C-67.02490701 85.11113257 -64.80094243 86.28690705 -62.578125 87.46484375 C-61.48951172 88.04089355 -60.40089844 88.61694336 -59.27929688 89.21044922 C-54.98952808 91.55142638 -50.81251355 94.06407839 -46.64746094 96.61938477 C-43.9098289 98.04702301 -42.08471981 98.85694656 -39 99 C-34.47154095 97.09067694 -31.3807164 94.75220954 -27.9284668 91.28491211 C-27.46102554 90.81951523 -26.99358429 90.35411835 -26.51197815 89.87461853 C-24.98371054 88.34933563 -23.46640071 86.81364722 -21.94921875 85.27734375 C-20.88460294 84.20966721 -19.81939264 83.14258317 -18.75361633 82.07606506 C-16.5292932 79.847154 -14.30995362 77.61344174 -12.09448242 75.37573242 C-9.25206261 72.50492824 -6.40094158 69.64296796 -3.54652691 66.78409481 C-1.35076761 64.58418489 0.84214613 62.38145831 3.03401756 60.17767525 C4.08495666 59.1210346 5.13636837 58.0648638 6.18825722 57.00916862 C7.65329686 55.5372724 9.11489437 54.06204788 10.57543945 52.58569336 C11.40783646 51.74646835 12.24023346 50.90724335 13.09785461 50.04258728 C15.42681284 47.54167411 15.94168179 46.53652751 16.3125 43.125 C16.24053995 39.96581945 16.24053995 39.96581945 14.4375 37.625 C4.18358544 30.78905696 -5.20708802 45.11341259 -11.69921875 51.8125 Z " fill="#000000" transform="translate(507,375)"/>
<path d="M0 0 C4.31700563 3.85425186 6.59334257 7.63012736 8.99609375 12.85546875 C9.72667467 14.37981568 10.45781101 15.90389651 11.18945312 17.42773438 C12.32044522 19.81407106 13.44477021 22.2031247 14.55883789 24.59741211 C15.64531888 26.92143942 16.7563998 29.2323707 17.87109375 31.54296875 C18.19629501 32.2606694 18.52149628 32.97837006 18.85655212 33.71781921 C20.40940073 36.90454365 21.49637348 38.74218194 24.69262695 40.37841797 C28.80295014 41.15090508 32.90311842 41.83597238 37.046875 42.40234375 C38.79563669 42.65515822 40.54433279 42.90842671 42.29296875 43.16210938 C45.03330266 43.55355041 47.77406284 43.94082802 50.51611328 44.32006836 C53.17400998 44.69005023 55.82914375 45.07625834 58.484375 45.46484375 C59.3083075 45.57432846 60.13223999 45.68381317 60.98114014 45.7966156 C63.0047896 46.09816598 65.00675819 46.5383975 67 47 C67.66 47.99 68.32 48.98 69 50 C68.09644775 50.89831543 67.19289551 51.79663086 66.26196289 52.72216797 C62.91797077 56.04809269 59.57726249 59.37729908 56.23754883 62.70751953 C54.79020465 64.14982749 53.34196524 65.59123766 51.89282227 67.03173828 C49.81291822 69.09954572 47.73622963 71.17053501 45.66015625 73.2421875 C45.00910416 73.88807831 44.35805206 74.53396912 43.68727112 75.19943237 C42.78645058 76.10013962 42.78645058 76.10013962 41.86743164 77.01904297 C41.33670547 77.54754852 40.80597931 78.07605408 40.25917053 78.62057495 C38.40008047 80.65721362 37.99664779 81.68830606 38.02661133 84.47436523 C38.77381894 94.15351986 40.33817098 103.62782642 42.06958008 113.16772461 C42.43670287 115.20505441 42.7877385 117.2446523 43.13671875 119.28515625 C43.35030029 120.48019775 43.56388184 121.67523926 43.78393555 122.90649414 C44.00568231 126.08135656 43.73824425 127.39364026 42 130 C32.32512559 125.22261374 22.72727467 120.323428 13.2097168 115.23876953 C12.05983276 114.62751221 12.05983276 114.62751221 10.88671875 114.00390625 C10.20826904 113.64111572 9.52981934 113.2783252 8.83081055 112.90454102 C4.74856788 110.88764422 1.51107572 110.63625927 -3 111 C-5.89639314 112.04256387 -8.53709053 113.46259114 -11.234375 114.9375 C-11.99421692 115.33702881 -12.75405884 115.73655762 -13.53692627 116.14819336 C-15.94867302 117.41872856 -18.34965917 118.7080646 -20.75 120 C-23.16601632 121.2889906 -25.58408279 122.57378614 -28.00592041 123.85180664 C-29.508809 124.64603331 -31.0081127 125.44708893 -32.50335693 126.25561523 C-37.66587415 129 -37.66587415 129 -41 129 C-42.08782423 123.43868743 -41.76666695 119.00690447 -40.71484375 113.46875 C-40.42881524 111.83727835 -40.14301486 110.20576669 -39.85742188 108.57421875 C-39.39922557 106.03239626 -38.93595411 103.49161766 -38.4675293 100.95166016 C-38.01583453 98.48035708 -37.5832787 96.00624456 -37.15234375 93.53125 C-37.00764145 92.78000854 -36.86293915 92.02876709 -36.71385193 91.25476074 C-35.86933024 86.34746547 -35.98741618 82.70680729 -38 78 C-39.77633151 76.84780018 -39.77633151 76.84780018 -42 76 C-44.08947571 74.07752433 -46.09194568 72.1407751 -48.078125 70.1171875 C-48.64956238 69.54292023 -49.22099976 68.96865295 -49.80975342 68.37698364 C-51.62792945 66.5476419 -53.43901492 64.71145807 -55.25 62.875 C-56.48391329 61.63105226 -57.71828322 60.3875573 -58.953125 59.14453125 C-61.97406743 56.10157633 -64.98867092 53.05246746 -68 50 C-66 47 -66 47 -62.18041992 46.14038086 C-60.53228244 45.90206444 -58.88206884 45.67784378 -57.23046875 45.46484375 C-56.35731522 45.34065567 -55.48416168 45.21646759 -54.58454895 45.08851624 C-51.78711587 44.69232104 -48.98766648 44.31384968 -46.1875 43.9375 C-43.39846384 43.55521945 -40.61008629 43.16909959 -37.82258606 42.77577209 C-36.08729858 42.53166703 -34.35105101 42.29426829 -32.61381531 42.06443787 C-25.36968286 41.33110312 -25.36968286 41.33110312 -19.6730957 37.33032227 C-19.34398193 36.66572998 -19.01486816 36.0011377 -18.67578125 35.31640625 C-18.29156006 34.56214355 -17.90733887 33.80788086 -17.51147461 33.03076172 C-17.11581299 32.21623535 -16.72015137 31.40170898 -16.3125 30.5625 C-15.44571199 28.84745429 -14.57851167 27.13261691 -13.7109375 25.41796875 C-13.2684668 24.53028809 -12.82599609 23.64260742 -12.37011719 22.72802734 C-10.11891168 18.24567339 -7.77656176 13.81194366 -5.4375 9.375 C-5.00800049 8.55201416 -4.57850098 7.72902832 -4.13598633 6.88110352 C-3.73919678 6.12369873 -3.34240723 5.36629395 -2.93359375 4.5859375 C-2.58353271 3.9161084 -2.23347168 3.2462793 -1.87280273 2.55615234 C-1 1 -1 1 0 0 Z " fill="#000000" transform="translate(260,283)"/>
<path d="M0 0 C8.55712248 5.10829909 15.31498267 12.389677 18.14518738 22.05174255 C18.8661907 25.52578751 18.76805328 29.06243346 18.80078125 32.59765625 C18.808853 33.4315538 18.81692474 34.26545135 18.82524109 35.12461853 C18.83905636 36.89059386 18.84978993 38.65659561 18.85766602 40.42260742 C18.86914214 42.21175065 18.88952412 44.00086083 18.91918945 45.78979492 C19.15640352 60.10877797 18.48584537 71.06988142 8.07421875 81.89453125 C0.80134362 88.17205178 -7.06223104 90.46155485 -16.49609375 90.3359375 C-26.52068813 89.4040363 -32.94638112 83.67837218 -39.6875 76.75 C-46.03399604 67.00359536 -46.06299424 57.63540302 -45.95898438 46.34033203 C-45.93754599 43.56844589 -45.95885101 40.79915091 -45.984375 38.02734375 C-46.00276451 26.47509309 -45.47398952 16.53140245 -37.2109375 7.66015625 C-27.05625659 -1.48800343 -13.02490242 -5.93902783 0 0 Z " fill="#000000" transform="translate(400.4375,2.9375)"/>
<path d="M0 0 C8.65382872 4.98321143 13.98026164 11.0272904 17.5 20.4375 C18.43129011 25.00281895 18.67415595 29.46485305 18.703125 34.109375 C18.70882507 34.83183411 18.71452515 35.55429321 18.72039795 36.29864502 C18.72979993 37.82147784 18.7363627 39.34433057 18.74023438 40.8671875 C18.74991388 43.16703834 18.78097108 45.46598424 18.8125 47.765625 C18.90048354 59.85304015 17.57176485 69.9588916 9.5 79.4375 C2.60379338 86.12591132 -4.39466306 89.47805233 -14 89.8125 C-24.89121842 89.40351127 -30.9998084 85.23562667 -38.5 77.4375 C-44.69947375 70.51341243 -45.96299397 64.43956074 -45.93359375 55.4453125 C-45.9388356 54.49993622 -45.94407745 53.55455994 -45.94947815 52.58053589 C-45.95587628 50.58869403 -45.9545901 48.59681427 -45.94604492 46.60498047 C-45.93754468 43.57840752 -45.96631188 40.55373022 -45.99804688 37.52734375 C-45.99965952 35.58333389 -45.99908014 33.63932073 -45.99609375 31.6953125 C-46.00732773 30.80127716 -46.01856171 29.90724182 -46.03013611 28.9861145 C-45.92678358 19.53726372 -42.35711857 12.32377088 -35.87890625 5.5234375 C-25.55907502 -3.52547855 -12.58743492 -5.83742295 0 0 Z " fill="#000000" transform="translate(148.5,3.5625)"/>
</svg>
