<?xml version="1.0" encoding="UTF-8"?>
<svg version="1.1" xmlns="http://www.w3.org/2000/svg" width="516" height="516">
<path d="M0 0 C43.11228882 -0.88302278 89.41047363 9.51897503 121.546875 39.7265625 C128.40995239 46.32005775 134.7510428 52.92753467 139.6796875 61.12109375 C140.33195312 62.14074219 140.98421875 63.16039062 141.65625 64.2109375 C156.36443087 88.25633432 159.65722067 117.81193584 153.50952148 145.17236328 C152.93715232 147.5006203 152.3211361 149.81098164 151.6796875 152.12109375 C151.48133301 152.85376465 151.28297852 153.58643555 151.07861328 154.34130859 C144.09991834 179.33025524 130.70100645 201.91427452 114.6796875 222.12109375 C113.95523437 223.05050781 113.23078125 223.97992188 112.484375 224.9375 C106.18814752 232.70149756 99.22187183 239.79008578 92.1796875 246.87109375 C91.45298859 247.60569321 91.45298859 247.60569321 90.71160889 248.35513306 C84.05032448 255.07228703 77.11176078 261.26329462 69.6796875 267.12109375 C69.08849121 267.59724121 68.49729492 268.07338867 67.88818359 268.56396484 C53.82885267 279.87485513 38.65913366 289.75404766 22.6796875 298.12109375 C21.95104492 298.50974609 21.22240234 298.89839844 20.47167969 299.29882812 C-12.19920645 316.5290789 -50.03416901 326.54351972 -86.97436523 326.43676758 C-89.25357685 326.43359964 -91.53149317 326.4572268 -93.81054688 326.48242188 C-118.46965702 326.58853988 -144.97093227 320.79338595 -163.30761719 303.32958984 C-170.76329915 295.87134227 -175.3228121 288.2094553 -178.3203125 278.12109375 C-178.60841797 277.19876953 -178.60841797 277.19876953 -178.90234375 276.2578125 C-182.85113803 256.07098567 -173.99115277 236.79050372 -163.0078125 220.43359375 C-154.77543075 209.01539303 -145.41597146 198.89961159 -135.3203125 189.12109375 C-134.6603125 189.45109375 -134.0003125 189.78109375 -133.3203125 190.12109375 C-133.96097656 191.04148438 -134.60164062 191.961875 -135.26171875 192.91015625 C-149.42577354 213.52190407 -159.03720554 235.44668135 -154.671875 260.90234375 C-149.68572498 278.46041048 -138.12681813 291.50753536 -122.52734375 300.4453125 C-91.35034722 316.73633748 -53.93628347 315.332964 -21.07470703 305.07836914 C14.27417154 293.53100314 43.8083199 273.54888016 70.6796875 248.12109375 C71.3603125 247.48300781 72.0409375 246.84492188 72.7421875 246.1875 C97.81087039 221.98925749 119.80941125 184.62991675 120.91796875 149.12890625 C121.37746962 120.89627029 114.9176715 98.06133289 95.12646484 77.09912109 C83.9388412 65.69757217 71.23923243 57.56792811 56.6796875 51.12109375 C56.05400879 50.84281738 55.42833008 50.56454102 54.78369141 50.27783203 C2.58722727 27.64251639 -60.19351615 37.83659211 -111.37353516 57.92578125 C-135.3983356 67.67105242 -158.1777472 80.10665271 -179.3203125 95.12109375 C-180.06087891 95.64670898 -180.80144531 96.17232422 -181.56445312 96.71386719 C-192.2657104 104.35824535 -202.51943146 112.35336163 -212.3203125 121.12109375 C-213.43563354 122.10722656 -213.43563354 122.10722656 -214.57348633 123.11328125 C-220.8723715 128.7183314 -226.91920236 134.53686539 -232.8828125 140.49609375 C-234.20442383 141.79933594 -234.20442383 141.79933594 -235.55273438 143.12890625 C-241.58022328 149.14305016 -247.05050507 155.43660262 -252.3203125 162.12109375 C-252.89563721 162.84248535 -253.47096191 163.56387695 -254.0637207 164.30712891 C-289.22937932 208.67526787 -309.89532653 259.19470459 -309.3203125 316.12109375 C-309.9803125 315.79109375 -310.6403125 315.46109375 -311.3203125 315.12109375 C-311.94533181 312.60905443 -312.44854309 310.16696943 -312.8828125 307.62109375 C-313.00849609 306.93789063 -313.13417969 306.2546875 -313.26367188 305.55078125 C-323.21217588 249.92249706 -306.56753144 193.14139328 -275.23828125 147.05859375 C-273.31801395 144.36787297 -271.33925109 141.73851695 -269.3203125 139.12109375 C-268.91345215 138.58564941 -268.5065918 138.05020508 -268.08740234 137.49853516 C-262.36663872 129.97612312 -256.39699997 122.80898978 -249.9296875 115.91796875 C-247.54553521 113.36250013 -245.24289144 110.75408567 -242.9453125 108.12109375 C-237.46381511 102.02512245 -231.44532758 96.55735934 -225.3203125 91.12109375 C-224.55509277 90.43877686 -224.55509277 90.43877686 -223.77441406 89.74267578 C-209.09248999 76.73800711 -192.99647643 65.40971946 -176.3203125 55.12109375 C-175.65386719 54.70939941 -174.98742187 54.29770508 -174.30078125 53.87353516 C-121.25033062 21.36081966 -62.2774641 2.27129575 0 0 Z " fill="#E9EAF7" transform="translate(315.3203125,43.87890625)"/>
<path d="M0 0 C2.40262656 -0.00961916 4.80436345 -0.04067752 7.20678711 -0.07226562 C32.30654243 -0.24392501 58.76867965 5.1998615 77.48876953 23.03173828 C87.65178806 33.19650514 93.49114164 45.08271827 93.81420898 59.55273438 C93.46473948 90.02012142 72.46097807 114.80570052 51.73999023 135.07226562 C51.00135742 135.78769531 50.26272461 136.503125 49.50170898 137.24023438 C48.84170898 136.91023437 48.18170898 136.58023438 47.50170898 136.24023438 C48.14237305 135.31984375 48.78303711 134.39945313 49.44311523 133.45117188 C63.60717002 112.83942406 73.21860202 90.91464678 68.85327148 65.45898438 C63.86619108 47.89764142 52.30831621 34.86222522 36.71264648 25.91601562 C10.51122439 12.24155081 -21.91636244 10.44556402 -50.49829102 17.24023438 C-51.3187793 17.43359375 -52.13926758 17.62695312 -52.98461914 17.82617188 C-100.03328819 29.31356357 -145.28215813 59.60817163 -174.20288086 98.50488281 C-175.45636047 100.18406357 -176.73494989 101.84127451 -178.01782227 103.49804688 C-198.11421068 129.93692647 -210.58751731 164.12482922 -206.6015625 197.51660156 C-202.98396654 223.29231985 -188.09146114 245.30232779 -167.73364258 261.12768555 C-131.90942627 287.62986775 -83.38422454 292.09574543 -40.49829102 286.24023438 C-15.95946199 282.51651804 7.58277133 275.71061291 30.50170898 266.24023438 C31.32058594 265.9029834 32.13946289 265.56573242 32.9831543 265.21826172 C66.58058835 251.18936882 99.2266088 230.25796327 126.02514648 205.50585938 C128.04514721 203.65790919 130.0944238 201.8684897 132.16967773 200.08398438 C144.22807571 189.55609701 155.79621359 177.98347341 165.50170898 165.24023438 C166.34766646 164.19223203 167.19683368 163.14681539 168.04858398 162.10351562 C203.32619345 118.62723344 224.83195601 66.62792762 223.50170898 10.24023438 C224.16170898 10.57023438 224.82170898 10.90023437 225.50170898 11.24023438 C226.12672829 13.7522737 226.62993958 16.19435869 227.06420898 18.74023438 C227.18989258 19.4234375 227.31557617 20.10664063 227.44506836 20.81054688 C227.8276847 22.94999321 228.17318519 25.09183933 228.50170898 27.24023438 C228.60104736 27.88089844 228.70038574 28.5215625 228.80273438 29.18164062 C231.75365659 51.39783111 230.41044803 75.47664291 225.50170898 97.24023438 C225.29803711 98.15836914 225.09436523 99.07650391 224.88452148 100.02246094 C214.39549443 145.71771308 188.92673841 184.29444982 157.31420898 218.11523438 C156.6611377 218.81680664 156.00806641 219.51837891 155.33520508 220.24121094 C150.95781319 224.87765271 146.35112894 229.10505067 141.50170898 233.24023438 C140.45312805 234.16538777 139.40614408 235.09235566 138.36108398 236.02148438 C123.43657848 249.13695891 107.42479027 260.84190962 90.50170898 271.24023438 C89.84734863 271.64516113 89.19298828 272.05008789 88.51879883 272.46728516 C46.42931147 298.35809769 0.30786072 315.56057135 -48.49829102 323.24023438 C-49.56442627 323.41014893 -49.56442627 323.41014893 -50.65209961 323.58349609 C-93.16304427 330.10699378 -138.66636565 326.39186466 -177.49829102 307.24023438 C-178.54629883 306.72460938 -179.59430664 306.20898438 -180.67407227 305.67773438 C-191.46531439 300.06079364 -200.69495035 292.57273186 -209.49829102 284.24023438 C-210.67584961 283.14195312 -210.67584961 283.14195312 -211.87719727 282.02148438 C-217.22573564 276.88109555 -221.53862288 271.50676273 -225.49829102 265.24023438 C-226.15829102 264.21285156 -226.81829102 263.18546875 -227.49829102 262.12695312 C-242.15984636 238.05201282 -245.47925043 208.56464084 -239.328125 181.18896484 C-238.75575583 178.86070782 -238.13973962 176.55034648 -237.49829102 174.24023438 C-237.29993652 173.50756348 -237.10158203 172.77489258 -236.8972168 172.02001953 C-228.21334485 140.92526406 -210.17610036 114.0002241 -188.54516602 90.47460938 C-186.46444211 88.2032848 -184.45190145 85.88142007 -182.43579102 83.55273438 C-179.37982802 80.11176816 -176.17722067 77.0609482 -172.66235352 74.09570312 C-170.22473301 72.00568555 -167.90259301 69.8120003 -165.56079102 67.61523438 C-126.28404507 31.9091017 -76.80154687 9.14660286 -24.49829102 1.24023438 C-23.83708252 1.13565918 -23.17587402 1.03108398 -22.49462891 0.92333984 C-15.04531026 -0.08725817 -7.50385368 0.01806525 0 0 Z " fill="#E9EAF8" transform="translate(286.498291015625,157.759765625)"/>
<path d="M0 0 C6.20529496 5.66097084 9.29486538 12.62514736 10.3828125 20.91796875 C11.1101039 39.26995502 0.65343531 54.13053117 -11.015625 67.26953125 C-30.17071427 87.52426454 -58.79848176 100.42543039 -86.625 101.375 C-99.19270089 100.91660362 -112.5464725 98.21992003 -121.4375 88.6875 C-127.82046999 80.36750154 -129.48221848 71.80238422 -128.56640625 61.54296875 C-125.44728931 42.03235449 -111.1438353 24.74387474 -95.68359375 13.21484375 C-70.05307092 -5.27957063 -28.3828115 -22.07552006 0 0 Z M-26 0 C-26.66 0.66 -27.32 1.32 -28 2 C-27.67958603 4.60280568 -27.67958603 4.60280568 -27 7 C-25.10820797 7.6814823 -25.10820797 7.6814823 -23 8 C-20.71271266 6.16116119 -20.71271266 6.16116119 -20.875 3.375 C-20.91625 2.59125 -20.9575 1.8075 -21 1 C-23.39719432 0.32041397 -23.39719432 0.32041397 -26 0 Z M-83.73828125 47.07421875 C-87.0140954 51.77109031 -87.94680434 55.31917398 -87 61 C-84.33104543 63.7670779 -82.64990659 64.89087988 -78.8359375 65.53125 C-70.75794926 65.45831105 -64.31756254 64.45425312 -57 61 C-55.84757812 60.4740625 -55.84757812 60.4740625 -54.671875 59.9375 C-45.71390897 55.42719543 -36.89646317 47.85338359 -32 39 C-31.04664444 35.42491664 -30.63538047 33.2264475 -31.6875 29.6875 C-33.31849384 27.59050791 -34.53046984 26.98865347 -37 26 C-55.44196885 23.79720928 -72.11452802 33.20407725 -83.73828125 47.07421875 Z M-14 43 C-14.350625 44.093125 -14.70125 45.18625 -15.0625 46.3125 C-16.37683541 49.46435287 -17.53564713 50.62316459 -20.6875 51.9375 C-21.780625 52.288125 -22.87375 52.63875 -24 53 C-21.61426621 54.89213369 -19.92824652 56.02391783 -17 57 C-15.3125 60.5625 -15.3125 60.5625 -14 64 C-12.2251476 62.38649781 -11.10154998 61.27079996 -10.25 59 C-8.26910582 55.83056931 -5.4509836 55.27814207 -2 54 C-4.91765 52.0549 -6.62537285 51.54723683 -10 51 C-10.28875 49.865625 -10.5775 48.73125 -10.875 47.5625 C-11.24625 46.386875 -11.6175 45.21125 -12 44 C-12.66 43.67 -13.32 43.34 -14 43 Z " fill="#E9EAF8" transform="translate(313,216)"/>
<path d="M0 0 C4.11280911 1.66232006 6.37579042 4.1341609 8.9375 7.6875 C10.82549083 13.57358905 11.10784138 18.78431723 8.3125 24.375 C4.73299135 28.43822604 1.54397916 31.58104122 -4.015625 32.23828125 C-9.62670185 32.42466317 -13.68795476 31.76466126 -18 28 C-21.76544339 23.17250848 -22.59765651 19.45560471 -22.3203125 13.36328125 C-21.67491815 8.60153028 -19.96100774 5.86725089 -16.4375 2.6875 C-11.25122843 -0.9029957 -6.17502375 -0.69488758 0 0 Z " fill="#E7E8F6" transform="translate(406,153)"/>
<path d="M0 0 C3.73128423 3.25495008 5.22474699 5.62953395 6.0625 10.5 C6.34054371 15.08772125 5.06648428 17.51912595 2 21 C-1.29487979 24.29487979 -4.3902584 24.84373757 -9 25 C-13.21322433 23.78602011 -15.45164926 22.59053156 -18.4375 19.375 C-20.44191302 15.04546789 -20.80684999 11.68981558 -20 7 C-18.17499123 2.89373027 -16.28068781 0.82491771 -12.25 -1 C-7.78256543 -2.38931392 -4.18777631 -2.09388815 0 0 Z " fill="#E7E8F6" transform="translate(146,373)"/>
<path d="M0 0 C2.3181362 1.89111111 3.66914015 3.33828031 5 6 C5.39447548 10.18144011 5.45035186 12.30946048 3.125 15.875 C0.21289342 18.78710658 -0.6002777 18.96068305 -4.8125 19.375 C-8.23041924 19.31907041 -8.97465048 19.0177986 -11.9375 16.9375 C-14.40599406 13.42176604 -15 11.28616677 -15 7 C-13.70501017 3.83446931 -12.36747781 2.30623151 -9.75 0.125 C-6.03630199 -1.39424009 -3.84345052 -1.04821378 0 0 Z " fill="#E5E6F3" transform="translate(251,127)"/>
<path d="M0 0 C1.89213369 2.38573379 3.02391783 4.07175348 4 7 C7.50294871 8.71567661 7.50294871 8.71567661 11 10 C10.67 10.99 10.34 11.98 10 13 C8.576875 13.61875 8.576875 13.61875 7.125 14.25 C2.92695928 16.6009028 2.51525904 18.53840394 1 23 C-1 22 -1 22 -2.1875 18.625 C-3.10334332 16.30200159 -3.63114514 15.23794432 -5.75 13.87109375 C-7.46450239 13.15556553 -9.23095433 12.56742974 -11 12 C-10.67 11.34 -10.34 10.68 -10 10 C-8.2984375 9.6596875 -8.2984375 9.6596875 -6.5625 9.3125 C-5.386875 8.879375 -4.21125 8.44625 -3 8 C-1.52917453 4.52042471 -1.52917453 4.52042471 -1 1 C-0.67 0.67 -0.34 0.34 0 0 Z " fill="#DEDFED" transform="translate(319,95)"/>
<path d="M0 0 C2.2477975 2.05233685 3.0022242 3.00667261 4 6 C7.00007271 7.70855022 7.00007271 7.70855022 10 9 C9.67 9.66 9.34 10.32 9 11 C8.21625 11.2475 7.4325 11.495 6.625 11.75 C3.10596134 13.4257327 2.45286974 15.48252588 1 19 C-1.35953094 16.64046906 -1.49141413 15.22104383 -2 12 C-3.65 11.67 -5.3 11.34 -7 11 C-7 10.01 -7 9.02 -7 8 C-5.35 7.67 -3.7 7.34 -2 7 C-1.34 4.69 -0.68 2.38 0 0 Z " fill="#DDDEEB" transform="translate(257,390)"/>
<path d="M0 0 C0.66 0.33 1.32 0.66 2 1 C2.33 1.99 2.66 2.98 3 4 C5.50447516 5.21869929 5.50447516 5.21869929 8 6 C6.36587557 7.70840281 5.13093906 8.93453047 3 10 C1.86649466 12.01669827 1.86649466 12.01669827 1 14 C-0.5 12.625 -0.5 12.625 -2 11 C-2 10.34 -2 9.68 -2 9 C-3.65 8.67 -5.3 8.34 -7 8 C-7 7.34 -7 6.68 -7 6 C-6.21625 5.938125 -5.4325 5.87625 -4.625 5.8125 C-3.75875 5.544375 -2.8925 5.27625 -2 5 C-0.62533375 2.52363988 -0.62533375 2.52363988 0 0 Z " fill="#CDCEDB" transform="translate(164,171)"/>
</svg>
