<?xml version="1.0" encoding="UTF-8"?>
<svg version="1.1" xmlns="http://www.w3.org/2000/svg" width="572" height="573">
<path d="M0 0 C0.89333243 -0.00438225 1.78666486 -0.00876451 2.70706797 -0.01327956 C5.7069358 -0.02665683 8.70677426 -0.03284408 11.70666504 -0.03897095 C13.8552463 -0.04687289 16.00382624 -0.0551419 18.15240479 -0.06375122 C25.21540053 -0.08996528 32.27840218 -0.10528037 39.34143066 -0.11953735 C41.77427677 -0.12489769 44.20712284 -0.1302752 46.63996887 -0.13566971 C56.76256547 -0.1572994 66.88516049 -0.17603472 77.00777435 -0.1872921 C91.50526208 -0.20352154 106.00248138 -0.23667427 120.49986792 -0.29369295 C130.6979286 -0.33243141 140.89591761 -0.35192956 151.09404993 -0.35721266 C157.18218134 -0.36086132 163.2700264 -0.37283116 169.358078 -0.4053154 C175.09059887 -0.43546362 180.82266114 -0.4416835 186.55524445 -0.42993164 C188.65299949 -0.42971146 190.75077624 -0.43797023 192.84845734 -0.45558548 C208.11396715 -0.57674217 219.54458385 0.49270355 231.05236816 11.63046265 C236.70251404 18.12511432 240.25886868 25.59449638 241.24768066 34.15390015 C241.33018066 34.84741577 241.41268066 35.5409314 241.49768066 36.25546265 C242.03611275 45.50976416 238.89672557 55.28983661 232.94299316 62.38046265 C224.38152216 71.33647148 215.1843837 77.07598677 202.48493958 77.39872742 C200.70575738 77.40693483 198.92650498 77.40456352 197.14733887 77.3934021 C196.16909149 77.39541626 195.19084412 77.39743042 194.18295288 77.39950562 C192.07193089 77.40303473 189.96089829 77.40230437 187.84987831 77.39772987 C184.50824988 77.39211381 181.16696554 77.40133129 177.82536316 77.41493225 C168.32931888 77.45197716 158.83339489 77.47056758 149.33728027 77.45932007 C143.51830456 77.45347386 137.69981746 77.47169901 131.88094139 77.50520897 C129.66617383 77.51316585 127.45135307 77.51188215 125.23659706 77.50118446 C122.14380132 77.48687988 119.05254904 77.5031029 115.95983887 77.5262146 C115.04595901 77.51444687 114.13207916 77.50267914 113.19050598 77.49055481 C108.74134978 77.55581829 106.82843428 77.71463989 103.17973328 80.47438049 C100.99789935 83.09254755 100.99789935 83.09254755 100.62268066 86.65390015 C101.41576455 91.09516992 102.77256371 92.34430033 106.24768066 95.15390015 C109.35659899 95.88835075 109.35659899 95.88835075 112.77526855 95.76571655 C114.07754898 95.77567657 115.37982941 95.7856366 116.72157288 95.79589844 C118.1378282 95.782488 119.55408287 95.76900761 120.97033691 95.75546265 C122.43661169 95.7609697 123.90287873 95.76910051 125.36912537 95.77972412 C129.22966043 95.80259662 133.08962934 95.79840485 136.95019531 95.78591919 C143.10282 95.76762012 149.25510523 95.7779212 155.4076519 95.81177902 C157.53909053 95.81780366 159.66978281 95.80471729 161.80116272 95.78979492 C175.8563294 95.77631896 186.54496308 98.13586857 197.06018066 107.71640015 C197.78205566 108.52077515 198.50393066 109.32515015 199.24768066 110.15390015 C199.92830566 110.89640015 200.60893066 111.63890015 201.31018066 112.40390015 C207.84574098 121.68017931 209.08943481 130.99769379 208.24768066 142.15390015 C205.64716273 153.87852099 198.2955097 162.94552692 188.31018066 169.4078064 C178.05631877 175.01021884 166.54125726 174.44302677 155.20666504 174.41268921 C153.49729768 174.4154034 151.7879315 174.41896673 150.0785675 174.42330933 C145.46083744 174.43238465 140.8431973 174.4289092 136.22546577 174.42255116 C131.37882379 174.41746593 126.53218918 174.4221896 121.68554688 174.42532349 C113.54852932 174.4289558 105.41154815 174.42418335 97.27453613 174.41464233 C87.88484135 174.40375921 78.49523344 174.40728531 69.10554075 174.41829515 C61.02456278 174.42738899 52.94361086 174.42864305 44.86262941 174.42341781 C40.04461017 174.42030963 35.22663169 174.41985697 30.40861511 174.42649078 C25.87772774 174.43229418 21.34695171 174.42821284 16.81607628 174.41670227 C15.15933606 174.41407164 13.50258637 174.41479327 11.84584999 174.4192276 C-2.94366987 174.45514431 -17.11767797 173.53596043 -28.62731934 162.96640015 C-36.09645534 154.69373851 -40.32805749 144.32885823 -39.93200684 133.1734314 C-38.99923491 122.68988611 -34.62830246 112.90963189 -26.79528809 105.71640015 C-16.3249164 97.70846769 -6.20203205 95.86775257 6.66955566 95.88046265 C8.85055056 95.86019287 11.03154012 95.83934249 13.21252441 95.81796265 C16.6183325 95.7952934 20.02392924 95.77885533 23.42980957 95.77304077 C26.73926966 95.76353493 30.04780297 95.72980764 33.35705566 95.69296265 C34.37483093 95.69800812 35.3926062 95.70305359 36.44122314 95.70825195 C40.8158933 95.64727788 43.53371171 95.56015447 47.38928223 93.36630249 C49.61202739 90.72014949 49.84371991 88.6731262 49.91174316 85.2515564 C48.80222238 81.74677605 47.16983565 80.38851595 44.24768066 78.15390015 C40.59235628 77.43733802 36.99309165 77.52789645 33.27893066 77.5874939 C31.67108704 77.57904198 31.67108704 77.57904198 30.03076172 77.57041931 C26.60262427 77.55396961 23.17577298 77.56948078 19.74768066 77.59140015 C-15.59896455 77.76491455 -15.59896455 77.76491455 -27.75231934 66.15390015 C-28.5972998 65.35145874 -28.5972998 65.35145874 -29.45935059 64.5328064 C-35.04230649 58.63890105 -39.20930621 50.299097 -39.75231934 42.15390015 C-39.83481934 40.93702515 -39.91731934 39.72015015 -40.00231934 38.46640015 C-39.80475096 28.09406047 -35.64654849 18.4905455 -28.67810059 10.8921814 C-20.10727487 2.80000563 -11.59649515 0.00690317 0 0 Z " fill="#EAEBF9" transform="translate(330.7523193359375,142.84609985351563)"/>
<path d="M0 0 C1.2417952 -0.0071553 2.48359039 -0.01431061 3.76301575 -0.02168274 C5.13156103 -0.02452269 6.50010658 -0.02723445 7.86865234 -0.02983093 C9.31626039 -0.03610065 10.76386684 -0.0427479 12.21147156 -0.04974365 C16.95916637 -0.07073372 21.7068613 -0.08114432 26.45458984 -0.09111023 C28.09402482 -0.09516029 29.73345964 -0.09927728 31.37289429 -0.10346031 C39.08026665 -0.12250434 46.78762951 -0.13673456 54.49502087 -0.14507228 C63.36565311 -0.15482884 72.23603478 -0.18111015 81.10657883 -0.22157317 C87.97901484 -0.2518359 94.85137947 -0.26655091 101.72388077 -0.26985329 C105.82061146 -0.27219305 109.91707424 -0.28101162 114.01373291 -0.30631447 C117.87489845 -0.32977756 121.73562317 -0.33375623 125.59684181 -0.32355309 C127.00400074 -0.32306194 128.41118272 -0.3292562 129.81827354 -0.34310913 C143.24644335 -0.4677746 154.89499157 1.6147832 164.82958984 11.14717102 C172.60637661 18.85421082 176.74872847 28.07646335 177.14208984 39.02217102 C176.87347396 49.355982 172.75550928 58.85636867 165.72021484 66.41279602 C155.06771453 76.33064114 144.33807003 78.41079364 130.11865234 78.52607727 C129.02869965 78.54307175 127.93874695 78.56006622 126.81576538 78.57757568 C123.36209778 78.63034964 119.90844037 78.67086642 116.45458984 78.70967102 C112.97937343 78.75364589 109.50424765 78.800312 106.02914429 78.85247803 C103.87347286 78.88436488 101.71772089 78.91127666 99.56192017 78.93270874 C98.59015839 78.94619858 97.61839661 78.95968842 96.6171875 78.97358704 C95.76275055 78.98309891 94.9083136 78.99261078 94.02798462 79.00241089 C91.652032 79.06568452 91.652032 79.06568452 88.82958984 80.14717102 C87.35218559 83.63921745 87.56374761 87.42537972 87.82958984 91.14717102 C89.58974115 94.33220672 90.32849901 94.98014074 93.82958984 96.14717102 C95.4433541 96.24249256 97.06068212 96.28252288 98.67724609 96.28901672 C99.66257324 96.29605118 100.64790039 96.30308563 101.66308594 96.31033325 C102.72865723 96.31449753 103.79422852 96.3186618 104.89208984 96.32295227 C107.15642189 96.34616648 109.42074482 96.37028444 111.68505859 96.3952179 C115.24843302 96.43020091 118.81147547 96.45960241 122.375 96.47309875 C125.81860634 96.48868828 129.26124343 96.52898515 132.70458984 96.57295227 C133.75396729 96.57104385 134.80334473 96.56913544 135.88452148 96.56716919 C148.0685915 96.76599936 157.23209798 100.84021091 165.95849609 109.18232727 C173.71752862 117.28430046 177.16300087 126.58414482 176.97802734 137.75654602 C176.32304568 148.30519805 171.67209115 157.99520442 163.82958984 165.14717102 C155.10799721 171.62569142 147.56095834 174.45522959 136.7477417 174.41459656 C135.85522398 174.41912767 134.96270627 174.42365878 134.04314256 174.4283272 C131.0640275 174.44094819 128.0850958 174.43935231 125.10595703 174.43769836 C122.9651618 174.44368507 120.82436873 174.45049095 118.68357849 174.45805359 C112.87557685 174.47570694 107.06763415 174.48040872 101.25960827 174.48168516 C97.62837043 174.48310777 93.99714752 174.48737949 90.36591339 174.4926796 C77.69022166 174.51117818 65.01457197 174.51935048 52.33886719 174.51777649 C40.53561795 174.51657537 28.73255166 174.53767244 16.92934871 174.56926382 C6.78558645 174.59544319 -3.35811611 174.60614307 -13.50191188 174.60486567 C-19.55581645 174.6043565 -25.60955843 174.61001505 -31.66342926 174.63122177 C-37.35984252 174.6506318 -43.05593855 174.65070949 -48.7523632 174.63618851 C-50.83762769 174.63410271 -52.92291218 174.63878753 -55.00814247 174.65090942 C-69.92136749 174.73195649 -81.84958449 173.98155495 -93.17041016 163.14717102 C-101.10568032 154.46796928 -104.53784546 144.70860138 -104.38134766 133.04951477 C-103.59292734 122.20143525 -98.04012365 113.21298666 -90.29931641 105.78388977 C-83.83925816 100.81734958 -76.06864135 97.04506564 -67.84399414 97.00241089 C-66.98603241 96.99551239 -66.12807068 96.98861389 -65.24411011 96.98150635 C-64.31100006 96.97889297 -63.37789001 96.9762796 -62.41650391 96.97358704 C-60.93296921 96.96355652 -60.93296921 96.96355652 -59.41946411 96.95332336 C-57.27291084 96.93928076 -55.12634271 96.9273842 -52.97976685 96.91737556 C-49.58419371 96.90096263 -46.18873113 96.8777259 -42.79321289 96.85247803 C-33.1393789 96.7817001 -23.48550061 96.72150819 -13.83154297 96.67036438 C-7.92652771 96.63860324 -2.02164103 96.59733887 3.88327026 96.55016899 C6.13513889 96.5341364 8.3870371 96.52182067 10.63894653 96.5132618 C13.78465874 96.50113065 16.93006749 96.47699107 20.07568359 96.45014954 C21.00879364 96.44956039 21.94190369 96.44897125 22.90328979 96.44836426 C23.76125153 96.43864594 24.61921326 96.42892761 25.50317383 96.41891479 C26.24647446 96.41468286 26.98977509 96.41045092 27.75559998 96.40609074 C30.91415632 96.01177227 33.13557198 95.00643123 35.14208984 92.52217102 C36.15325854 89.02904281 36.05833647 85.58624923 34.82958984 82.14717102 C31.87426398 79.10455311 29.27447575 78.78629533 25.1184845 78.70611572 C24.37990707 78.70599991 23.64132965 78.70588409 22.88037109 78.70576477 C22.10831833 78.69255692 21.33626556 78.67934906 20.54081726 78.66574097 C18.07453886 78.62492425 15.60862876 78.60322367 13.14208984 78.58467102 C-3.84262648 78.41863104 -16.8289456 77.81234095 -29.83447266 65.64717102 C-38.05344746 56.8509438 -40.68444099 47.58261117 -40.48291016 35.71748352 C-39.41133933 23.47478688 -32.66540917 14.69650294 -23.60791016 6.90888977 C-16.56656332 1.8197112 -8.56003873 0.03395686 0 0 Z " fill="#EAEBF9" transform="translate(104.17041015625,200.8528289794922)"/>
<path d="M0 0 C1.13427429 -0.00671722 2.26854858 -0.01343445 3.43719482 -0.02035522 C7.1772503 -0.03931205 10.91712607 -0.0432584 14.65722656 -0.04541016 C17.26645989 -0.05184005 19.87569249 -0.05856855 22.48492432 -0.06558228 C27.95220096 -0.0783506 33.41942921 -0.08134957 38.88671875 -0.08007812 C45.18234609 -0.07887823 51.47762977 -0.0999569 57.77317023 -0.13156545 C63.85524367 -0.16100069 69.93715384 -0.16805064 76.01929474 -0.16685867 C78.59476371 -0.16921127 81.17023552 -0.17801541 83.74565887 -0.19352341 C87.35676664 -0.21323069 90.96700165 -0.20732557 94.578125 -0.1953125 C95.6309668 -0.20655151 96.68380859 -0.21779053 97.76855469 -0.22937012 C110.52855491 -0.12209886 120.90746398 4.94617393 130.23535156 13.47802734 C138.97154283 22.66118653 142.09966438 33.49177605 141.85644531 45.85302734 C140.76721306 57.98624741 135.54798289 67.76529975 126.79785156 76.10302734 C116.54315945 84.51306498 104.48509428 86.59779847 91.61889648 86.56518555 C90.563965 86.57029648 89.50903351 86.57540741 88.4221344 86.58067322 C84.95747092 86.59449849 81.49300799 86.5936176 78.02832031 86.59130859 C75.60370308 86.59519968 73.17908651 86.5995352 70.75447083 86.60429382 C65.67996 86.61174108 60.60551876 86.61147578 55.53100586 86.60620117 C49.05181794 86.60041174 42.57291637 86.61733244 36.09377575 86.64054585 C31.08781794 86.65533133 26.08192831 86.65614827 21.07595253 86.65303612 C18.68832139 86.65354701 16.3006862 86.65874083 13.9130764 86.66884804 C10.56352921 86.68128714 7.21452972 86.67437564 3.86499023 86.6628418 C2.89369171 86.67048553 1.92239319 86.67812927 0.92166138 86.68600464 C-12.12684934 86.58748822 -24.70774785 83.14066636 -34.26464844 73.97802734 C-37.95239077 70.04313473 -41.03795839 66.11890745 -43.45214844 61.29052734 C-43.77054687 60.67435547 -44.08894531 60.05818359 -44.41699219 59.42333984 C-48.27171412 50.29280034 -47.95750549 37.51431667 -44.82714844 28.22802734 C-39.38169808 15.79488369 -31.08573539 7.37826146 -18.45214844 2.29052734 C-12.26002733 0.08988632 -6.53558105 -0.00558342 0 0 Z " fill="#EAEBF9" transform="translate(353.4521484375,329.70947265625)"/>
<path d="M0 0 C3.32961021 0.55493503 5.30091917 1.49496853 8 3.5 C9.56935594 6.63871188 9.35201103 9.03855822 9 12.5 C6.40783917 16.19186542 4.95850936 17.32883761 0.5 18.125 C-3.95850936 17.32883761 -5.40783917 16.19186542 -8 12.5 C-8.625 9 -8.625 9 -8 5.5 C-5.54597925 2.1076772 -4.16402963 0.69400494 0 0 Z " fill="#E0E1EE" transform="translate(555,228.5)"/>
<path d="M0 0 C2.51395067 2.27066512 2.93130182 3.59639822 3.5 6.9375 C2.82335459 11.08195316 1.2747993 12.45293388 -2 15 C-5.34694317 16.37310489 -6.71311328 16.09000368 -10.1875 15 C-13 13 -13 13 -14.5625 9.6875 C-15.08406889 5.29141935 -14.57359763 3.56982897 -12 0 C-7.7357132 -2.84285787 -4.57791324 -1.86507576 0 0 Z " fill="#E7E8F5" transform="translate(183,168)"/>
<path d="M0 0 C2.90398503 2.11912421 3.84245093 3.50634623 4.9375 6.9375 C5.01221891 10.59872681 4.21363944 12.1304674 2 15 C-1.20270544 16.60135272 -4.52463384 16.48861584 -8 16 C-11.06458538 13.95694308 -11.82153128 12.55920198 -12.9375 9.0625 C-13.01327396 5.34957588 -12.3135507 3.87199397 -10 1 C-6.62055069 -1.56372016 -3.97046734 -1.15805297 0 0 Z " fill="#E4E5F2" transform="translate(257,430)"/>
<path d="M0 0 C2.61704241 1.98046452 3.76666688 3.35000059 4.875 6.4375 C5.02583739 9.52966652 4.46741381 11.28528446 3 14 C-0.68427659 16.45618439 -3.72077768 16.69019715 -8 16 C-11.06458538 13.95694308 -11.82153128 12.55920198 -12.9375 9.0625 C-13.01327396 5.34957588 -12.3135507 3.87199397 -10 1 C-6.62055069 -1.56372016 -3.97046734 -1.15805297 0 0 Z " fill="#E4E5F2" transform="translate(287,398)"/>
<path d="M0 0 C2.32893759 1.82538352 3.65908902 3.24512569 4.875 5.9375 C5.0870472 9.43627878 3.68182648 11.90150178 1.875 14.8125 C-1.25729687 16.79628802 -4.48251721 16.72539528 -8 16 C-11.44652326 13.55871269 -12.78056289 12.17033126 -13.5625 8 C-12.87206143 4.31766096 -11.63186072 2.63186072 -9 0 C-5.41563853 -1.19478716 -3.63093708 -0.96330984 0 0 Z " fill="#E6E7F4" transform="translate(564,372)"/>
<path d="M0 0 C2.5 2.125 2.5 2.125 4 5 C4 8.88582276 3.53567796 11.16434238 1.4375 14.4375 C-2.03378916 16.66268536 -4.98689891 16.80756449 -9 16 C-12.06458538 13.95694308 -12.82153128 12.55920198 -13.9375 9.0625 C-14.01327396 5.34957588 -13.3135507 3.87199397 -11 1 C-7.44724114 -1.79145339 -4.20120319 -1.12532228 0 0 Z " fill="#E7E8F5" transform="translate(523,357)"/>
<path d="M0 0 C1.87109375 0.46875 1.87109375 0.46875 3.80859375 1.65625 C5.37165804 4.32265379 5.74761543 6.38179191 5.87109375 9.46875 C4.26697527 12.99781067 3.12950013 14.29647908 -0.12890625 16.46875 C-4.01366816 16.89254221 -6.23067406 17.08332992 -9.50390625 14.84375 C-11.51396668 11.90596938 -12.05624604 10.0291004 -12.12890625 6.46875 C-9.35229417 0.36020342 -6.30405321 -1.01790217 0 0 Z " fill="#E9EAF7" transform="translate(242.12890625,160.53125)"/>
<path d="M0 0 C2.75171298 1.90503206 3.71801879 3.2856476 4.9375 6.375 C5.02441225 10.02531433 4.01258142 11.98112787 2 15 C-0.90786224 16.80759004 -2.64288187 17.00728813 -6.0625 16.9375 C-9.84748434 15.72952628 -11.02339335 14.42104997 -13 11 C-13.5625 8 -13.5625 8 -13 5 C-9.2217441 -0.43124286 -6.19885712 -0.88555102 0 0 Z " fill="#E7E8F5" transform="translate(281,122)"/>
<path d="M0 0 C4.14866582 0.66674986 5.81886615 1.31264078 8.5 4.5625 C9.15466318 7.36491781 9.11113838 9.75472271 8.5 12.5625 C6.36398066 15.89469018 4.8672811 16.45565459 1.0625 17.5625 C-2.5 17.5625 -2.5 17.5625 -5.375 15.75 C-7.84519031 13.20715703 -8.40858082 12.24814385 -8.875 8.75 C-8.5 5.5625 -8.5 5.5625 -6.4375 2.6875 C-3.5 0.5625 -3.5 0.5625 0 0 Z " fill="#E5E5F3" transform="translate(141.5,412.4375)"/>
<path d="M0 0 C3.06458538 2.04305692 3.82153128 3.44079802 4.9375 6.9375 C5.01327396 10.65042412 4.3135507 12.12800603 2 15 C-0.54229606 16.92863839 -1.78345018 17.00902291 -5 16.875 C-8.48347614 15.85898613 -9.8334681 14.8887092 -12 12 C-13.37749054 8.51035729 -13.11114829 7.27522434 -11.6875 3.75 C-8.85932216 -0.8588824 -5.06876074 -0.71263765 0 0 Z " fill="#E4E4F2" transform="translate(551,325)"/>
<path d="M0 0 C2.375 1.5625 2.375 1.5625 4 4 C4.55953192 6.78053107 4.56511725 9.2200798 4 12 C2.07045537 14.78712003 0.73289213 15.73691052 -2.4375 16.875 C-5.56703769 17.02766038 -7.26110704 16.51359874 -10 15 C-12.39442371 12.68814262 -12.94472919 11.371104 -13.4375 8.0625 C-12.89613959 4.27297711 -11.68326641 2.68326641 -9 0 C-5.41563853 -1.19478716 -3.63093708 -0.96330984 0 0 Z " fill="#E9EAF8" transform="translate(227,395)"/>
</svg>
