<?xml version="1.0" encoding="UTF-8"?>
<svg version="1.1" xmlns="http://www.w3.org/2000/svg" width="420" height="420">
<path d="M0 0 C3.25355855 2.16903903 3.47984793 2.58829805 4.57470703 6.10058594 C4.84574249 6.95038025 5.11677795 7.80017456 5.39602661 8.67572021 C5.68041595 9.60257629 5.9648053 10.52943237 6.2578125 11.484375 C6.56516327 12.45038635 6.87251404 13.41639771 7.18917847 14.41168213 C8.1779433 17.52135051 9.15291375 20.63508077 10.125 23.75 C25.89530782 74.21498501 46.62185629 116.42409909 95.10644531 142.11621094 C111.3899751 150.51661803 128.65958855 156.3721679 146.0859375 161.90625 C146.86075974 162.15315582 147.63558197 162.40006165 148.43388367 162.65444946 C152.28573548 163.88043169 156.14092525 165.09304185 160.00415039 166.28271484 C161.41822452 166.72724332 162.83220997 167.17205397 164.24609375 167.6171875 C165.50091553 168.00503418 166.7557373 168.39288086 168.04858398 168.79248047 C171 170 171 170 173 173 C165.34778726 176.66958383 157.41936415 179.25350987 149.36291504 181.85852051 C98.91852767 198.22160923 55.43528756 218.86919854 30 268 C21.94025911 284.26739708 16.04121719 301.48443266 9.98046875 318.56640625 C9.72698166 319.27863846 9.47349457 319.99087067 9.21232605 320.72468567 C7.98379878 324.1853164 6.77609378 327.65082755 5.60791016 331.13232422 C5.38686111 331.77999252 5.16581207 332.42766083 4.93806458 333.09495544 C4.34129816 334.84596085 3.75486321 336.6004778 3.16918945 338.35522461 C2 341 2 341 -1 343 C-3.12505596 336.95029114 -4.82113655 330.90172278 -6.34545898 324.67504883 C-11.08683829 305.38922388 -17.61714487 287.49428466 -27 270 C-27.34643555 269.33661621 -27.69287109 268.67323242 -28.04980469 267.98974609 C-43.39035956 238.66304033 -67.85314843 215.44005837 -97.0234375 200.04541016 C-98.92164048 199.0414446 -100.80425224 198.01213039 -102.6875 196.98046875 C-123.14601104 186.02007123 -145.5219074 180.1682192 -168 175 C-168 174.01 -168 173.02 -168 172 C-162.29280526 169.63925045 -156.5363434 167.44405003 -150.71875 165.37109375 C-98.09933227 146.60956474 -52.09276293 125.97220934 -26.94921875 73.1875 C-26.29792968 71.79238898 -25.6481702 70.39656278 -25 69 C-24.69271973 68.35160156 -24.38543945 67.70320313 -24.06884766 67.03515625 C-16.88816579 51.71029901 -12.12660536 35.43943671 -7.01861572 19.34199524 C-5.59761569 14.86672946 -4.16679315 10.39514437 -2.703125 5.93359375 C-2.39536133 4.99443115 -2.08759766 4.05526855 -1.77050781 3.08764648 C-1 1 -1 1 0 0 Z " fill="#EBECFA" transform="translate(234,41)"/>
<path d="M0 0 C2 1 2 1 3.26171875 4.359375 C3.73959087 5.82206598 4.21466558 7.28567275 4.6875 8.75 C11.06790814 27.42947149 21.22129322 42.73121881 39.3515625 51.6484375 C46.40717073 54.79963508 53.47511238 57.24931186 61 59 C61 59.99 61 60.98 61 62 C60.42145264 62.20568604 59.84290527 62.41137207 59.24682617 62.62329102 C37.36384433 70.47643155 18.74683359 80.42417474 8.25 102.375 C5.66897909 108.42071338 3.79739853 114.6840018 2 121 C1.01 121 0.02 121 -1 121 C-1.20568604 120.42145264 -1.41137207 119.84290527 -1.62329102 119.24682617 C-7.22682689 103.32133515 -7.22682689 103.32133515 -16 89 C-16.56847656 88.22914063 -17.13695312 87.45828125 -17.72265625 86.6640625 C-27.98812385 73.89216439 -44.43720546 66.7025604 -60 63 C-60 61.68 -60 60.36 -60 59 C-59.2471875 58.8040625 -58.494375 58.608125 -57.71875 58.40625 C-39.03778232 53.14656007 -22.22858991 44.11988565 -12 27 C-7.86733588 19.29783192 -4.53358626 11.25118038 -1.7265625 2.9765625 C-1 1 -1 1 0 0 Z " fill="#EBECFA" transform="translate(61,234)"/>
<path d="M0 0 C3.69470673 2.46313782 4.28340473 4.94409796 5.6875 8.9375 C10.64848913 21.99742505 18.33886465 31.42618685 31.16015625 37.49609375 C34.0884025 38.71891777 37.03816311 39.86182687 40 41 C42.03788754 41.94466563 44.01327444 42.9514504 46 44 C43.36713482 47.20645367 40.31383926 48.21512179 36.5 49.6875 C19.35190766 56.67730843 11.38634617 67.75532699 4 84 C3.31544376 85.65939898 2.63957391 87.32275004 2 89 C1.01 88.67 0.02 88.34 -1 88 C-2.140625 85.4453125 -2.140625 85.4453125 -3.25 82.125 C-8.62368723 67.49573804 -17.14324222 58.01510408 -31 51 C-35.28710662 49.19590198 -39.61612061 47.55291025 -44 46 C-44 45.01 -44 44.02 -44 43 C-42.96101563 42.64808594 -41.92203125 42.29617187 -40.8515625 41.93359375 C-32.36206716 38.96650035 -24.96823688 35.85642172 -18 30 C-17.35675781 29.46761719 -16.71351563 28.93523438 -16.05078125 28.38671875 C-7.83171805 20.91646391 -3.98760793 10.11017408 0 0 Z " fill="#EBECFA" transform="translate(341,0)"/>
<path d="M0 0 C2.90720554 2.46697156 3.85071459 4.88365957 5.125 8.4375 C10.4742439 21.58772458 18.59753504 29.98937294 31.58984375 35.53125 C34.70857985 36.75029994 37.83484442 37.90804648 41 39 C41 39.99 41 40.98 41 42 C40.17757812 42.36351562 39.35515625 42.72703125 38.5078125 43.1015625 C21.62440362 50.70494525 11.00194897 58.23427065 4 76 C3.3996851 77.39749421 2.79610577 78.79359646 2.1875 80.1875 C1.795625 81.115625 1.40375 82.04375 1 83 C-1.94422849 80.50546635 -2.96751844 77.95237364 -4.3125 74.375 C-10.69042635 58.66675409 -20.89213246 50.75110023 -36 44 C-37.66140763 43.32033324 -39.32605738 42.64818079 -41 42 C-40.67 41.01 -40.34 40.02 -40 39 C-37.62890625 38.078125 -37.62890625 38.078125 -34.5625 37.25 C-22.10541343 33.35900978 -12.77433845 24.83754991 -6.3515625 13.640625 C-4.56915421 10.15823192 -3.1176008 6.60076842 -1.76171875 2.93359375 C-1 1 -1 1 0 0 Z " fill="#EBECFA" transform="translate(378,254)"/>
<path d="M0 0 C3.9803873 3.48592925 6.22348143 8.26358598 8.8671875 12.7734375 C11.92886723 17.40520941 15.31571983 20.85259143 20.125 23.625 C22.80117529 25.17655688 24.88830505 26.73091164 27 29 C26.34773438 29.44730469 25.69546875 29.89460938 25.0234375 30.35546875 C22.33358766 32.21614659 19.66226929 34.10008968 17 36 C16.39800781 36.42796875 15.79601562 36.8559375 15.17578125 37.296875 C8.95867242 42.06169332 5.81614017 48.88554063 3 56 C0 55 0 55 -1.4296875 52.70703125 C-1.90664062 51.75183594 -2.38359375 50.79664063 -2.875 49.8125 C-6.88598417 41.80149063 -10.90111384 37.51634209 -18.8125 33.625 C-19.50537109 33.27050781 -20.19824219 32.91601562 -20.91210938 32.55078125 C-22.60193534 31.68838731 -24.30014112 30.84244578 -26 30 C-23.13161151 26.9026791 -20.27212897 24.85450579 -16.625 22.75 C-8.53564045 17.67664668 -4.97107428 11.87364411 -1.76171875 3.00390625 C-1 1 -1 1 0 0 Z " fill="#EBECFA" transform="translate(76,81)"/>
<path d="M0 0 C3 1 3 1 4.10546875 2.8203125 C4.64107422 3.96113281 4.64107422 3.96113281 5.1875 5.125 C8.94611015 12.23466016 14.65507329 16.87840615 22 20 C21 23 21 23 19.36328125 23.921875 C18.68652344 24.19515625 18.00976562 24.4684375 17.3125 24.75 C10.57215968 27.91481929 6.94992259 33.28073189 4 40 C0.12718835 38.70906278 -0.34824607 37.15998292 -2.5 33.75 C-6.70805704 27.71269429 -11.11602382 25.2904406 -18 23 C-15.08259509 19.99142619 -12.1005477 17.24053776 -8.875 14.5625 C-5.54145999 11.67384973 -3.63004315 9.16566583 -2 5 C-1.608125 4.05125 -1.21625 3.1025 -0.8125 2.125 C-0.544375 1.42375 -0.27625 0.7225 0 0 Z " fill="#EBECFA" transform="translate(289,370)"/>
<path d="M0 0 C2.65135755 1.32567878 2.75169392 2.52350268 3.8125 5.25 C7.39239669 13.47725349 13.12460475 16.40637304 21 20 C18.80106503 23.29840246 17.49141855 23.99761283 14 25.6875 C13.113125 26.12449219 12.22625 26.56148437 11.3125 27.01171875 C9 28 9 28 7 28 C6.7525 28.639375 6.505 29.27875 6.25 29.9375 C4.59188428 33.99988351 2.7964416 37.99724906 1 42 C-2.41610567 39.72259622 -2.61888278 38.87111948 -3.875 35.125 C-6.36044512 28.64608689 -9.63430253 26.55827158 -15.8125 23.75 C-17.20522529 23.15928454 -18.60005584 22.57339761 -20 22 C-19 19 -19 19 -16.41796875 17.67578125 C-15.35191406 17.22589844 -14.28585938 16.77601562 -13.1875 16.3125 C-8.09441363 13.88664606 -5.66087175 12.17291462 -3.66796875 6.90234375 C-3.44753906 6.27457031 -3.22710937 5.64679687 -3 5 C-2.02065076 3.32111559 -1.03013277 1.64821244 0 0 Z " fill="#EBECFA" transform="translate(170,21)"/>
</svg>
