<?xml version="1.0" encoding="UTF-8"?>
<svg version="1.1" xmlns="http://www.w3.org/2000/svg" width="472" height="552">
<path d="M0 0 C0.86630657 -0.00367669 1.73261314 -0.00735338 2.62517142 -0.01114148 C5.52190991 -0.02213549 8.41861247 -0.02601495 11.31536865 -0.02983093 C13.39539706 -0.03609908 15.47542436 -0.04274619 17.55545044 -0.04974365 C24.38394394 -0.07075403 31.21243757 -0.08114691 38.04095459 -0.09111023 C40.39751955 -0.09515966 42.75408439 -0.09927664 45.11064911 -0.10346031 C56.18983502 -0.12250957 67.2690143 -0.13673815 78.34821343 -0.14507228 C91.10424609 -0.15482782 103.86010445 -0.18110453 116.61607575 -0.22157317 C126.49495402 -0.2518295 136.37378262 -0.26655037 146.25270629 -0.26985329 C152.1431005 -0.27219395 158.03330847 -0.28102487 163.92365265 -0.30631447 C169.47560591 -0.32976551 175.02725256 -0.33376054 180.57924271 -0.32355309 C182.6035197 -0.32306164 184.62781268 -0.32926465 186.65204239 -0.34310913 C201.91638628 -0.44156219 218.04223909 0.27854397 231.71282959 7.89717102 C232.36348389 8.24223694 233.01413818 8.58730286 233.68450928 8.94282532 C248.82365094 17.17590174 260.86000989 29.58563806 272.94989014 41.66059875 C273.95163979 42.6577005 274.95357864 43.65461219 275.95568848 44.65135193 C278.63770898 47.32044817 281.31656271 49.99269877 283.99436927 52.66602206 C285.67519488 54.34388816 287.35659385 56.02117772 289.03815651 57.69830513 C294.32263559 62.96917079 299.60515429 68.24198927 304.88477486 73.51772159 C310.93777603 79.56623715 316.99727675 85.6081405 323.06247681 91.64442295 C327.78239522 96.34263061 332.49644134 101.04667904 337.20618278 105.75508839 C340.00564823 108.55351385 342.80740816 111.34953804 345.61536217 114.13944817 C348.25612739 116.76356545 350.8894302 119.39495983 353.51753235 122.03175735 C354.92412155 123.43946607 356.33805814 124.83982174 357.75233459 126.23980713 C366.04431615 134.58538038 373.62467064 143.6128063 378.65032959 154.33467102 C378.97920166 155.01682678 379.30807373 155.69898254 379.64691162 156.40180969 C385.52242459 168.79173496 387.58314619 180.80373705 387.536026 194.49917603 C387.53985155 195.69517762 387.5436771 196.89117921 387.54761857 198.12342328 C387.55609733 201.41224989 387.55573584 204.70093204 387.55143797 207.98976219 C387.54895717 211.54884546 387.55800164 215.10790319 387.56547546 218.66697693 C387.57818728 225.6278612 387.58002054 232.58870683 387.5776752 239.54960076 C387.57588786 245.21140799 387.57765059 250.87320355 387.58189964 256.53500938 C387.58249483 257.34265772 387.58309002 258.15030605 387.58370325 258.98242858 C387.58491507 260.62349247 387.58612921 262.26455635 387.58734562 263.90562024 C387.59820771 279.27588459 387.59606504 294.64612697 387.58996078 310.01639255 C387.58479338 324.05479176 387.59604475 338.09312154 387.615059 352.13150702 C387.6344658 366.57122788 387.64268838 381.01091594 387.63893574 395.45064992 C387.63702794 403.54737743 387.63947011 411.64404588 387.65365028 419.74076271 C387.66560139 426.63405506 387.66692741 433.52725198 387.65486012 440.42054573 C387.64899734 443.93220568 387.64779916 447.4436914 387.65986252 450.95533943 C387.73932307 479.8370887 382.96850963 505.25428148 362.00970459 526.50654602 C347.5312144 540.48863083 327.39108947 552.24299254 306.69440079 552.2813921 C305.57675945 552.28584994 304.4591181 552.29030779 303.30760884 552.29490072 C302.08477468 552.29471635 300.86194052 552.29453199 299.60205078 552.29434204 C297.64740406 552.29985707 297.64740406 552.29985707 295.65326953 552.30548352 C292.03747997 552.31548377 288.42170701 552.31921715 284.80590558 552.32187283 C280.90514756 552.32578195 277.00440261 552.3353601 273.10365295 552.34408569 C263.68176953 552.36383658 254.25988506 552.37391617 244.83798611 552.38281348 C240.39614805 552.38720006 235.95431118 552.39256604 231.51247406 552.39780235 C216.73694227 552.41481592 201.96141121 552.42930749 187.18587112 552.43655109 C183.35257211 552.43846086 179.51927311 552.44038121 175.68597412 552.44233704 C174.73327356 552.44282078 173.78057301 552.44330452 172.79900274 552.44380292 C157.38486909 552.45209341 141.9708133 552.47741315 126.55671361 552.50991771 C110.71482783 552.54305058 94.87298152 552.56100561 79.03106093 552.56419533 C70.14326002 552.56635505 61.25557251 552.57502418 52.36780548 552.60065651 C44.79409395 552.62244903 37.22052337 552.63037228 29.64678404 552.62068973 C25.78842531 552.61616916 21.93035687 552.61789868 18.07203865 552.63745117 C-18.8351185 552.814156 -18.8351185 552.814156 -34.22467041 544.27217102 C-34.88354248 543.92339905 -35.54241455 543.57462708 -36.22125244 543.21528625 C-58.42416056 531.28156535 -74.34922068 512.89913133 -81.8015399 488.64198256 C-84.50860431 478.63082825 -85.29640967 469.44365979 -85.23260498 459.10725403 C-85.23722621 457.45079773 -85.24358725 455.79434556 -85.25151396 454.13790178 C-85.26806281 449.63279596 -85.26002748 445.12803328 -85.24756908 440.62292695 C-85.23846112 435.7462151 -85.25251662 430.86955933 -85.26348877 425.99285889 C-85.28121762 416.45783533 -85.2774592 406.92293816 -85.26583821 397.38790977 C-85.2567819 389.63431827 -85.25558937 381.88076203 -85.25993347 374.12716675 C-85.2605464 373.0210343 -85.26115934 371.91490184 -85.26179084 370.77525023 C-85.26306982 368.52772946 -85.26436668 366.28020871 -85.26568121 364.03268796 C-85.2770705 342.98824777 -85.26399923 321.94387743 -85.24247974 300.89944869 C-85.22461028 282.86659071 -85.22771485 264.83383574 -85.24615479 246.80097961 C-85.26759069 225.82866138 -85.27597202 204.85640426 -85.26370573 183.8840766 C-85.26243162 181.6451095 -85.26117413 179.4061424 -85.25993347 177.16717529 C-85.25931637 176.06573827 -85.25869927 174.96430125 -85.25806347 173.82948735 C-85.25461872 166.0907675 -85.26041998 158.35208662 -85.26985168 150.6133728 C-85.2811033 141.17449772 -85.27796532 131.73575559 -85.25672871 122.29689562 C-85.24626077 117.48674497 -85.24202336 112.6768155 -85.25532532 107.86666679 C-85.26734386 103.4536722 -85.26053277 99.04110144 -85.23941511 94.62814468 C-85.23498876 93.04154274 -85.23712461 91.45490414 -85.24691826 89.86832625 C-85.32521905 76.11634853 -83.26341408 62.92680569 -77.09967041 50.45967102 C-76.59306885 49.41178406 -76.59306885 49.41178406 -76.07623291 48.34272766 C-65.32248239 26.9886429 -46.24236116 11.92527091 -24.02154541 3.79170227 C-15.91959573 1.22978439 -8.4670464 -0.00194419 0 0 Z M-3.72467041 148.14717102 C-10.04129669 156.31726745 -11.75019375 162.79763658 -10.72467041 173.14717102 C-8.67576839 179.89109067 -4.86287594 185.54504309 1.27532959 189.14717102 C7.86587786 192.13217708 13.39611092 192.58751994 20.58148193 192.5670929 C21.68824783 192.57556244 22.79501373 192.58403198 23.93531799 192.59275818 C27.57741939 192.6160701 31.21909687 192.61715167 34.86126709 192.61592102 C37.40420703 192.62302606 39.94714536 192.63072556 42.49008179 192.63899231 C47.81438276 192.65242384 53.13852857 192.65419398 58.46282959 192.64814758 C64.59556885 192.64151062 70.72770608 192.66436794 76.86032331 192.70146132 C82.78595268 192.7359869 88.71139822 192.74248494 94.63713455 192.7383728 C97.14644793 192.74006145 99.65576944 192.74967916 102.16501999 192.76751709 C105.68062251 192.78975981 109.19478873 192.77997598 112.71038818 192.7624054 C113.737202 192.77566864 114.76401581 192.78893188 115.82194519 192.80259705 C123.82976266 192.71004515 130.36531232 190.62889989 136.42351341 185.23429108 C141.43793622 180.08590152 144.18909861 174.56958857 144.33001709 167.34248352 C143.78448117 158.59018981 140.72775841 152.10771065 134.27532959 146.14717102 C128.69939567 142.51734737 123.20315845 141.03159496 116.55859375 141.00672913 C115.63916992 141.00101898 114.71974609 140.99530884 113.77246094 140.98942566 C112.27776276 140.98774887 112.27776276 140.98774887 110.75286865 140.98603821 C109.69370239 140.9810733 108.63453613 140.9761084 107.54327393 140.97099304 C104.04249418 140.95639934 100.54175975 140.94957392 97.04095459 140.94404602 C94.60343424 140.93829214 92.16591389 140.93253443 89.72839355 140.92677307 C84.61740915 140.91627093 79.50644045 140.91042315 74.39544678 140.90693665 C67.85757599 140.90145458 61.31991374 140.87742911 54.78210831 140.84896469 C49.74625041 140.83030877 44.71044245 140.82513112 39.67455292 140.82360077 C37.26489879 140.82058025 34.85524541 140.81257207 32.44562531 140.79941559 C29.06871329 140.78229426 25.69230688 140.78425049 22.31536865 140.79072571 C21.32700012 140.78151093 20.33863159 140.77229614 19.3203125 140.76280212 C10.77572049 140.81393136 2.94328239 142.51645532 -3.72467041 148.14717102 Z M-6.59967041 272.14717102 C-11.2046051 278.6482553 -11.66590521 285.36237486 -10.72467041 293.14717102 C-8.61189598 299.88163951 -4.8793884 305.53535297 1.27532959 309.14717102 C7.98630087 312.21266913 13.66643741 312.57774848 20.98977661 312.5415802 C22.15336877 312.5476713 23.31696094 312.55376241 24.51581347 312.56003809 C27.72798517 312.57376025 30.93983021 312.57413346 34.15201616 312.56866312 C37.62315886 312.56598467 41.09423706 312.58053992 44.56535339 312.59275818 C51.35887685 312.61377973 58.1523149 312.61835493 64.94586705 312.61657029 C70.46953331 312.61526107 75.993173 312.61907498 81.51683426 312.62649536 C83.10979831 312.62859462 84.70276236 312.63069223 86.29572642 312.63278818 C87.4851338 312.63435347 87.4851338 312.63435347 88.69856961 312.63595039 C103.68433083 312.65483938 118.67004307 312.65380661 133.65581127 312.64698106 C147.35442675 312.64140599 161.0528552 312.66223185 174.75142698 312.69534153 C188.82943912 312.72910329 202.90736173 312.74424381 216.9854151 312.7396245 C224.88425028 312.7373824 232.78291258 312.74258502 240.6817131 312.76751709 C247.4061649 312.78856234 254.13034898 312.79209038 260.85481189 312.7732175 C264.28303674 312.76407947 267.71076289 312.76285615 271.13894844 312.78357315 C274.86205798 312.80175949 278.58384543 312.78901821 282.30691528 312.76863098 C283.38125018 312.78114883 284.45558507 312.79366668 285.56247556 312.80656385 C293.50714049 312.71349518 300.15742573 310.8294105 306.18707407 305.43768454 C311.34369224 300.0199564 313.39314468 294.10367355 313.71282959 286.70967102 C313.48663661 280.1681699 311.90147998 275.01917379 307.43939209 270.13935852 C298.05602648 261.54692794 289.25801624 260.99533358 277.09873962 261.01345825 C275.98092096 261.0111927 274.8631023 261.00892714 273.71141034 261.00659293 C269.96992953 261.00026842 266.22848508 261.0010813 262.48699951 261.00190735 C259.80271774 260.9989149 257.11843881 260.9955404 254.43415833 260.99172974 C247.9018713 260.98343584 241.3695933 260.98067547 234.83730146 260.98011736 C229.52576775 260.97964161 224.21423701 260.97758394 218.90270424 260.97441673 C203.83223362 260.96561371 188.76177011 260.96099682 173.6912969 260.96174721 C172.4735193 260.96180714 172.4735193 260.96180714 171.23114014 260.96186829 C170.01186989 260.96192961 170.01186989 260.96192961 168.76796792 260.96199217 C155.59637539 260.96239857 142.42481146 260.95282957 129.2532272 260.93872992 C115.71766673 260.92435535 102.1821202 260.91746033 88.64655191 260.9183237 C81.05180771 260.91865528 73.45709349 260.91592487 65.86235619 260.90514565 C59.39596688 260.89602644 52.92962115 260.89387706 46.46322819 260.90065507 C43.16679684 260.90391308 39.8704661 260.90290938 36.57403946 260.89530182 C32.99357551 260.88757493 29.41332979 260.89223155 25.83287048 260.89993286 C24.8006539 260.8947893 23.76843732 260.88964574 22.70494145 260.88434631 C10.40037981 260.94267992 1.81162375 262.82853609 -6.59967041 272.14717102 Z M-6.59967041 392.14717102 C-11.2046051 398.6482553 -11.66590521 405.36237486 -10.72467041 413.14717102 C-8.61189598 419.88163951 -4.8793884 425.53535297 1.27532959 429.14717102 C7.98630087 432.21266913 13.66643741 432.57774848 20.98977661 432.5415802 C22.15336877 432.5476713 23.31696094 432.55376241 24.51581347 432.56003809 C27.72798517 432.57376025 30.93983021 432.57413346 34.15201616 432.56866312 C37.62315886 432.56598467 41.09423706 432.58053992 44.56535339 432.59275818 C51.35887685 432.61377973 58.1523149 432.61835493 64.94586705 432.61657029 C70.46953331 432.61526107 75.993173 432.61907498 81.51683426 432.62649536 C83.10979831 432.62859462 84.70276236 432.63069223 86.29572642 432.63278818 C87.4851338 432.63435347 87.4851338 432.63435347 88.69856961 432.63595039 C103.68433083 432.65483938 118.67004307 432.65380661 133.65581127 432.64698106 C147.35442675 432.64140599 161.0528552 432.66223185 174.75142698 432.69534153 C188.82943912 432.72910329 202.90736173 432.74424381 216.9854151 432.7396245 C224.88425028 432.7373824 232.78291258 432.74258502 240.6817131 432.76751709 C247.4061649 432.78856234 254.13034898 432.79209038 260.85481189 432.7732175 C264.28303674 432.76407947 267.71076289 432.76285615 271.13894844 432.78357315 C274.86205798 432.80175949 278.58384543 432.78901821 282.30691528 432.76863098 C283.38125018 432.78114883 284.45558507 432.79366668 285.56247556 432.80656385 C293.49678093 432.71361653 300.20434056 430.85348498 306.18707407 425.40667868 C312.04847053 419.12749617 313.87993319 412.62617039 313.61517334 404.14326477 C312.72870427 396.32807194 309.36258407 391.43611544 303.28704834 386.58467102 C295.07082665 380.71366213 286.80629446 380.99898813 277.09873962 381.01345825 C275.98092096 381.0111927 274.8631023 381.00892714 273.71141034 381.00659293 C269.96992953 381.00026842 266.22848508 381.0010813 262.48699951 381.00190735 C259.80271774 380.9989149 257.11843881 380.9955404 254.43415833 380.99172974 C247.9018713 380.98343584 241.3695933 380.98067547 234.83730146 380.98011736 C229.52576775 380.97964161 224.21423701 380.97758394 218.90270424 380.97441673 C203.83223362 380.96561371 188.76177011 380.96099682 173.6912969 380.96174721 C172.4735193 380.96180714 172.4735193 380.96180714 171.23114014 380.96186829 C170.01186989 380.96192961 170.01186989 380.96192961 168.76796792 380.96199217 C155.59637539 380.96239857 142.42481146 380.95282957 129.2532272 380.93872992 C115.71766673 380.92435535 102.1821202 380.91746033 88.64655191 380.9183237 C81.05180771 380.91865528 73.45709349 380.91592487 65.86235619 380.90514565 C59.39596688 380.89602644 52.92962115 380.89387706 46.46322819 380.90065507 C43.16679684 380.90391308 39.8704661 380.90290938 36.57403946 380.89530182 C32.99357551 380.88757493 29.41332979 380.89223155 25.83287048 380.89993286 C24.8006539 380.8947893 23.76843732 380.88964574 22.70494145 380.88434631 C10.40037981 380.94267992 1.81162375 382.82853609 -6.59967041 392.14717102 Z " fill="#000000" transform="translate(84.72467041015625,-0.1471710205078125)"/>
</svg>
