<?xml version="1.0" encoding="UTF-8"?>
<svg version="1.1" xmlns="http://www.w3.org/2000/svg" width="662" height="662">
<path d="M0 0 C4.07057108 0.53008295 5.89978999 2.56538058 8.703125 5.4453125 C9.60160156 6.35796875 10.50007813 7.270625 11.42578125 8.2109375 C12.36764053 9.1818524 13.30904436 10.15320932 14.25 11.125 C20.31594565 17.33598233 26.39405644 23.36594458 33 29 C35.04034605 30.79813801 37.02148286 32.63140048 39 34.5 C39.94875 35.3765625 40.8975 36.253125 41.875 37.15625 C44 40 44 40 44.71875 43.41015625 C43.71582652 48.41932298 41.19806002 50.58925647 37.5 53.9375 C36.87996094 54.52595703 36.25992188 55.11441406 35.62109375 55.72070312 C34.09611259 57.16356992 32.55004525 58.58409328 31 60 C37.10946058 67.37465422 37.10946058 67.37465422 44 74 C44.66 74 45.32 74 46 74 C47.60059293 72.37907408 47.60059293 72.37907408 49.25 70.3125 C56.89980577 61.39564566 56.89980577 61.39564566 61.7578125 60.48046875 C66.50925478 61.24184444 68.61595186 63.88268039 71.8125 67.3125 C72.39708984 67.90740234 72.98167969 68.50230469 73.58398438 69.11523438 C77.84461703 73.53385109 77.84461703 73.53385109 79 77 C77.79008796 82.00153778 74.46898869 84.88111637 70.875 88.3125 C70.31167969 88.86228516 69.74835938 89.41207031 69.16796875 89.97851562 C67.78537942 91.32595438 66.39359084 92.66394273 65 94 C69.11619836 98.91935902 73.40410362 103.52647956 78 108 C82.3689186 104.34437423 86.40240837 100.6431927 90.2265625 96.41796875 C92.51634228 94.58715364 94.08752728 94.25249369 97 94 C98.95703125 95.15234375 98.95703125 95.15234375 100.8125 96.9375 C101.84310547 97.91203125 101.84310547 97.91203125 102.89453125 98.90625 C103.58933594 99.5971875 104.28414062 100.288125 105 101 C105.66386719 101.6496875 106.32773437 102.299375 107.01171875 102.96875 C109.70172707 105.63233388 112.34923184 108.33652152 115 111.0390625 C118.90466174 114.98948199 122.91283625 118.72356658 127.12109375 122.34814453 C129.86712667 124.76234135 132.43915247 127.32976371 135 129.9375 C135.48855469 130.43056641 135.97710938 130.92363281 136.48046875 131.43164062 C137.65603525 132.61873229 138.82838826 133.80900498 140 135 C137.8670949 138.89878432 135.44806999 141.73857869 132.25 144.8125 C129.3157789 147.64060933 126.52521172 150.51269438 123.87109375 153.6015625 C119.53425167 158.60502165 114.94359207 163.34924384 110.29223633 168.05786133 C109.29503544 169.07184402 108.30326057 170.0911881 107.31665039 171.11547852 C105.87529517 172.6112781 104.41845204 174.09023783 102.95703125 175.56640625 C102.10085205 176.44240479 101.24467285 177.31840332 100.36254883 178.22094727 C98 180 98 180 95.8828125 179.93774414 C93.89791813 178.94915762 92.5264191 177.95440465 90.91796875 176.4296875 C90.32636963 175.874021 89.73477051 175.31835449 89.12524414 174.74584961 C88.48578857 174.12846924 87.84633301 173.51108887 87.1875 172.875 C86.51259521 172.22990479 85.83769043 171.58480957 85.14233398 170.92016602 C83.62072053 169.45773299 82.10385729 167.99034748 80.59082031 166.51904297 C78.73854986 164.71808871 76.88164238 162.92297694 75.01855469 161.13330078 C72.37598966 158.59241351 69.7489943 156.0362316 67.13101196 153.47003174 C66.08910948 152.45202954 65.04320329 151.43810827 63.99325562 150.42840576 C62.50517186 148.99434661 61.03431381 147.54451278 59.56640625 146.08984375 C58.70990479 145.25316162 57.85340332 144.41647949 56.97094727 143.55444336 C54.6964566 140.60659301 54.18124241 138.69177331 54 135 C55.22265625 132.875 55.22265625 132.875 57.0625 131 C57.70445312 130.3296875 58.34640625 129.659375 59.0078125 128.96875 C59.66523438 128.3190625 60.32265625 127.669375 61 127 C61.59554687 126.3915625 62.19109375 125.783125 62.8046875 125.15625 C64.18667589 123.75442445 65.59098059 122.37465308 67 121 C65.38989473 116.92623969 62.46177729 114.23492931 59.375 111.25 C58.859375 110.74339844 58.34375 110.23679687 57.8125 109.71484375 C56.54616661 108.47196098 55.2736856 107.23534724 54 106 C48.79076595 110.35765959 43.91888585 114.93414814 39.125 119.7421875 C38.39684082 120.46938995 37.66868164 121.19659241 36.91845703 121.9458313 C35.3877687 123.47584288 33.85832743 125.00710299 32.33007812 126.53955078 C30.01022545 128.86475098 27.68509461 131.18457598 25.359375 133.50390625 C23.8642627 134.99967957 22.36946074 136.49576319 20.875 137.9921875 C20.18937988 138.67578339 19.50375977 139.35937927 18.79736328 140.06369019 C14.33428528 144.5481622 10.10924256 149.18945497 6 154 C10.11619836 158.91935902 14.40410362 163.52647956 19 168 C23.3689186 164.34437423 27.40240837 160.6431927 31.2265625 156.41796875 C33.54400269 154.5650375 35.0413348 154.21880199 38 154 C48.50175915 159.86467646 57.3022993 171.07802182 65.6875 179.5625 C67.17856527 181.06361922 68.67009838 182.56427389 70.16210938 184.06445312 C73.78015062 187.70430696 77.39181963 191.35037195 81 195 C79.06608582 198.44781803 77.06315359 201.17006429 74.234375 203.92578125 C73.14576172 204.99795898 73.14576172 204.99795898 72.03515625 206.09179688 C71.28105469 206.82462891 70.52695312 207.55746094 69.75 208.3125 C64.88056217 213.06721286 60.17227928 217.8557239 55.73291016 223.01586914 C52.70890446 226.4782662 49.5264821 229.77716815 46.3125 233.0625 C45.33700195 234.09407227 45.33700195 234.09407227 44.34179688 235.14648438 C43.70951172 235.79037109 43.07722656 236.43425781 42.42578125 237.09765625 C41.86286377 237.68039307 41.29994629 238.26312988 40.7199707 238.86352539 C39 240 39 240 37.10717773 239.98657227 C34.07485909 238.56685269 32.19477444 236.51040221 29.859375 234.1171875 C29.37349915 233.62469513 28.88762329 233.13220276 28.38702393 232.62478638 C26.83407329 231.04847772 25.29159761 229.46240674 23.75 227.875 C21.7278609 225.80604322 19.70141926 223.7413798 17.671875 221.6796875 C17.18105942 221.18059875 16.69024384 220.68151001 16.18455505 220.16729736 C12.29031519 216.23357627 8.23151955 212.56357804 4 209 C2.29151521 207.52394582 0.59959559 206.0281016 -1.0625 204.5 C-1.83722656 203.8090625 -2.61195313 203.118125 -3.41015625 202.40625 C-5 200 -5 200 -5.08984375 196.578125 C-3.79897221 192.33999478 -1.72668963 190.10281627 1.5 187.25 C5.55009698 183.70945923 5.55009698 183.70945923 8 179 C3.71 174.71 -0.58 170.42 -5 166 C-10.77817129 170.8025478 -16.10167775 175.95606304 -21.40625 181.2734375 C-22.73154724 182.59729965 -22.73154724 182.59729965 -24.08361816 183.94790649 C-26.41719483 186.28063292 -28.7483335 188.61576341 -31.07867432 190.95172119 C-32.4973624 192.37235878 -33.91798047 193.79103541 -35.33935547 195.20898438 C-38.09352803 197.956942 -40.8441726 200.70838274 -43.59375 203.4609375 C-44.43248657 204.29764984 -45.27122314 205.13436218 -46.13537598 205.99642944 C-50.41189834 210.28985015 -54.52661144 214.63723077 -58.40881348 219.29238892 C-60.12311303 221.13212102 -61.95085277 222.54981024 -64 224 C-68.84309854 221.83220689 -72.08711009 218.31890774 -75.8125 214.625 C-76.51826172 213.95210937 -77.22402344 213.27921875 -77.95117188 212.5859375 C-78.61310547 211.93109375 -79.27503906 211.27625 -79.95703125 210.6015625 C-80.56522705 210.00682129 -81.17342285 209.41208008 -81.80004883 208.79931641 C-83 207 -83 207 -82.90338135 205.23721313 C-81.58140366 201.96335116 -79.22526611 199.83326649 -76.74584961 197.40527344 C-76.19950363 196.85848938 -75.65315765 196.31170532 -75.09025574 195.74835205 C-73.28463897 193.94482343 -71.46863268 192.15215021 -69.65234375 190.359375 C-68.39758637 189.11021346 -67.14349018 187.86038743 -65.89002991 186.60992432 C-62.59055519 183.32189922 -59.28217036 180.04298293 -55.97186279 176.76586914 C-52.5949653 173.41966979 -49.22655345 170.06495267 -45.85742188 166.7109375 C-39.24656856 160.13225043 -32.62627305 153.56315297 -26 147 C-27.83692389 142.99625569 -30.49117916 140.28042066 -33.625 137.25 C-34.140625 136.74339844 -34.65625 136.23679688 -35.1875 135.71484375 C-36.45383339 134.47196098 -37.7263144 133.23534724 -39 132 C-43.3689186 135.65562577 -47.40240837 139.3568073 -51.2265625 143.58203125 C-53.51401487 145.41098546 -55.09153393 145.74314775 -58 146 C-59.921875 144.8828125 -59.921875 144.8828125 -61.75 143.125 C-62.43707031 142.4753125 -63.12414062 141.825625 -63.83203125 141.15625 C-64.54746094 140.4446875 -65.26289063 139.733125 -66 139 C-66.72574219 138.2884375 -67.45148438 137.576875 -68.19921875 136.84375 C-71.25648858 133.81315792 -74.27100514 130.74143504 -77.2890625 127.671875 C-81.46466589 123.45322416 -85.71705255 119.42284547 -90.21875 115.55419922 C-92.58396405 113.49047216 -94.79825483 111.29864744 -97 109.0625 C-97.763125 108.29035156 -98.52625 107.51820313 -99.3125 106.72265625 C-99.869375 106.15417969 -100.42625 105.58570313 -101 105 C-98.48960645 100.17394543 -95.01390824 96.77303269 -91.171875 93.01171875 C-90.50464417 92.34968948 -89.83741333 91.68766022 -89.14996338 91.00556946 C-87.02135901 88.8947164 -84.88619389 86.7906699 -82.75 84.6875 C-80.62892629 82.594227 -78.50939897 80.49944742 -76.3928833 78.40156555 C-75.07895128 77.09969148 -73.76235827 75.80049509 -72.44256592 74.50456238 C-68.60362177 70.70669051 -65.05910896 66.78960193 -61.66314697 62.58796692 C-59.74690067 60.75834164 -58.63604431 60.19672369 -56 60 C-53.73472011 61.68452116 -51.86835394 63.33686231 -49.875 65.3125 C-49.2555249 65.91263916 -48.6360498 66.51277832 -47.99780273 67.13110352 C-46.53916657 68.55124145 -45.08684471 69.97787935 -43.63916016 71.40917969 C-41.11754155 73.88461139 -38.56964657 76.3292284 -36.01361084 78.76893616 C-33.61625169 81.06476757 -31.23591762 83.37776067 -28.85870361 85.69442749 C-27.66381999 86.85396685 -26.46341755 88.00784683 -25.25750732 89.15591431 C-23.5410831 90.7941956 -21.84881489 92.45426746 -20.16015625 94.12109375 C-19.63898727 94.60933624 -19.1178183 95.09757874 -18.58085632 95.60061646 C-15.89957633 98.29683705 -15.02198098 99.8397502 -14.49975586 103.64697266 C-15.01531297 107.10263947 -15.35236332 108.20364656 -17.84375 110.52734375 C-18.43027344 111.09130859 -19.01679688 111.65527344 -19.62109375 112.23632812 C-20.24113281 112.79771484 -20.86117187 113.35910156 -21.5 113.9375 C-22.12003906 114.52595703 -22.74007812 115.11441406 -23.37890625 115.72070312 C-24.90388741 117.16356992 -26.44995475 118.58409328 -28 120 C-23.8828277 124.92052299 -19.58424564 129.51428189 -15 134 C-9.1202495 129.12275563 -3.73119183 123.86113122 1.65234375 118.4453125 C2.55247696 117.54376434 3.45261017 116.64221619 4.38002014 115.71334839 C6.75072823 113.33801783 9.11924515 110.96054595 11.48669434 108.58197021 C13.91180728 106.14655283 16.33982085 103.71403088 18.76757812 101.28125 C23.51437128 96.52347231 28.25829281 91.7628462 33 87 C31.16307611 82.99625569 28.50882084 80.28042066 25.375 77.25 C24.859375 76.74339844 24.34375 76.23679687 23.8125 75.71484375 C22.54616661 74.47196098 21.2736856 73.23534724 20 72 C15.6310814 75.65562577 11.59759163 79.3568073 7.7734375 83.58203125 C5.45435011 85.43627953 3.96148185 85.78462439 1 86 C-8.40721498 80.665686 -16.50186498 70.93592232 -24.12939453 63.35107422 C-26.27424674 61.22597657 -28.43952588 59.12310276 -30.60546875 57.01953125 C-31.97265652 55.66537612 -33.33859054 54.30995373 -34.703125 52.953125 C-35.67623627 52.01705414 -35.67623627 52.01705414 -36.66900635 51.06207275 C-37.25422058 50.47085632 -37.83943481 49.87963989 -38.44238281 49.27050781 C-38.96213684 48.75804504 -39.48189087 48.24558228 -40.01739502 47.71759033 C-41 46 -41 46 -40.88970947 43.55284119 C-39.84068576 40.54288005 -38.59053165 39.11304742 -36.32226562 36.8840332 C-35.54475952 36.11005692 -34.76725342 35.33608063 -33.96618652 34.53865051 C-33.12140747 33.71765366 -32.27662842 32.8966568 -31.40625 32.05078125 C-30.54439087 31.19695358 -29.68253174 30.34312592 -28.79455566 29.46342468 C-26.03897837 26.73686184 -23.27012038 24.02427931 -20.5 21.3125 C-17.73251227 18.58746723 -14.96782971 15.85964495 -12.20544434 13.12944031 C-10.48511077 11.43086721 -8.76131272 9.73579475 -7.03381348 8.04450989 C-6.25630737 7.27999008 -5.47880127 6.51547028 -4.67773438 5.7277832 C-3.64634338 4.71782036 -3.64634338 4.71782036 -2.59411621 3.68745422 C-0.91709967 2.0751388 -0.91709967 2.0751388 0 0 Z " fill="#EAEBFA" transform="translate(421,100)"/>
<path d="M0 0 C3.48203783 1.74101892 5.23392269 2.96710317 7.92651367 5.60424805 C9.06240181 6.71131355 9.06240181 6.71131355 10.22123718 7.84074402 C11.43236931 9.03912651 11.43236931 9.03912651 12.66796875 10.26171875 C13.50338699 11.08573685 14.33880524 11.90975494 15.19953918 12.75874329 C16.9632349 14.50355643 18.72404623 16.25128929 20.48217773 18.00170898 C23.17393051 20.67402848 25.8862391 23.3242663 28.59960938 25.97460938 C30.31121223 27.67315367 32.02154205 29.37298196 33.73046875 31.07421875 C34.54396286 31.86301926 35.35745697 32.65181976 36.19560242 33.46452332 C42.38053814 39.69910212 42.38053814 39.69910212 43.18847656 43.83740234 C42.9838812 47.27047017 42.73098554 48.23899431 40.25390625 50.52734375 C39.66416016 51.09130859 39.07441406 51.65527344 38.46679688 52.23632812 C37.83837891 52.79771484 37.20996094 53.35910156 36.5625 53.9375 C35.93794922 54.52595703 35.31339844 55.11441406 34.66992188 55.72070312 C33.13070623 57.16592087 31.567562 58.58557839 30 60 C31.42609159 63.36202939 33.14348515 65.23675579 35.9375 67.5625 C38.39732014 69.6269098 40.76368922 71.69358543 43 74 C46.43930583 72.51873643 48.66954338 70.57572554 51.30078125 67.9296875 C52.11353516 67.115 52.92628906 66.3003125 53.76367188 65.4609375 C54.60478516 64.60757813 55.44589844 63.75421875 56.3125 62.875 C57.14201172 62.04484375 57.97152344 61.2146875 58.82617188 60.359375 C62.40108827 56.75906456 65.92346951 53.15223621 69.21875 49.29296875 C74.29600189 43.39947888 79.79931362 37.9026688 85.27124023 32.37866211 C86.55946436 31.07369715 87.84227457 29.7633676 89.11987305 28.44799805 C90.97819569 26.53524854 92.85213469 24.63916999 94.73046875 22.74609375 C95.30033005 22.15356308 95.87019135 21.56103241 96.45732117 20.95054626 C98.08666992 19.32983398 98.08666992 19.32983398 101 17 C106.11654273 17.67012859 109.08832893 21.40510208 112.6875 24.8125 C113.37650391 25.44220703 114.06550781 26.07191406 114.77539062 26.72070312 C115.43087891 27.33494141 116.08636719 27.94917969 116.76171875 28.58203125 C117.35944092 29.14124268 117.95716309 29.7004541 118.57299805 30.27661133 C120.26446355 32.31939234 120.97661093 33.32522538 121 36 C119.20507812 38.34667969 119.20507812 38.34667969 116.53125 40.921875 C116.05812378 41.38555481 115.58499756 41.84923462 115.09753418 42.32696533 C113.57635543 43.81351795 112.03917106 45.2821047 110.5 46.75 C108.50575434 48.67751414 106.51802951 50.61166938 104.53125 52.546875 C104.04028336 53.02302246 103.54931671 53.49916992 103.04347229 53.98974609 C100.46867963 56.50224341 98.00920188 59.05281198 95.68359375 61.796875 C90.05662081 68.40708742 83.71648556 74.38692266 77.5625 80.5 C76.24520941 81.81226585 74.92815014 83.12476395 73.61132812 84.4375 C70.4102139 87.62768506 67.20598135 90.81470651 64 94 C64.9550972 95.12120157 65.91117951 96.24156401 66.86767578 97.36157227 C67.3999881 97.98556412 67.93230042 98.60955597 68.48074341 99.25245667 C70.20190298 101.23224136 72.001573 103.10154154 73.875 104.9375 C74.47054687 105.52402344 75.06609375 106.11054688 75.6796875 106.71484375 C76.11539063 107.13894531 76.55109375 107.56304687 77 108 C81.89917219 106.02906866 84.80427775 102.05471925 88.26953125 98.21484375 C91.84109467 95.31773866 93.37354137 94.7961163 98 95 C101.57358961 97.40025047 104.42658366 100.45049704 107.3984375 103.546875 C108.27400299 104.42901672 109.14956848 105.31115845 110.05166626 106.22003174 C112.37106585 108.56561071 114.67151164 110.92793556 116.96484375 113.2989502 C119.30421928 115.706166 121.67168243 118.08519465 124.03515625 120.46875 C125.82447886 122.28492056 127.61229209 124.10257968 129.3984375 125.921875 C130.24626801 126.78447937 131.09409851 127.64708374 131.96762085 128.53582764 C132.74578156 129.33965881 133.52394226 130.14348999 134.32568359 130.97167969 C135.01294525 131.67862976 135.70020691 132.38557983 136.40829468 133.11395264 C138 135 138 135 139 138 C133.58159273 143.46472787 128.1578039 148.92406395 122.72707653 154.37654781 C120.20559641 156.90846944 117.68601222 159.44221959 115.1706543 161.98022461 C112.27945072 164.89729588 109.38021033 167.80625943 106.48046875 170.71484375 C105.57725388 171.6283812 104.674039 172.54191864 103.74345398 173.48313904 C102.90280899 174.32393509 102.062164 175.16473114 101.19604492 176.03100586 C100.45658127 176.77491074 99.71711761 177.51881561 98.95524597 178.28526306 C97 180 97 180 94 181 C88.78417513 175.92346875 83.58486139 170.83063109 78.40575504 165.71662807 C76.00009494 163.34222175 73.58920369 160.97369355 71.1652832 158.61791992 C68.37845583 155.90392278 65.61150096 153.17096795 62.84765625 150.43359375 C61.97786636 149.59477158 61.10807648 148.7559494 60.21192932 147.89170837 C53.58355623 141.2670866 53.58355623 141.2670866 52.77539062 137.13085938 C53.01908366 133.73399041 53.29012454 132.741504 55.74609375 130.47265625 C56.33583984 129.90869141 56.92558594 129.34472656 57.53320312 128.76367188 C58.16162109 128.20228516 58.79003906 127.64089844 59.4375 127.0625 C60.06205078 126.47404297 60.68660156 125.88558594 61.33007812 125.27929688 C62.86929377 123.83407913 64.432438 122.41442161 66 121 C64.38989473 116.92623969 61.46177729 114.23492931 58.375 111.25 C57.859375 110.74339844 57.34375 110.23679687 56.8125 109.71484375 C55.54616661 108.47196098 54.2736856 107.23534724 53 106 C48.23858166 109.87557306 43.84483408 114.04514165 39.5 118.375 C38.96673096 118.90375732 38.43346191 119.43251465 37.8840332 119.97729492 C35.06603041 122.80559963 32.3750987 125.69436807 29.77734375 128.7265625 C25.14269789 134.08115334 20.08974856 139.01801119 15.0625 144 C14.0824469 144.97502386 13.1026276 145.9502828 12.12304688 146.92578125 C9.75097687 149.28616618 7.3765914 151.64416905 5 154 C8.18031122 157.7658106 11.35141825 161.48438989 14.875 164.9375 C15.76832031 165.81728516 15.76832031 165.81728516 16.6796875 166.71484375 C17.11539063 167.13894531 17.55109375 167.56304687 18 168 C23.1504548 166.01356593 26.00849897 161.54167588 29.46484375 157.43359375 C32.21835089 154.7903966 33.27876172 154.27367273 37 154 C38.74389648 154.93920898 38.74389648 154.93920898 40.43359375 156.55859375 C41.46395752 157.5328833 41.46395752 157.5328833 42.51513672 158.52685547 C43.74514404 159.75106201 43.74514404 159.75106201 45 161 C45.49912903 161.49220032 45.99825806 161.98440063 46.51251221 162.49151611 C50.72776578 166.6503049 54.89819702 170.85278595 59.0625 175.0625 C61.52955477 177.55638099 64.00006492 180.04676575 66.47265625 182.53515625 C67.02389664 183.09469498 67.57513702 183.6542337 68.14308167 184.23072815 C71.92453655 188.03556429 75.88001151 191.5653804 80 195 C78.66971697 198.91751925 77.06654574 201.30840328 74.14868164 204.22363281 C73.3576857 205.02085754 72.56668976 205.81808228 71.75172424 206.63946533 C70.89650681 207.48547302 70.04128937 208.33148071 69.16015625 209.203125 C67.84331093 210.52071808 67.84331093 210.52071808 66.49986267 211.8649292 C64.17043438 214.19142124 61.83412475 216.5107248 59.49505615 218.82751465 C58.06155397 220.25093938 56.6330283 221.67916376 55.20629883 223.109375 C52.4673921 225.85468049 49.7214557 228.59272819 46.97265625 231.328125 C46.11946304 232.18222961 45.26626984 233.03633423 44.38722229 233.9163208 C43.59307419 234.70093689 42.79892609 235.48555298 41.98071289 236.29394531 C41.28281143 236.98723938 40.58490997 237.68053345 39.86585999 238.39483643 C38 240 38 240 35 241 C29.78715259 235.90316434 24.58800006 230.79277527 19.40575504 225.6648159 C16.99880692 223.28392654 14.5874471 220.90789647 12.1652832 218.54248047 C9.38087509 215.81871153 6.61291623 213.07912742 3.84765625 210.3359375 C2.97786636 209.49195404 2.10807648 208.64797058 1.21192932 207.77841187 C0.41117477 206.97803497 -0.38957977 206.17765808 -1.21459961 205.35302734 C-1.9229747 204.65575531 -2.63134979 203.95848328 -3.3611908 203.24008179 C-5.38663704 200.47150737 -5.77787324 198.39818591 -6 195 C-4.77734375 192.875 -4.77734375 192.875 -2.9375 191 C-1.97457031 189.99453125 -1.97457031 189.99453125 -0.9921875 188.96875 C-0.33476562 188.3190625 0.32265625 187.669375 1 187 C1.59554687 186.3915625 2.19109375 185.783125 2.8046875 185.15625 C4.18667589 183.75442445 5.59098059 182.37465308 7 181 C5.38989473 176.92623969 2.46177729 174.23492931 -0.625 171.25 C-1.140625 170.74339844 -1.65625 170.23679687 -2.1875 169.71484375 C-3.45383339 168.47196098 -4.7263144 167.23534724 -6 166 C-10.3689186 169.65562577 -14.40240837 173.3568073 -18.2265625 177.58203125 C-20.52206026 179.41741823 -22.06891727 179.86430173 -25 180 C-28.10927255 178.20149921 -30.48986422 175.55276073 -33 173 C-33.68320313 172.31550781 -34.36640625 171.63101563 -35.0703125 170.92578125 C-39.75806739 165.9438555 -39.75806739 165.9438555 -40.59375 162.68359375 C-39.64396144 158.39079942 -36.6406011 156.11589833 -33.5 153.1875 C-32.87996094 152.59001953 -32.25992188 151.99253906 -31.62109375 151.37695312 C-30.09174512 149.90642559 -28.54728534 148.4516427 -27 147 C-28.80520453 143.03591823 -31.38505865 140.57878128 -34.625 137.75 C-35.140625 137.29109375 -35.65625 136.8321875 -36.1875 136.359375 C-37.4534602 135.23407704 -38.72607942 134.11627823 -40 133 C-44.89917219 134.97093134 -47.80427775 138.94528075 -51.26953125 142.78515625 C-54.84109467 145.68226134 -56.37354137 146.2038837 -61 146 C-64.57358961 143.59974953 -67.42658366 140.54950296 -70.3984375 137.453125 C-71.27400299 136.57098328 -72.14956848 135.68884155 -73.05166626 134.77996826 C-75.37106585 132.43438929 -77.67151164 130.07206444 -79.96484375 127.7010498 C-82.30421928 125.293834 -84.67168243 122.91480535 -87.03515625 120.53125 C-88.82447886 118.71507944 -90.61229209 116.89742032 -92.3984375 115.078125 C-93.24626801 114.21552063 -94.09409851 113.35291626 -94.96762085 112.46417236 C-96.13486191 111.2584256 -96.13486191 111.2584256 -97.32568359 110.02832031 C-98.01294525 109.32137024 -98.70020691 108.61442017 -99.40829468 107.88604736 C-101 106 -101 106 -102 103 C-87.81 88.81 -73.62 74.62 -59 60 C-55.69152318 61.65423841 -54.17999282 62.57474989 -51.71948242 65.06933594 C-51.10171432 65.69048279 -50.48394623 66.31162964 -49.84745789 66.95159912 C-49.19010147 67.62241516 -48.53274506 68.2932312 -47.85546875 68.984375 C-47.16745682 69.6775885 -46.47944489 70.370802 -45.77058411 71.08502197 C-43.57141773 73.3019837 -41.3790354 75.52549652 -39.1875 77.75 C-37.00586348 79.95938657 -34.82274372 82.16725286 -32.6365509 84.37213135 C-31.27798156 85.74281053 -29.92209213 87.11615312 -28.56938171 88.49261475 C-24.99024351 92.10902037 -21.3522691 95.47096623 -17.34846497 98.61564636 C-16 100 -16 100 -15.15625 103.44140625 C-16.32366923 108.36510493 -18.82677701 110.61174405 -22.5 113.9375 C-23.12003906 114.52595703 -23.74007812 115.11441406 -24.37890625 115.72070312 C-25.90388741 117.16356992 -27.44995475 118.58409328 -29 120 C-24.88380164 124.91935902 -20.59589638 129.52647956 -16 134 C-12.08790692 132.40584497 -9.62781914 129.86106668 -6.6875 126.875 C-5.78386719 125.96492188 -4.88023437 125.05484375 -3.94921875 124.1171875 C-1.8762713 121.96818451 0.08008869 119.74956307 2.015625 117.4765625 C7.48861507 111.16924317 13.51493999 105.38000942 19.4375 99.5 C20.6584369 98.28408886 21.87914192 97.06794484 23.09960938 95.8515625 C26.06374013 92.89835034 29.03098958 89.94830602 32 87 C28.81968878 83.2341894 25.64858175 79.51561011 22.125 76.0625 C21.52945313 75.47597656 20.93390625 74.88945312 20.3203125 74.28515625 C19.88460937 73.86105469 19.44890625 73.43695313 19 73 C14.10082781 74.97093134 11.19572225 78.94528075 7.73046875 82.78515625 C4.15890533 85.68226134 2.62645863 86.2038837 -2 86 C-5.57358961 83.59974953 -8.42658366 80.54950296 -11.3984375 77.453125 C-12.27400299 76.57098328 -13.14956848 75.68884155 -14.05166626 74.77996826 C-16.37106585 72.43438929 -18.67151164 70.07206444 -20.96484375 67.7010498 C-23.30421928 65.293834 -25.67168243 62.91480535 -28.03515625 60.53125 C-29.82447886 58.71507944 -31.61229209 56.89742032 -33.3984375 55.078125 C-34.24626801 54.21552063 -35.09409851 53.35291626 -35.96762085 52.46417236 C-36.74578156 51.66034119 -37.52394226 50.85651001 -38.32568359 50.02832031 C-39.01294525 49.32137024 -39.70020691 48.61442017 -40.40829468 47.88604736 C-42 46 -42 46 -43 43 C-28.81 28.81 -14.62 14.62 0 0 Z " fill="#EAEBF9" transform="translate(203,322)"/>
<path d="M0 0 C2.0012207 1.56298828 2.0012207 1.56298828 3.92578125 3.5703125 C4.64056641 4.3025 5.35535156 5.0346875 6.09179688 5.7890625 C6.82462891 6.55992187 7.55746094 7.33078125 8.3125 8.125 C9.76437437 9.63007084 11.2187875 11.13269696 12.67578125 12.6328125 C13.31427002 13.30199707 13.95275879 13.97118164 14.6105957 14.66064453 C16.55674518 16.56602966 18.52928102 18.32959581 20.59562683 20.09860229 C25.21477343 24.12905477 29.54032816 28.41412092 33.859375 32.76171875 C35.12932312 34.03385727 35.12932312 34.03385727 36.42492676 35.33169556 C38.72418921 37.63572578 41.02124166 39.94193269 43.31745911 42.24899673 C45.73522816 44.67682877 48.15630749 47.10135471 50.57714844 49.52612305 C57.24225628 56.20321511 63.90231428 62.8853366 70.56231689 69.56752014 C76.67204267 75.69748906 82.78286085 81.82635868 88.89775467 87.95117283 C91.3005431 90.35810175 93.70225382 92.76608563 96.10144043 95.17660522 C98.7789096 97.86609403 101.45945287 100.55248465 104.140625 103.23828125 C105.31292664 104.41833237 105.31292664 104.41833237 106.50891113 105.6222229 C110.64633511 109.76004109 114.86737362 113.73009164 119.311409 117.53781223 C121.54497123 119.47190247 123.63771275 121.52475476 125.71875 123.62109375 C126.50507813 124.41064453 127.29140625 125.20019531 128.1015625 126.01367188 C128.89304687 126.81353516 129.68453125 127.61339844 130.5 128.4375 C131.32242188 129.26443359 132.14484375 130.09136719 132.9921875 130.94335938 C134.99712113 132.95994959 136.99966253 134.97885236 139 137 C136.24255617 141.83083845 132.95435705 145.44699567 129.0625 149.375 C128.44181641 150.02855469 127.82113281 150.68210937 127.18164062 151.35546875 C126.57642578 151.96777344 125.97121094 152.58007812 125.34765625 153.2109375 C124.52793335 154.05084229 124.52793335 154.05084229 123.69165039 154.90771484 C122 156 122 156 120.08030796 155.72245884 C116.54477538 154.49462296 114.13492026 151.72135489 111.48608398 149.16967773 C110.83377273 148.55059508 110.18146147 147.93151243 109.5093832 147.2936697 C101.51485862 139.65967706 93.71423483 131.82641552 85.9169178 123.9920826 C83.15617669 121.2183642 80.39213638 118.44796947 77.62730408 115.67832947 C71.76934153 109.80940296 65.91569848 103.93617723 60.0625 98.0625 C53.24770022 91.22392879 46.43114596 84.38712364 39.61041069 77.55447197 C36.8986068 74.8362278 34.18985035 72.11497233 31.48121643 69.39356995 C29.81192651 67.72064623 28.14249531 66.04786346 26.47290039 64.37524414 C25.35917305 63.25376732 25.35917305 63.25376732 24.22294617 62.1096344 C20.21095299 58.09723978 16.1099265 54.25723777 11.7992382 50.56663609 C8.71766348 47.88344152 5.81667191 45.01855752 2.91015625 42.1484375 C2.2801622 41.5265152 1.65016815 40.9045929 1.00108337 40.26382446 C-0.31362249 38.96281611 -1.62688035 37.66034298 -2.9387207 36.35644531 C-4.2793588 35.02743361 -5.62447869 33.70292877 -6.97387695 32.3828125 C-8.93901734 30.46018089 -10.89071512 28.52478377 -12.83984375 26.5859375 C-13.44392563 25.99936371 -14.04800751 25.41278992 -14.6703949 24.80844116 C-19.90905818 19.54214865 -19.90905818 19.54214865 -20 15 C-18.12030485 10.83454314 -15.16935261 7.92949565 -11.9375 4.75 C-10.62072266 3.44289062 -10.62072266 3.44289062 -9.27734375 2.109375 C-5.84302747 -1.07163837 -4.45598169 -1.33600569 0 0 Z " fill="#EAEBF9" transform="translate(232,214)"/>
<path d="M0 0 C2.91339231 0.86118394 4.14469118 1.80084376 6.28186035 3.92648315 C6.95896057 4.59097473 7.63606079 5.25546631 8.3336792 5.94009399 C9.40582672 7.0243869 9.40582672 7.0243869 10.49963379 8.13058472 C11.24485291 8.87197693 11.99007202 9.61336914 12.75787354 10.37722778 C14.32938655 11.94602114 15.89586868 13.51986802 17.4576416 15.09835815 C19.85019057 17.5123126 22.26329923 19.90421236 24.67932129 22.29464722 C26.20404297 23.82201216 27.72752336 25.35061748 29.24963379 26.88058472 C29.97249573 27.59534973 30.69535767 28.31011475 31.44012451 29.04653931 C32.10461609 29.72363953 32.76910767 30.40073975 33.45373535 31.09835815 C34.04044006 31.68824524 34.62714478 32.27813232 35.23162842 32.88589478 C36.97627866 35.27391717 37.4769146 36.81192229 37.60900879 39.77120972 C35.82750824 43.63519546 33.25109709 46.36931962 30.24865723 49.34274292 C29.37054382 50.21747757 28.49243042 51.09221222 27.58770752 51.99345398 C26.63129207 52.93632581 25.67485016 53.87917079 24.71838379 54.82199097 C23.73001754 55.80407561 22.74217213 56.78668467 21.75482178 57.76979065 C19.15769026 60.35365215 16.55505419 62.93189006 13.95074463 65.5085144 C9.79644425 69.61964536 5.64875804 73.73741804 1.50452423 77.85869408 C0.06749355 79.28563818 -1.37315948 80.70893141 -2.81390381 82.13212585 C-7.89478952 87.17575771 -12.75576596 92.31590812 -17.39099121 97.77120972 C-23.86241572 105.03876729 -23.86241572 105.03876729 -28.39099121 107.20870972 C-37.23177773 105.91942835 -46.15436356 93.19390315 -52.32971191 87.01779175 C-54.34279238 85.00692427 -56.36377705 83.00422427 -58.38513184 81.00167847 C-59.66752073 79.72221934 -60.94943918 78.44228847 -62.23083496 77.16183472 C-63.13695778 76.26649017 -63.13695778 76.26649017 -64.06138611 75.35305786 C-68.27655927 71.11450555 -68.27655927 71.11450555 -69.39099121 67.77120972 C-66.66137823 64.89692547 -63.90426747 62.05061579 -61.14099121 59.20870972 C-60.36368652 58.3895105 -59.58638184 57.57031128 -58.78552246 56.72628784 C-58.0314209 55.956073 -57.27731934 55.18585815 -56.50036621 54.39230347 C-55.46347656 53.3161377 -55.46347656 53.3161377 -54.40563965 52.2182312 C-52.39099121 50.77120972 -52.39099121 50.77120972 -50.37072754 50.82223511 C-47.93552508 51.98953465 -46.47346992 53.38180081 -44.60583496 55.33370972 C-43.91038574 56.04785034 -43.21493652 56.76199097 -42.49841309 57.49777222 C-41.78233887 58.24800659 -41.06626465 58.99824097 -40.32849121 59.77120972 C-38.90475528 61.25485217 -37.47655967 62.73423155 -36.04333496 64.20870972 C-35.41419189 64.86742065 -34.78504883 65.52613159 -34.13684082 66.20480347 C-32.36956295 67.99956003 -32.36956295 67.99956003 -29.39099121 68.77120972 C-27.60480576 67.68829673 -27.60480576 67.68829673 -25.85974121 65.96261597 C-25.15591309 65.3130896 -24.45208496 64.66356323 -23.72692871 63.99435425 C-22.95606934 63.26071655 -22.18520996 62.52707886 -21.39099121 61.77120972 C-20.14188965 60.60307739 -20.14188965 60.60307739 -18.86755371 59.41134644 C-16.18007642 56.8718997 -13.53316834 54.29520142 -10.89099121 51.70870972 C-9.97317871 50.83665894 -9.05536621 49.96460815 -8.10974121 49.06613159 C-6.81036621 47.78899292 -6.81036621 47.78899292 -5.48474121 46.48605347 C-4.30428223 45.34317871 -4.30428223 45.34317871 -3.09997559 44.17721558 C-0.92945852 41.12143762 -0.85227182 39.44533786 -1.39099121 35.77120972 C-2.45057289 33.98652609 -2.45057289 33.98652609 -4.09411621 32.70089722 C-4.66259277 32.19687378 -5.23106934 31.69285034 -5.81677246 31.17355347 C-6.41876465 30.66953003 -7.02075684 30.16550659 -7.64099121 29.64620972 C-8.81333416 28.62330829 -9.98521954 27.59988217 -11.15661621 26.57589722 C-13.04481125 24.93003151 -14.94470708 23.31326232 -16.87536621 21.71652222 C-18.39099121 19.77120972 -18.39099121 19.77120972 -18.18591309 17.38742065 C-16.81104656 12.86252209 -13.4354386 10.15963594 -10.14099121 6.89620972 C-9.13745605 5.84433472 -9.13745605 5.84433472 -8.11364746 4.77120972 C-7.45751465 4.11378784 -6.80138184 3.45636597 -6.12536621 2.77902222 C-5.52949707 2.17719116 -4.93362793 1.57536011 -4.31970215 0.95529175 C-2.39099121 -0.22879028 -2.39099121 -0.22879028 0 0 Z " fill="#EAEBF9" transform="translate(382.3909912109375,313.2287902832031)"/>
<path d="M0 0 C3.12612051 1.23618847 5.03023606 3.15922942 7.48144531 5.45825195 C7.99676819 5.94034622 8.51209106 6.42244049 9.04302979 6.91914368 C16.17180376 13.64154723 23.06016626 20.61399154 29.96582031 27.5637207 C31.35620826 28.95913923 32.74683188 30.35432298 34.13769531 31.74926758 C37.49978492 35.12222656 40.8586989 38.49831711 44.21582031 41.8762207 C41.01752044 48.28561364 36.69351626 52.86600262 31.65332031 57.9074707 C30.82501709 58.74338745 29.99671387 59.5793042 29.14331055 60.44055176 C27.39888327 62.19574305 25.6505106 63.94702097 23.8984375 65.69458008 C21.21066943 68.38136971 18.54498961 71.08884838 15.87988281 73.7980957 C14.18066264 75.50251839 12.48018511 77.20568867 10.77832031 78.9074707 C9.98031006 79.72187622 9.1822998 80.53628174 8.36010742 81.37536621 C7.61253174 82.11363647 6.86495605 82.85190674 6.09472656 83.61254883 C5.44060791 84.26872192 4.78648926 84.92489502 4.11254883 85.60095215 C2.21582031 86.8762207 2.21582031 86.8762207 0.14300537 86.72952271 C-3.03243566 85.32352893 -5.2046738 82.79815162 -7.58105469 80.3371582 C-8.13351868 79.7780777 -8.68598267 79.21899719 -9.25518799 78.64297485 C-11.02209739 76.85268639 -12.77857704 75.05259236 -14.53417969 73.2512207 C-16.83762644 70.90106517 -19.14540892 68.55523518 -21.45605469 66.2121582 C-22.2884668 65.36679253 -22.2884668 65.36679253 -23.13769531 64.50434875 C-26.68826703 60.91985925 -30.33512791 57.51158695 -34.18359375 54.24536133 C-36.32512656 52.41349495 -38.30992411 50.44823085 -40.28417969 48.4387207 C-40.95449219 47.75938477 -41.62480469 47.08004883 -42.31542969 46.38012695 C-42.80011719 45.88383789 -43.28480469 45.38754883 -43.78417969 44.8762207 C-41.37424461 40.32511851 -38.25393986 37.10058442 -34.61230469 33.54418945 C-34.01166199 32.94874832 -33.41101929 32.35330719 -32.79217529 31.73982239 C-30.87756237 29.84294311 -28.95639864 27.95288946 -27.03417969 26.0637207 C-16.03203436 15.32450966 -16.03203436 15.32450966 -5.78417969 3.8762207 C-2.33681649 -0.16211904 -2.33681649 -0.16211904 0 0 Z " fill="#EBECFA" transform="translate(348.7841796875,466.123779296875)"/>
<path d="M0 0 C1.97004723 1.07847962 3.43622763 2.17433973 5.06518555 3.72314453 C5.69175049 4.31417969 6.31831543 4.90521484 6.96386719 5.51416016 C7.64312256 6.1709375 8.32237793 6.82771484 9.0222168 7.50439453 C9.73821045 8.18695313 10.4542041 8.86951172 11.19189453 9.57275391 C22.25706354 20.19309781 33.03267039 31.11770279 43.8347168 42.00439453 C41.53404808 46.30018977 38.55942046 49.52748139 35.1003418 52.89892578 C34.54409119 53.44997482 33.98784058 54.00102386 33.41473389 54.56877136 C31.64278217 56.32300356 29.86428776 58.07039481 28.0847168 59.81689453 C17.6272458 70.09671233 17.6272458 70.09671233 7.8347168 81.00439453 C5.91285208 83.21969389 4.06610796 85.07052219 1.8347168 87.00439453 C-2.26551643 86.88115177 -4.35964311 84.13869838 -7.0871582 81.34033203 C-7.55083801 80.87003571 -8.01451782 80.39973938 -8.49224854 79.91519165 C-9.97388156 78.41020893 -11.44502161 76.89548121 -12.9152832 75.37939453 C-14.84364947 73.40416716 -16.77641706 71.4333314 -18.7121582 69.46533203 C-19.41767822 68.74685844 -19.41767822 68.74685844 -20.13745117 68.01387024 C-23.41756615 64.69712377 -26.82235335 61.59463073 -30.36938477 58.56884766 C-33.27302139 56.03941543 -35.96606751 53.31086763 -38.6652832 50.56689453 C-39.2015332 50.02613281 -39.7377832 49.48537109 -40.2902832 48.92822266 C-41.58432356 47.62262836 -42.87516494 46.31386457 -44.1652832 45.00439453 C-41.89294882 40.85966421 -39.07825925 37.50794812 -35.8527832 34.09033203 C-35.32934326 33.53018402 -34.80590332 32.97003601 -34.26660156 32.39291382 C-28.57395769 26.3273275 -22.79603301 20.34497522 -16.9440918 14.43310547 C-15.73861495 13.21075261 -14.53856751 11.98302574 -13.34350586 10.75048828 C-11.58758426 8.94024034 -9.81615682 7.1466085 -8.0402832 5.35595703 C-7.50798096 4.80098541 -6.97567871 4.24601379 -6.42724609 3.67422485 C-2.73761012 0.00555609 -2.73761012 0.00555609 0 0 Z " fill="#EBEBFA" transform="translate(153.165283203125,271.99560546875)"/>
<path d="M0 0 C5.55439924 4.62491379 10.68525669 9.55360964 15.77734375 14.6796875 C16.58869278 15.49245148 17.40004181 16.30521545 18.23597717 17.14260864 C20.8055259 19.71771738 23.37155968 22.2962962 25.9375 24.875 C27.68791929 26.63043946 29.438568 28.38565017 31.18945312 30.140625 C35.46229302 34.42444082 39.73225899 38.71110472 44 43 C42.64033868 46.04376951 41.11444872 48.12709496 38.74707031 50.46411133 C38.08588196 51.12192093 37.4246936 51.77973053 36.74346924 52.45747375 C36.02890564 53.15857773 35.31434204 53.8596817 34.578125 54.58203125 C33.84051941 55.31443527 33.10291382 56.04683929 32.34295654 56.80143738 C29.98333519 59.14325644 27.61715704 61.47830033 25.25 63.8125 C22.89796072 66.13680297 20.54743447 68.46258456 18.19989014 70.79142761 C16.74017475 72.23901869 15.27779504 73.68392982 13.81231689 75.12568665 C9.64592026 79.25169964 5.75600032 83.49624347 2 88 C-1.75097955 87.42922445 -3.45630926 85.9095277 -6.09423828 83.24633789 C-6.88831085 82.45203873 -7.68238342 81.65773956 -8.5005188 80.83937073 C-9.34855072 79.97585495 -10.19658264 79.11233917 -11.0703125 78.22265625 C-12.38647049 76.900131 -12.38647049 76.900131 -13.72921753 75.55088806 C-16.05844388 73.2077092 -18.38102503 70.85819609 -20.70056152 68.50543213 C-23.06187185 66.11346463 -25.4316609 63.72993098 -27.80078125 61.34570312 C-31.96280443 57.15414348 -36.11817259 52.95611278 -40.26785278 48.75233459 C-41.50802321 47.49771055 -42.75258183 46.24741817 -44 45 C-42.54465987 41.65458608 -40.7074219 39.45926166 -38.1328125 36.88989258 C-37.33858887 36.09259232 -36.54436523 35.29529205 -35.72607422 34.47383118 C-34.86771973 33.6226622 -34.00936523 32.77149323 -33.125 31.89453125 C-31.80459717 30.57481575 -31.80459717 30.57481575 -30.45751953 29.22843933 C-28.12092148 26.89563396 -25.77978975 24.56749896 -23.43676758 22.2411499 C-21.52297689 20.33817205 -19.6147827 18.42963389 -17.70669556 16.52093983 C-15.43225448 14.24683569 -13.15357577 11.97699146 -10.875 9.70703125 C-9.58746826 8.42116875 -9.58746826 8.42116875 -8.27392578 7.10932922 C-7.47970215 6.32148544 -6.68547852 5.53364166 -5.8671875 4.72192383 C-5.16706543 4.02561356 -4.46694336 3.32930328 -3.74560547 2.6118927 C-2 1 -2 1 0 0 Z " fill="#EAEBF9" transform="translate(94,331)"/>
<path d="M0 0 C3.14664925 1.04965715 4.60998168 2.390924 6.93647766 4.74623108 C7.75695084 5.56700638 8.57742401 6.38778168 9.42276001 7.23342896 C10.29377853 8.12509262 11.16479706 9.01675629 12.06221008 9.93544006 C12.96517319 10.84406296 13.86813629 11.75268585 14.79846191 12.68884277 C17.19278831 15.09840306 19.57485658 17.51973367 21.95454407 19.94374084 C24.38741972 22.41761774 26.8317335 24.88013573 29.27510071 27.34364319 C34.06239659 32.17504798 38.83809341 37.01769102 43.60517883 41.86903381 C42.07914469 45.08533522 40.50717112 47.1567268 37.91767883 49.61903381 C35.33887624 52.07897376 32.9440943 54.61360671 30.62861633 57.31825256 C25.84440712 62.82749737 20.7457337 68.02350273 15.61567688 73.20863342 C14.47296387 74.36810513 13.33567007 75.5329401 12.2035675 76.70277405 C10.55373006 78.40704595 8.88833264 80.09457298 7.21846008 81.77919006 C6.71422012 82.3060994 6.20998016 82.83300873 5.69046021 83.37588501 C4.24311829 84.81459045 4.24311829 84.81459045 1.60517883 86.86903381 C-2.1572841 86.60522394 -4.02547475 84.6279696 -6.62846375 82.05531311 C-7.45224014 81.24744858 -8.27601654 80.43958405 -9.12475586 79.60723877 C-10.00407272 78.72812332 -10.88338959 77.84900787 -11.78935242 76.94325256 C-13.14947701 75.59454826 -13.14947701 75.59454826 -14.53707886 74.21859741 C-16.4515766 72.31490876 -18.36246445 70.40822916 -20.26860046 68.49623108 C-22.71445338 66.04446883 -25.17809762 63.61148471 -27.64699268 61.18295574 C-29.99750314 58.86446289 -32.32985641 56.52785283 -34.66435242 54.19325256 C-35.55379044 53.32020981 -36.44322845 52.44716705 -37.35961914 51.54766846 C-38.16763474 50.73034744 -38.97565033 49.91302643 -39.80815125 49.07093811 C-40.52666763 48.35447617 -41.24518402 47.63801422 -41.98547363 46.89984131 C-43.39482117 44.86903381 -43.39482117 44.86903381 -43.24536133 42.75308228 C-41.95641517 39.89791195 -39.96662809 38.12641872 -37.73075867 35.94715881 C-37.26046234 35.483479 -36.79016602 35.01979919 -36.30561829 34.54206848 C-34.80063556 33.06043546 -33.28590785 31.58929541 -31.76982117 30.11903381 C-29.79459389 28.19066763 -27.8236983 26.25796065 -25.85575867 24.32215881 C-25.37736542 23.85212936 -24.89897217 23.38209991 -24.40608215 22.89782715 C-20.52309242 19.05599911 -16.93989983 15.01889488 -13.39482117 10.86903381 C-11.55578999 8.80730981 -9.67863295 6.80611042 -7.76982117 4.80653381 C-6.87005554 3.84618225 -5.97028992 2.88583069 -5.04325867 1.89637756 C-2.39482117 -0.13096619 -2.39482117 -0.13096619 0 0 Z " fill="#EAEBF9" transform="translate(290.3948211669922,526.1309661865234)"/>
<path d="M0 0 C3.40353022 1.47122616 5.61255749 3.36942513 8.21777344 5.99072266 C9.03832214 6.81142242 9.85887085 7.63212219 10.70428467 8.47769165 C11.58046448 9.36419403 12.45664429 10.25069641 13.359375 11.1640625 C14.26375305 12.07127045 15.1681311 12.97847839 16.09991455 13.91317749 C18.49796458 16.31884419 20.88994618 18.73045736 23.28070068 21.14337158 C25.72385171 23.60702344 28.17271206 26.06498577 30.62109375 28.5234375 C35.41933788 33.34373573 40.21182732 38.16969843 45 43 C43.72429396 45.79907671 42.4108322 47.83368832 40.22192383 49.98925781 C39.66406693 50.54373596 39.10621002 51.09821411 38.53144836 51.66949463 C37.92939072 52.25809265 37.32733307 52.84669067 36.70703125 53.453125 C36.08277756 54.07217712 35.45852386 54.69122925 34.81535339 55.32904053 C32.8191003 57.30751147 30.816312 59.27918743 28.8125 61.25 C26.19062913 63.83514105 23.5720356 66.42353828 20.95703125 69.015625 C20.33309982 69.6336499 19.7091684 70.2516748 19.06632996 70.88842773 C15.30850325 74.63224862 11.68865625 78.44034944 8.29736328 82.52441406 C6.42725851 84.65142069 4.28383755 86.33902724 2 88 C-1.33248811 86.54483465 -3.55833707 84.70905435 -6.1418457 82.16455078 C-6.94560135 81.37678253 -7.74935699 80.58901428 -8.57746887 79.77737427 C-9.43491196 78.92529388 -10.29235504 78.0732135 -11.17578125 77.1953125 C-12.06033493 76.31978729 -12.94488861 75.44426208 -13.85624695 74.54220581 C-15.72240348 72.69055028 -17.5857662 70.83607541 -19.4465332 68.97900391 C-21.83355387 66.5973872 -24.23634162 64.23237655 -26.64332294 61.87095833 C-28.93597955 59.61512946 -31.21095647 57.34160237 -33.48828125 55.0703125 C-34.78962761 53.79826462 -34.78962761 53.79826462 -36.11726379 52.5005188 C-36.90525864 51.70644623 -37.69325348 50.91237366 -38.50512695 50.09423828 C-39.20587845 49.39855743 -39.90662994 48.70287659 -40.62861633 47.9861145 C-42 46 -42 46 -41.8404541 43.89797974 C-40.55424415 40.99335899 -38.58677253 39.04674549 -36.41796875 36.734375 C-35.93587448 36.21905212 -35.45378021 35.70372925 -34.95707703 35.17279053 C-28.23467347 28.04401656 -21.26222916 21.15565406 -14.3125 14.25 C-12.91708147 12.85961205 -11.52189773 11.46898843 -10.12695312 10.078125 C-6.75399414 6.71603539 -3.37790359 3.35712141 0 0 Z " fill="#EAEBF9" transform="translate(508,303)"/>
<path d="M0 0 C5.55439924 4.62491379 10.68525669 9.55360964 15.77734375 14.6796875 C16.58869278 15.49245148 17.40004181 16.30521545 18.23597717 17.14260864 C20.8055259 19.71771738 23.37155968 22.2962962 25.9375 24.875 C27.68791929 26.63043946 29.438568 28.38565017 31.18945312 30.140625 C35.46229302 34.42444082 39.73225899 38.71110472 44 43 C42.30705109 46.60818899 40.31792155 48.90064303 37.45703125 51.703125 C36.54759766 52.60160156 35.63816406 53.50007813 34.70117188 54.42578125 C33.73865469 55.36756931 32.77576181 56.30897355 31.8125 57.25 C26.21027366 62.74783703 20.67373618 68.21741668 15.56665039 74.18212891 C13.07768626 77.07021164 10.46953341 79.82945263 7.8125 82.5625 C7.05163086 83.37944336 7.05163086 83.37944336 6.27539062 84.21289062 C4.76953125 85.75390625 4.76953125 85.75390625 2 88 C-1.75953441 87.76112716 -3.63730081 85.75236603 -6.23364258 83.1862793 C-7.05741898 82.37841476 -7.88119537 81.57055023 -8.72993469 80.73820496 C-9.60925156 79.85908951 -10.48856842 78.97997406 -11.39453125 78.07421875 C-12.75465584 76.72551445 -12.75465584 76.72551445 -14.14225769 75.3495636 C-16.05675543 73.44587495 -17.96764329 71.53919535 -19.8737793 69.62719727 C-22.31963221 67.17543502 -24.78327645 64.74245089 -27.25217152 62.31392193 C-29.60268197 59.99542908 -31.93503525 57.65881902 -34.26953125 55.32421875 C-35.15896927 54.45117599 -36.04840729 53.57813324 -36.96479797 52.67863464 C-37.77281357 51.86131363 -38.58082916 51.04399261 -39.41333008 50.2019043 C-40.13184647 49.48544235 -40.85036285 48.76898041 -41.59065247 48.0308075 C-43 46 -43 46 -42.8379364 43.86726379 C-41.66201411 41.2468297 -39.96041019 39.71523401 -37.875 37.75 C-35.08169529 35.1016765 -32.4613995 32.40548385 -29.96484375 29.48046875 C-25.34013888 24.13917223 -20.33044819 19.18051525 -15.32788086 14.19750977 C-13.66987045 12.54492818 -12.01736024 10.88697801 -10.36523438 9.22851562 C-9.31021689 8.17415781 -8.25488986 7.12010962 -7.19921875 6.06640625 C-6.46018562 5.32433678 -6.46018562 5.32433678 -5.70622253 4.567276 C-2.23001767 1.11500884 -2.23001767 1.11500884 0 0 Z " fill="#EAEBF9" transform="translate(568,243)"/>
<path d="M0 0 C4.27596118 1.64724338 7.10075777 4.86617853 10.234375 8.07421875 C10.83123108 8.6762764 11.42808716 9.27833405 12.04302979 9.89863586 C13.95017565 11.82355915 15.85052066 13.75501347 17.75 15.6875 C20.24138018 18.21563092 22.73595363 20.74054589 25.234375 23.26171875 C26.12968933 24.16541702 26.12968933 24.16541702 27.04309082 25.08737183 C30.71968112 28.77660771 34.46482254 32.32963482 38.45800781 35.67895508 C42.78952845 39.38982559 42.78952845 39.38982559 43.8515625 42.46875 C44 45 44 45 43.0234375 46.78125 C42.47945313 47.3484375 41.93546875 47.915625 41.375 48.5 C40.41207031 49.5209375 40.41207031 49.5209375 39.4296875 50.5625 C38.62789063 51.366875 37.82609375 52.17125 37 53 C36.50532227 53.49628906 36.01064453 53.99257813 35.50097656 54.50390625 C33.26093423 56.74800418 31.01719473 58.9881859 28.76342773 61.21850586 C25.87631809 64.08318651 23.07305936 66.96069918 20.4375 70.0625 C17.37089097 73.61854289 14.22943375 77.09162271 11 80.5 C10.26994751 81.31223022 10.26994751 81.31223022 9.52514648 82.14086914 C7.09852185 84.6549835 5.32745282 85.92767977 1.90039062 86.68457031 C-4.18364669 85.61674103 -7.25430803 81.70739841 -11.46875 77.390625 C-12.78921326 76.07309235 -12.78921326 76.07309235 -14.13635254 74.72894287 C-16.46473018 72.39554606 -18.77577006 70.04647791 -21.0814209 67.69067383 C-22.97237881 65.77026377 -24.88527111 63.87250295 -26.79875946 61.97458267 C-29.07669326 59.70940477 -31.33456209 57.42447699 -33.59375 55.140625 C-34.45190308 54.28631897 -35.31005615 53.43201294 -36.19421387 52.55181885 C-36.97252563 51.75129089 -37.7508374 50.95076294 -38.55273438 50.12597656 C-39.24443726 49.42426331 -39.93614014 48.72255005 -40.64880371 47.99957275 C-42 46 -42 46 -41.87023926 43.9130249 C-40.43184886 40.75104775 -37.86338098 38.59980286 -35.375 36.25 C-32.03658205 33.0552608 -28.82026756 29.84308029 -25.81640625 26.328125 C-21.02168494 20.77145185 -15.77076966 15.66363938 -10.5625 10.5 C-9.5342702 9.47679861 -8.50627374 8.45336267 -7.47851562 7.4296875 C-4.98835662 4.95042001 -2.49507167 2.47432462 0 0 Z " fill="#EBECFA" transform="translate(340,576)"/>
<path d="M0 0 C3.10664667 1.48268577 5.20090307 2.97298018 7.609375 5.44921875 C8.28226563 6.13306641 8.95515625 6.81691406 9.6484375 7.52148438 C10.34195313 8.23626953 11.03546875 8.95105469 11.75 9.6875 C16.35507722 14.41076836 21.00947904 18.9513692 26.00927734 23.25610352 C29.43688496 26.25872814 32.6919054 29.42813805 35.9375 32.625 C36.94393555 33.58792969 36.94393555 33.58792969 37.97070312 34.5703125 C38.60814453 35.199375 39.24558594 35.8284375 39.90234375 36.4765625 C40.47460693 37.03424316 41.04687012 37.59192383 41.63647461 38.16650391 C43.36324009 40.48843923 43.83537764 42.11544419 44 45 C43.02563477 46.77905273 43.02563477 46.77905273 41.37890625 48.49609375 C40.72937988 49.18300293 40.07985352 49.86991211 39.41064453 50.57763672 C38.61513184 51.3770166 37.81961914 52.17639648 37 53 C36.30230499 53.70808807 36.30230499 53.70808807 35.59051514 54.43048096 C31.73744408 58.33951302 27.84133763 62.20426415 23.9375 66.0625 C21.63110241 68.34203811 19.32818028 70.62500658 17.02734375 72.91015625 C16.48105316 73.4481485 15.93476257 73.98614075 15.37191772 74.54043579 C12.54725785 77.34719424 10.01937786 80.17561083 7.62890625 83.37109375 C5 86 5 86 1.43359375 86.2265625 C-2.44992164 84.83927714 -4.18061837 83.41169824 -6.9375 80.375 C-9.70955282 77.36692933 -12.49357496 74.52303457 -15.59375 71.859375 C-20.59440806 67.53915459 -25.34871716 62.97969664 -30.05786133 58.34716797 C-31.07099522 57.35589791 -32.0903577 56.37095855 -33.11547852 55.39208984 C-34.61372325 53.96047065 -36.09156694 52.51035953 -37.56640625 51.0546875 C-38.44240479 50.20374512 -39.31840332 49.35280273 -40.22094727 48.47607422 C-42 46 -42 46 -41.85351562 43.61595154 C-40.8208705 40.45098357 -39.48616851 39.00315728 -37.12280273 36.66870117 C-36.30202744 35.848228 -35.48125214 35.02775482 -34.63560486 34.18241882 C-33.74394119 33.3114003 -32.85227753 32.44038177 -31.93359375 31.54296875 C-31.02497086 30.64000565 -30.11634796 29.73704254 -29.18019104 28.80671692 C-26.77063075 26.41239052 -24.34930014 24.03032225 -21.92529297 21.65063477 C-19.45141608 19.21775911 -16.98889809 16.77344533 -14.52539062 14.33007812 C-9.69398583 9.54278225 -4.8513428 4.76708542 0 0 Z " fill="#EBECFA" transform="translate(618,294)"/>
<path d="M0 0 C5.43992305 4.54251925 10.50972445 9.34921287 15.5234375 14.35546875 C16.31021881 15.13892166 17.09700012 15.92237457 17.90762329 16.72956848 C19.55772454 18.37463537 21.20649866 20.02103444 22.85400391 21.66870117 C25.38293906 24.19543214 27.91978642 26.71403859 30.45703125 29.23242188 C32.06298859 30.83544816 33.66847428 32.43894713 35.2734375 34.04296875 C36.03377289 34.79611862 36.79410828 35.54926849 37.57748413 36.32524109 C38.27556183 37.02639542 38.97363953 37.72754974 39.69287109 38.44995117 C40.30907318 39.06472824 40.92527527 39.67950531 41.56015015 40.31291199 C43 42 43 42 44 45 C29.81 59.19 15.62 73.38 1 88 C-2.5854872 86.2072564 -4.35127903 84.90122718 -7.11010742 82.14868164 C-7.90740768 81.3576857 -8.70470795 80.56668976 -9.52616882 79.75172424 C-10.3773378 78.89650681 -11.22850677 78.04128937 -12.10546875 77.16015625 C-12.98527908 76.28225937 -13.86508942 75.40436249 -14.77156067 74.49986267 C-17.10445622 72.16867583 -19.43240897 69.83267969 -21.7588501 67.49505615 C-23.1876434 66.06235621 -24.62027799 64.63361999 -26.05444336 63.20629883 C-28.8059963 60.46707088 -31.55056649 57.72104234 -34.29296875 54.97265625 C-35.15021042 54.11946304 -36.00745209 53.26626984 -36.89067078 52.38722229 C-37.67851456 51.59307419 -38.46635834 50.79892609 -39.27807617 49.98071289 C-39.97438644 49.28281143 -40.67069672 48.58490997 -41.3881073 47.86585999 C-43 46 -43 46 -44 43 C-38.56136274 37.53821491 -33.12004272 32.07911513 -27.67526436 26.62345219 C-25.14725063 24.09021499 -22.62017755 21.55605394 -20.09521484 19.01977539 C-17.19383787 16.10547687 -14.2884448 13.19521216 -11.3828125 10.28515625 C-10.47443634 9.3716188 -9.56606018 8.45808136 -8.63015747 7.51686096 C-7.78943695 6.67606491 -6.94871643 5.83526886 -6.08251953 4.96899414 C-5.34083527 4.22508926 -4.599151 3.48118439 -3.83499146 2.71473694 C-2 1 -2 1 0 0 Z " fill="#EAEBF9" transform="translate(372,49)"/>
<path d="M0 0 C5.43992305 4.54251925 10.50972445 9.34921287 15.5234375 14.35546875 C16.31021881 15.13892166 17.09700012 15.92237457 17.90762329 16.72956848 C19.55772454 18.37463537 21.20649866 20.02103444 22.85400391 21.66870117 C25.38293906 24.19543214 27.91978642 26.71403859 30.45703125 29.23242188 C32.06298859 30.83544816 33.66847428 32.43894713 35.2734375 34.04296875 C36.03377289 34.79611862 36.79410828 35.54926849 37.57748413 36.32524109 C38.27556183 37.02639542 38.97363953 37.72754974 39.69287109 38.44995117 C40.30907318 39.06472824 40.92527527 39.67950531 41.56015015 40.31291199 C43 42 43 42 44 45 C38.58159273 50.46472787 33.1578039 55.92406395 27.72707653 61.37654781 C25.20559641 63.90846944 22.68601222 66.44221959 20.1706543 68.98022461 C17.27945072 71.89729588 14.38021033 74.80625943 11.48046875 77.71484375 C10.57725388 78.6283812 9.674039 79.54191864 8.74345398 80.48313904 C7.90280899 81.32393509 7.062164 82.16473114 6.19604492 83.03100586 C5.45658127 83.77491074 4.71711761 84.51881561 3.95524597 85.28526306 C2 87 2 87 -1 88 C-6.46472787 82.58159273 -11.92406395 77.1578039 -17.37654781 71.72707653 C-19.90846944 69.20559641 -22.44221959 66.68601222 -24.98022461 64.1706543 C-27.89729588 61.27945072 -30.80625943 58.38021033 -33.71484375 55.48046875 C-34.6283812 54.57725388 -35.54191864 53.674039 -36.48313904 52.74345398 C-37.32393509 51.90280899 -38.16473114 51.062164 -39.03100586 50.19604492 C-39.77491074 49.45658127 -40.51881561 48.71711761 -41.28526306 47.95524597 C-43 46 -43 46 -44 43 C-38.56136274 37.53821491 -33.12004272 32.07911513 -27.67526436 26.62345219 C-25.14725063 24.09021499 -22.62017755 21.55605394 -20.09521484 19.01977539 C-17.19383787 16.10547687 -14.2884448 13.19521216 -11.3828125 10.28515625 C-10.47443634 9.3716188 -9.56606018 8.45808136 -8.63015747 7.51686096 C-7.78943695 6.67606491 -6.94871643 5.83526886 -6.08251953 4.96899414 C-5.34083527 4.22508926 -4.599151 3.48118439 -3.83499146 2.71473694 C-2 1 -2 1 0 0 Z " fill="#EAEBF9" transform="translate(313,109)"/>
<path d="M0 0 C3.81659349 1.30888023 6.19581242 2.82078939 9.04003906 5.66772461 C9.79722229 6.41867905 10.55440552 7.16963348 11.33453369 7.94334412 C12.53792389 9.16054893 12.53792389 9.16054893 13.765625 10.40234375 C14.5996283 11.23584854 15.43363159 12.06935333 16.29290771 12.92811584 C18.05141645 14.68896231 19.80623962 16.45349611 21.55761719 18.22143555 C24.24513281 20.93259 26.94576495 23.63013557 29.6484375 26.32617188 C31.35496125 28.03827087 33.06071713 29.75113565 34.765625 31.46484375 C35.57598206 32.2742894 36.38633911 33.08373505 37.22125244 33.91770935 C37.96582703 34.67181595 38.71040161 35.42592255 39.47753906 36.20288086 C40.13530334 36.86525253 40.79306763 37.52762421 41.47076416 38.21006775 C43 40 43 40 44 43 C42.88392801 46.80458222 41.2243413 49.15625765 38.45581055 51.94824219 C37.73133224 52.68540466 37.00685394 53.42256714 36.26042175 54.18206787 C35.08543877 55.3526474 35.08543877 55.3526474 33.88671875 56.546875 C33.08015335 57.35868225 32.27358795 58.1704895 31.44258118 59.00689697 C29.73739507 60.71849886 28.02832665 62.42624053 26.31567383 64.13037109 C23.69537016 66.74215543 21.09426892 69.37205408 18.49414062 72.00390625 C16.83446493 73.66519377 15.17369386 75.32538785 13.51171875 76.984375 C12.3458448 78.16709991 12.3458448 78.16709991 11.15641785 79.37371826 C10.42248306 80.09827209 9.68854828 80.82282593 8.93237305 81.56933594 C8.29220749 82.20933533 7.65204193 82.84933472 6.99247742 83.50872803 C4.6367629 85.27186522 2.91300952 85.72939922 0 86 C-1.8515625 84.953125 -1.8515625 84.953125 -3.625 83.25 C-4.31207031 82.6003125 -4.99914062 81.950625 -5.70703125 81.28125 C-6.46371094 80.5284375 -7.22039063 79.775625 -8 79 C-8.84949219 78.1646875 -9.69898438 77.329375 -10.57421875 76.46875 C-13.88434351 73.18223526 -17.16168382 69.86455999 -20.43652344 66.54296875 C-26.89674867 59.99895903 -33.48249074 53.74622719 -40.5625 47.875 C-42 46 -42 46 -41.83216858 43.65351868 C-40.82596105 40.44504563 -39.50866523 39.0253788 -37.12280273 36.66870117 C-36.30202744 35.848228 -35.48125214 35.02775482 -34.63560486 34.18241882 C-33.74394119 33.3114003 -32.85227753 32.44038177 -31.93359375 31.54296875 C-31.02497086 30.64000565 -30.11634796 29.73704254 -29.18019104 28.80671692 C-26.77063075 26.41239052 -24.34930014 24.03032225 -21.92529297 21.65063477 C-19.45141608 19.21775911 -16.98889809 16.77344533 -14.52539062 14.33007812 C-9.69398583 9.54278225 -4.8513428 4.76708542 0 0 Z " fill="#EAEBF9" transform="translate(559,354)"/>
<path d="M0 0 C2.12117593 1.79240374 3.98646448 3.54336215 5.89453125 5.5390625 C6.44558029 6.09814301 6.99662933 6.65722351 7.56437683 7.23324585 C9.32346991 9.02126928 11.06841907 10.82234109 12.8125 12.625 C15.1064133 14.97554918 17.40575931 17.32071906 19.70703125 19.6640625 C20.25820114 20.22668793 20.80937103 20.78931335 21.37724304 21.36898804 C25.41009511 25.46312642 29.58992171 29.31329577 34 33 C36.26425735 34.92020552 38.06137316 36.7134145 40 39 C39.77871051 43.10676969 38.41794785 45.07333502 35.53759766 47.90063477 C34.80658844 48.62811417 34.07557922 49.35559357 33.32241821 50.1051178 C32.52766083 50.87609299 31.73290344 51.64706818 30.9140625 52.44140625 C29.69497696 53.6484446 29.69497696 53.6484446 28.45126343 54.87986755 C25.85177885 57.45034775 23.2390464 60.00683717 20.625 62.5625 C18.02070891 65.12425145 15.41924888 67.68881517 12.82015991 70.25584412 C11.20219382 71.85215825 9.58074899 73.44495585 7.95547485 75.03382874 C6.84950455 76.1203196 6.84950455 76.1203196 5.72119141 77.22875977 C5.07356842 77.86209732 4.42594543 78.49543488 3.75869751 79.14796448 C1.99970242 81.00031338 0.48919107 82.92699769 -1 85 C-6.97637569 84.05529818 -10.79082492 79.00930615 -15 75 C-15.87017761 74.17502014 -15.87017761 74.17502014 -16.75793457 73.33337402 C-20.73279207 69.55529423 -24.66504292 65.73662258 -28.57177734 61.88818359 C-29.95152895 60.53533796 -31.33839356 59.18971232 -32.73193359 57.85107422 C-34.76799384 55.89389052 -36.78032738 53.91485901 -38.7890625 51.9296875 C-39.41390533 51.33783661 -40.03874817 50.74598572 -40.68252563 50.13619995 C-43.48856375 47.31683645 -44.8584515 45.52854976 -45.90332031 41.62695312 C-44.50057215 35.9947297 -40.86650563 32.98343399 -36.7578125 29.0390625 C-35.91910614 28.2078891 -35.08039978 27.3767157 -34.21627808 26.52035522 C-31.5351549 23.87175581 -28.83042469 21.24874787 -26.125 18.625 C-24.30965785 16.83619699 -22.49583647 15.04584923 -20.68359375 13.25390625 C-17.36970819 9.99034708 -14.0531955 6.72977027 -10.71533203 3.49072266 C-9.70939499 2.51312485 -9.70939499 2.51312485 -8.68313599 1.51577759 C-5.57672531 -1.28175495 -3.9302059 -1.30179108 0 0 Z " fill="#EAEBF9" transform="translate(324,1)"/>
<path d="M0 0 C1.95703125 1.6015625 1.95703125 1.6015625 3.8125 3.625 C6.25154909 6.25646874 8.75599136 8.68249155 11.4765625 11.015625 C16.81568706 15.64522516 21.88013654 20.54976474 26.91235352 25.50732422 C28.02247539 26.59560171 29.1388297 27.67755413 30.26098633 28.75341797 C31.89820141 30.32402563 33.51511651 31.91318853 35.12890625 33.5078125 C35.88645958 34.22361984 35.88645958 34.22361984 36.65931702 34.95388794 C38.03735352 36.34033203 38.03735352 36.34033203 40 39 C39.75523215 43.34299712 38.15473318 45.33645622 35.12280273 48.33129883 C34.30202744 49.151772 33.48125214 49.97224518 32.63560486 50.81758118 C31.74394119 51.6885997 30.85227753 52.55961823 29.93359375 53.45703125 C28.57065941 54.81147591 28.57065941 54.81147591 27.18019104 56.19328308 C24.77063075 58.58760948 22.34930014 60.96967775 19.92529297 63.34936523 C17.45141608 65.78224089 14.98889809 68.22655467 12.52539062 70.66992188 C7.69398583 75.45721775 2.8513428 80.23291458 -2 85 C-5.31212097 83.42983745 -7.47577092 81.74784314 -10.046875 79.11328125 C-11.1915625 77.9521582 -11.1915625 77.9521582 -12.359375 76.76757812 C-13.14828125 75.95740234 -13.9371875 75.14722656 -14.75 74.3125 C-19.72172861 69.22890749 -24.70922127 64.27438903 -30.10253906 59.63745117 C-33.14998349 57.00759917 -36.09374073 54.28431832 -39 51.5 C-39.58394531 50.97019531 -40.16789063 50.44039062 -40.76953125 49.89453125 C-41.31996094 49.36214844 -41.87039062 48.82976562 -42.4375 48.28125 C-43.17806641 47.58612305 -43.17806641 47.58612305 -43.93359375 46.87695312 C-45.79844707 43.59467466 -45.65274143 41.72624264 -45 38 C-42.62320241 34.63825165 -39.72102405 31.88376439 -36.7578125 29.0390625 C-35.91910614 28.2078891 -35.08039978 27.3767157 -34.21627808 26.52035522 C-31.5351549 23.87175581 -28.83042469 21.24874787 -26.125 18.625 C-24.30965785 16.83619699 -22.49583647 15.04584923 -20.68359375 13.25390625 C-17.36970819 9.99034708 -14.0531955 6.72977027 -10.71533203 3.49072266 C-9.70939499 2.51312485 -9.70939499 2.51312485 -8.68313599 1.51577759 C-5.57924546 -1.27948538 -3.93555163 -1.18831305 0 0 Z " fill="#EAEBFA" transform="translate(265,61)"/>
<path d="M0 0 C2.03044128 1.55615234 2.03044128 1.55615234 4.02416992 3.5859375 C5.15510323 4.72216553 5.15510323 4.72216553 6.30888367 5.88134766 C7.10800674 6.70425293 7.90712982 7.5271582 8.73046875 8.375 C9.56210037 9.21466309 10.39373199 10.05432617 11.25056458 10.91943359 C13.90580388 13.60368348 16.54705179 16.30120598 19.1875 19 C21.84120161 21.69615891 24.49769373 24.38951119 27.15657043 27.08056641 C28.81063064 28.75638434 30.46118933 30.4356667 32.10795593 32.11865234 C32.85245499 32.8761377 33.59695404 33.63362305 34.36401367 34.4140625 C35.01955734 35.0838916 35.67510101 35.7537207 36.35050964 36.44384766 C37.93303358 38.086718 37.93303358 38.086718 40 39 C39.59251333 43.85634048 37.27788042 46.23902364 33.8984375 49.45703125 C33.12640488 50.21701668 33.12640488 50.21701668 32.33877563 50.99235535 C30.69339928 52.60882102 29.03502303 54.21109156 27.375 55.8125 C25.21191149 57.91886753 23.05423299 60.0307022 20.8984375 62.14453125 C20.37774689 62.65376633 19.85705627 63.1630014 19.32058716 63.68766785 C15.32480615 67.61904972 11.6144191 71.72075251 8 76 C6.48117088 77.70808386 4.94348921 79.39990144 3.375 81.0625 C2.66085938 81.83722656 1.94671875 82.61195313 1.2109375 83.41015625 C-1 85 -1 85 -3.37796021 84.82327271 C-6.45064214 83.85850658 -7.86838999 82.66155783 -10.16357422 80.41748047 C-11.33906326 79.28027054 -11.33906326 79.28027054 -12.53829956 78.12008667 C-13.36870758 77.29412994 -14.1991156 76.46817322 -15.0546875 75.6171875 C-15.91563019 74.76955841 -16.77657288 73.92192932 -17.66360474 73.0486145 C-19.47924619 71.25321578 -21.28949946 69.45235413 -23.09472656 67.64648438 C-25.86486544 64.88510252 -28.66537472 62.15726928 -31.46875 59.4296875 C-33.22851795 57.68165387 -34.98639639 55.93171557 -36.7421875 54.1796875 C-37.58474091 53.36587616 -38.42729431 52.55206482 -39.29537964 51.71359253 C-44.95100118 45.9669591 -44.95100118 45.9669591 -45.19482422 41.15527344 C-44.08963592 38.23670917 -43.29695705 36.53476852 -41.140625 34.3359375 C-40.52912598 33.69849609 -39.91762695 33.06105469 -39.28759766 32.40429688 C-38.61519043 31.73462891 -37.9427832 31.06496094 -37.25 30.375 C-36.55567871 29.66150391 -35.86135742 28.94800781 -35.14599609 28.21289062 C-32.77987743 25.79242008 -30.39068445 23.39619929 -28 21 C-26.59383297 19.57507749 -25.1876861 18.15013468 -23.7824707 16.72427368 C-19.61352605 12.4978961 -15.4302202 8.28559525 -11.2265625 4.09375 C-10.45908691 3.32740234 -9.69161133 2.56105469 -8.90087891 1.77148438 C-5.69407713 -1.21702753 -4.14724311 -1.24206957 0 0 Z " fill="#EAEBF9" transform="translate(46,283)"/>
<path d="M0 0 C3.452787 1.94287836 6.23146208 3.97638217 9.04003906 6.76538086 C9.79722229 7.51303207 10.55440552 8.26068329 11.33453369 9.0309906 C12.53792389 10.23574791 12.53792389 10.23574791 13.765625 11.46484375 C14.5996283 12.29456192 15.43363159 13.12428009 16.29290771 13.97914124 C18.05035704 15.73085782 19.80520525 17.4851874 21.55761719 19.24194336 C24.24546619 21.93296085 26.94638293 24.61036506 29.6484375 27.28710938 C31.35497688 28.9913766 33.06073328 30.69642827 34.765625 32.40234375 C35.57598206 33.20349106 36.38633911 34.00463837 37.22125244 34.83006287 C37.96582703 35.58086624 38.71040161 36.33166962 39.47753906 37.10522461 C40.13530334 37.76235947 40.79306763 38.41949432 41.47076416 39.09654236 C43.10060978 41.12523016 43.71597417 42.42522269 44 45 C42.82788086 46.859375 42.82788086 46.859375 41.02734375 48.75 C40.37620605 49.44738281 39.72506836 50.14476562 39.05419922 50.86328125 C38.37631348 51.56839844 37.69842773 52.27351562 37 53 C35.79210546 54.31170556 34.58506227 55.62419564 33.37890625 56.9375 C30.00246562 60.54652519 26.59792641 64.12853447 23.18457031 67.70263672 C21.72102191 69.24175054 20.26468073 70.78774815 18.81542969 72.34033203 C16.70652726 74.59796958 14.57505154 76.83201143 12.4375 79.0625 C11.79562744 79.75923828 11.15375488 80.45597656 10.49243164 81.17382812 C9.87489014 81.80869141 9.25734863 82.44355469 8.62109375 83.09765625 C8.0892749 83.65976807 7.55745605 84.22187988 7.00952148 84.80102539 C3.64127306 86.81068011 1.87720356 86.72166481 -2 86 C-5.52775103 83.50328478 -8.45587929 80.47665163 -11.46875 77.390625 C-12.78921326 76.07309235 -12.78921326 76.07309235 -14.13635254 74.72894287 C-16.46473018 72.39554606 -18.77577006 70.04647791 -21.0814209 67.69067383 C-22.97237881 65.77026377 -24.88527111 63.87250295 -26.79875946 61.97458267 C-29.07669326 59.70940477 -31.33456209 57.42447699 -33.59375 55.140625 C-34.45190308 54.28631897 -35.31005615 53.43201294 -36.19421387 52.55181885 C-36.97252563 51.75129089 -37.7508374 50.95076294 -38.55273438 50.12597656 C-39.24443726 49.42426331 -39.93614014 48.72255005 -40.64880371 47.99957275 C-42 46 -42 46 -41.82461548 43.87158203 C-40.67590294 41.26441567 -39.03403283 39.71581593 -36.9921875 37.734375 C-36.16976563 36.92613281 -35.34734375 36.11789062 -34.5 35.28515625 C-33.200625 34.03025391 -33.200625 34.03025391 -31.875 32.75 C-26.61809637 27.62974372 -21.48466235 22.51824996 -16.7109375 16.94238281 C-13.65422424 13.47217581 -10.35208486 10.24761763 -7.0625 7 C-6.37865234 6.32066406 -5.69480469 5.64132812 -4.99023438 4.94140625 C-3.32912841 3.29191641 -1.66571487 1.6448332 0 0 Z " fill="#EAEBF9" transform="translate(399,516)"/>
<path d="M0 0 C3.52528809 2.50077418 6.45554775 5.52300878 9.46875 8.609375 C10.78921326 9.92690765 10.78921326 9.92690765 12.13635254 11.27105713 C14.46473018 13.60445394 16.77577006 15.95352209 19.0814209 18.30932617 C20.97237881 20.22973623 22.88527111 22.12749705 24.79875946 24.02541733 C27.07669326 26.29059523 29.33456209 28.57552301 31.59375 30.859375 C32.88097961 32.14083405 32.88097961 32.14083405 34.19421387 33.44818115 C34.97252563 34.24870911 35.7508374 35.04923706 36.55273438 35.87402344 C37.24443726 36.57573669 37.93614014 37.27744995 38.64880371 38.00042725 C40 40 40 40 39.80740356 42.14562988 C38.78596395 44.49157827 37.4896958 45.83361979 35.6484375 47.609375 C34.96136719 48.28226562 34.27429688 48.95515625 33.56640625 49.6484375 C32.84324219 50.34195313 32.12007813 51.03546875 31.375 51.75 C26.6467781 56.33019285 22.09878827 60.947443 17.80419922 65.93798828 C14.45331751 69.76769693 10.92669135 73.41982009 7.375 77.0625 C6.63765625 77.84560547 5.9003125 78.62871094 5.140625 79.43554688 C4.42132813 80.16966797 3.70203125 80.90378906 2.9609375 81.66015625 C2.31946777 82.32668213 1.67799805 82.99320801 1.01708984 83.67993164 C-1 85 -1 85 -3.36683655 84.80740356 C-6.46377854 83.85779217 -7.85009726 82.66816283 -10.14770508 80.40161133 C-11.31835258 79.25955986 -11.31835258 79.25955986 -12.51264954 78.09443665 C-13.75355598 76.85079597 -13.75355598 76.85079597 -15.01953125 75.58203125 C-15.87810226 74.73203049 -16.73667328 73.88202972 -17.6212616 73.00627136 C-19.43253555 71.20647937 -21.23859594 69.40142754 -23.03979492 67.59155273 C-25.80216955 64.8228541 -28.59010902 62.08185553 -31.38085938 59.34179688 C-33.13703705 57.59016476 -34.89164864 55.83696079 -36.64453125 54.08203125 C-37.48192337 53.26305862 -38.31931549 52.444086 -39.18208313 51.60029602 C-39.946754 50.82316757 -40.71142487 50.04603912 -41.49926758 49.24536133 C-42.17701736 48.56887039 -42.85476715 47.89237946 -43.55305481 47.19538879 C-45.45540757 44.30902934 -45.34765483 42.39072398 -45 39 C-43.82592773 37.16064453 -43.82592773 37.16064453 -42.18359375 35.6328125 C-41.58353516 35.05660156 -40.98347656 34.48039062 -40.36523438 33.88671875 C-39.41100586 33.01466797 -39.41100586 33.01466797 -38.4375 32.125 C-37.20442867 30.96369473 -35.97396477 29.7996148 -34.74609375 28.6328125 C-33.81095947 27.74577637 -33.81095947 27.74577637 -32.85693359 26.84082031 C-30.37118764 24.37664407 -28.11013334 21.7491299 -25.82836914 19.09716797 C-22.50353898 15.28353583 -19.019783 11.63312128 -15.5 8 C-14.77941406 7.22527344 -14.05882813 6.45054687 -13.31640625 5.65234375 C-12.60355469 4.92144531 -11.89070313 4.19054687 -11.15625 3.4375 C-10.52525391 2.77621094 -9.89425781 2.11492187 -9.24414062 1.43359375 C-5.7611947 -0.79136909 -4.08183463 -0.80201185 0 0 Z " fill="#EAEBF9" transform="translate(105,223)"/>
<path d="M0 0 C2.72281065 1.2168027 4.46604843 2.99072073 6.57014465 5.09133911 C7.35776184 5.85962036 8.14537903 6.62790161 8.9568634 7.41946411 C11.10569661 10.1218507 11.67322116 11.42191005 11.88264465 14.84133911 C6.62431129 24.10951347 -2.93462742 31.96651027 -10.44889832 39.43362427 C-12.51657982 41.49043623 -14.57316519 43.55792272 -16.6290741 45.62649536 C-17.94483833 46.94094042 -19.26122153 48.25476625 -20.57829285 49.56790161 C-21.19078888 50.18444611 -21.80328491 50.8009906 -22.43434143 51.43621826 C-26.77231447 55.72632548 -26.77231447 55.72632548 -30.11735535 56.84133911 C-35.35777304 53.91645482 -39.68120251 49.84963965 -44.11735535 45.84133911 C-43.61022542 41.5223205 -42.3422269 39.55914011 -39.30363464 36.49417114 C-38.49577011 35.67047028 -37.68790558 34.84676941 -36.8555603 33.99810791 C-35.97644485 33.12395233 -35.09732941 32.24979675 -34.1915741 31.34915161 C-33.2924379 30.44381683 -32.3933017 29.53848206 -31.46691895 28.60571289 C-29.56427991 26.69597141 -27.65799547 24.7909307 -25.74455261 22.89212036 C-23.29104702 20.45584559 -20.85854066 17.99974193 -18.43127728 15.53735542 C-16.11313476 13.19201406 -13.77646628 10.86530031 -11.4415741 8.53665161 C-10.56853134 7.65035065 -9.69548859 6.76404968 -8.79598999 5.85089111 C-7.97866898 5.04610321 -7.16134796 4.24131531 -6.31925964 3.41213989 C-5.6027977 2.69663971 -4.88633575 1.98113953 -4.14816284 1.24395752 C-2.11735535 -0.15866089 -2.11735535 -0.15866089 0 0 Z " fill="#EBECF9" transform="translate(417.1173553466797,372.1586608886719)"/>
<path d="M0 0 C3.54988959 2.56746651 6.50347588 5.53233569 9.55078125 8.66796875 C10.14826172 9.27447266 10.74574219 9.88097656 11.36132812 10.50585938 C12.8249231 11.99287187 14.28224227 13.48605686 15.73828125 14.98046875 C14.45864466 18.68247417 13.06151111 21.0213888 10.26171875 23.75 C9.59140625 24.41064453 8.92109375 25.07128906 8.23046875 25.75195312 C7.53179687 26.42548828 6.833125 27.09902344 6.11328125 27.79296875 C5.05367188 28.83227539 5.05367188 28.83227539 3.97265625 29.89257812 C2.23446319 31.59553754 0.48965064 33.29108067 -1.26171875 34.98046875 C-6.14710837 32.42546613 -9.75886906 28.8851327 -13.63671875 25.04296875 C-14.29027344 24.42228516 -14.94382812 23.80160156 -15.6171875 23.16210938 C-16.22949219 22.55689453 -16.84179688 21.95167969 -17.47265625 21.328125 C-18.03259277 20.78164307 -18.5925293 20.23516113 -19.16943359 19.67211914 C-20.26171875 17.98046875 -20.26171875 17.98046875 -20.05419922 15.92358398 C-18.89843515 13.08971884 -17.07780794 11.22443317 -15.01171875 8.98046875 C-13.85929687 7.71203125 -13.85929687 7.71203125 -12.68359375 6.41796875 C-4.35583937 -1.96351308 -4.35583937 -1.96351308 0 0 Z " fill="#EAEBF9" transform="translate(333.26171875,264.01953125)"/>
<path d="M0 0 C4.84309854 2.16779311 8.08711009 5.68109226 11.8125 9.375 C12.51826172 10.04789062 13.22402344 10.72078125 13.95117188 11.4140625 C14.61310547 12.06890625 15.27503906 12.72375 15.95703125 13.3984375 C16.56522705 13.99317871 17.17342285 14.58791992 17.80004883 15.20068359 C19 17 19 17 18.89477539 18.99780273 C17.82983966 21.38075989 16.57651579 22.79589433 14.7265625 24.63671875 C14.0665625 25.29607422 13.4065625 25.95542969 12.7265625 26.63476562 C12.03304688 27.31216797 11.33953125 27.98957031 10.625 28.6875 C9.93921875 29.37650391 9.2534375 30.06550781 8.546875 30.77539062 C3.40080095 35.86639968 3.40080095 35.86639968 0 37 C-2.48730862 34.5706914 -4.96337167 32.13022506 -7.4375 29.6875 C-8.14455078 28.99720703 -8.85160156 28.30691406 -9.58007812 27.59570312 C-10.25361328 26.92861328 -10.92714844 26.26152344 -11.62109375 25.57421875 C-12.2442749 24.96151123 -12.86745605 24.34880371 -13.50952148 23.7175293 C-15 22 -15 22 -16 19 C-14.81289412 13.62033766 -10.69593414 10.36089312 -6.875 6.6875 C-6.21628906 6.04232422 -5.55757813 5.39714844 -4.87890625 4.73242188 C-3.25919856 3.14792522 -1.63289995 1.57087901 0 0 Z " fill="#EBECF9" transform="translate(279,313)"/>
</svg>
