<?xml version="1.0" encoding="UTF-8"?>
<svg version="1.1" xmlns="http://www.w3.org/2000/svg" width="602" height="602">
<path d="M0 0 C0.75667969 0.36609375 1.51335937 0.7321875 2.29296875 1.109375 C13.72263489 6.70301259 24.07404872 13.0390563 34 21 C34.56412598 21.44988281 35.12825195 21.89976562 35.70947266 22.36328125 C73.65439494 52.88634826 97.03298345 95.97315729 103.60961914 144.17138672 C104.32124371 151.15055899 104.34714981 158.11529678 104.3125 165.125 C104.30976578 166.27669678 104.30976578 166.27669678 104.30697632 167.45166016 C104.25884097 179.52093348 103.65085239 191.18596493 101 203 C100.83371094 203.77085937 100.66742188 204.54171875 100.49609375 205.3359375 C94.28532794 233.39939781 81.25530007 258.25874017 64 281 C1.013677 270.19421998 -60.65164446 238.57334582 -115 206 C-116.00401855 205.39978027 -117.00803711 204.79956055 -118.04248047 204.18115234 C-129.27741879 197.45027037 -140.41871727 190.61965104 -151.22412109 183.21533203 C-153.07772603 181.94680779 -154.93883158 180.6898319 -156.80078125 179.43359375 C-172.50043356 168.79582361 -187.66759174 157.52140047 -202.27197266 145.42382812 C-203.8308644 144.13936123 -205.40480439 142.87321063 -206.98046875 141.609375 C-217.88967902 132.85681957 -227.88181563 123.21371742 -237.80328369 113.37194824 C-238.76482653 112.41855923 -239.72783254 111.46664356 -240.69232178 110.51623535 C-242.05533498 109.17106588 -243.41063421 107.81809386 -244.765625 106.46484375 C-245.55743164 105.677146 -246.34923828 104.88944824 -247.16503906 104.07788086 C-249 102 -249 102 -250 99 C-249.46191406 97.10913086 -249.46191406 97.10913086 -248.515625 94.96484375 C-248.16322754 94.16449707 -247.81083008 93.36415039 -247.44775391 92.53955078 C-247.05249512 91.68087402 -246.65723633 90.82219727 -246.25 89.9375 C-245.63970947 88.60307861 -245.63970947 88.60307861 -245.01708984 87.24169922 C-224.57123616 43.61923652 -186.85744446 9.82146071 -141.82421875 -6.98046875 C-95.74162962 -23.40114553 -44.11637905 -21.5201849 0 0 Z " fill="#EAEBF9" transform="translate(381,135)"/>
<path d="M0 0 C0 0.66 0 1.32 0 2 C-1.49325434 3.18850856 -3.04901283 4.2986053 -4.625 5.375 C-9.26108793 8.670317 -13.67480351 12.11885349 -18 15.8125 C-18.59425781 16.31531494 -19.18851563 16.81812988 -19.80078125 17.33618164 C-22.69883689 19.83432779 -25.39842047 22.36405268 -27.9140625 25.25 C-34.4956769 32.76012145 -34.4956769 32.76012145 -38.890625 33.4609375 C-41.99180601 33.17679788 -44.94799938 32.61271225 -48 32 C-59.1338857 31.24212412 -72.15087541 31.79522674 -81.51171875 38.5703125 C-85.61941737 42.51629071 -86.18231833 46.82158989 -86.4375 52.25 C-85.91685632 67.55692405 -75.63268001 81.78432712 -66 93 C-65.1288635 94.05357699 -64.25915631 95.10833686 -63.390625 96.1640625 C-53.17481664 108.46638407 -42.07603721 120.12093083 -29.484375 130.01171875 C-27.00634926 131.9949186 -24.69723686 134.08751433 -22.375 136.25 C-15.94938404 142.10354204 -8.97179206 147.23283863 -2.03515625 152.45703125 C-0.25025432 153.81026784 1.51987589 155.17887694 3.28125 156.5625 C18.21695109 168.26469879 33.9562257 178.88468177 50 189 C50.77859375 189.49290527 51.5571875 189.98581055 52.359375 190.49365234 C74.9729276 204.77565919 98.14697891 217.90526743 122 230 C122.75958008 230.38736328 123.51916016 230.77472656 124.30175781 231.17382812 C128.17901549 233.14975578 132.06976646 235.09493627 135.97851562 237.0078125 C137.3857392 237.69850774 138.79051562 238.39420191 140.19335938 239.09375 C183.31929741 260.56604211 249.07155268 292.50900384 298 280 C303.21412643 278.16393897 306.96323147 276.18487831 310.625 272 C313.45595455 265.75564572 312.96074382 258.3583523 311.1171875 251.9140625 C307.72801164 243.3625658 303.315866 234.32164281 296.8125 227.75 C294.91298692 225.14282518 294.98707813 224.09203997 295.4453125 220.828125 C296.14376679 218.13330138 296.88221704 215.47933261 297.671875 212.8125 C299.28138313 207.28480153 300.23418566 201.67183502 301.1875 196 C301.43681274 194.54980469 301.43681274 194.54980469 301.69116211 193.0703125 C302.59483935 187.72505929 303.37138865 182.38446892 304 177 C309.7325996 179.56249844 314.23725312 183.99078823 319 188 C319.80171631 188.66999023 319.80171631 188.66999023 320.61962891 189.35351562 C334.40282957 200.88914494 347.33355 213.25518026 360.0625 225.9375 C360.94301025 226.8133374 361.82352051 227.6891748 362.73071289 228.59155273 C367.69324589 233.56641736 372.46543953 238.63218036 377 244 C377.52682373 244.62011963 378.05364746 245.24023926 378.59643555 245.87915039 C394.96365317 265.30778915 414.87235419 290.258989 414 317 C412.55467706 325.58900925 408.73904117 332.15265207 401.95703125 337.62109375 C381.78221073 351.83608705 349.82123625 347.0984401 327.11328125 343.31640625 C259.33905067 331.13742095 195.238025 303.13655241 133.8260498 272.89837646 C132.13530033 272.06656479 130.44319636 271.2375078 128.75097656 270.40869141 C115.93791125 264.1288953 103.34210925 257.51320755 90.86572266 250.58886719 C87.9288953 248.96057681 84.98605119 247.34351482 82.04296875 245.7265625 C66.08778957 236.9191001 50.50380387 227.57155117 35 218 C34.17467773 217.49355957 33.34935547 216.98711914 32.49902344 216.46533203 C20.77410617 209.26008998 9.33169846 201.62116834 -2.125 194 C-3.26098633 193.24539993 -3.26098633 193.24539993 -4.41992188 192.47555542 C-20.97583258 181.46782224 -37.18387318 170.04779898 -53 158 C-53.57202148 157.56445801 -54.14404297 157.12891602 -54.73339844 156.68017578 C-57.95974014 154.21926236 -61.17472277 151.74415163 -64.38037109 149.25634766 C-65.48376802 148.40044163 -66.58830786 147.54600745 -67.69384766 146.69287109 C-74.94304985 141.09502367 -82.02400585 135.35074541 -88.9453125 129.35131836 C-92.55454137 126.22437474 -96.21631866 123.18172925 -99.9375 120.1875 C-103.59331507 117.22115883 -106.97671631 114.15589778 -110.23632812 110.76269531 C-111.91249052 109.08746103 -113.64350763 107.56382734 -115.453125 106.03515625 C-120.69294968 101.48014629 -125.57631462 96.57372452 -130.47290039 91.6574707 C-132.05959946 90.06541034 -133.65157742 88.4787701 -135.24414062 86.89257812 C-140.70521655 81.4357633 -146.0356219 75.91848806 -151 70 C-151.78636841 69.07368774 -151.78636841 69.07368774 -152.58862305 68.12866211 C-169.22593639 48.3947253 -188.31917502 24.02348501 -188 -3 C-187.07800188 -11.53912103 -182.87942738 -18.01602743 -176.390625 -23.36328125 C-130.94847474 -54.47481876 -46.5130384 -17.04809714 0 0 Z " fill="#EAEBF9" transform="translate(188,143)"/>
<path d="M0 0 C2.88003366 1.35349565 5.36624164 2.89784064 7.9140625 4.80078125 C9.05875 5.6505957 9.05875 5.6505957 10.2265625 6.51757812 C11.41378906 7.40606445 11.41378906 7.40606445 12.625 8.3125 C28.22619206 19.94520701 44.02749912 31.18723204 60.25 41.9375 C61.52792419 42.78631744 61.52792419 42.78631744 62.83166504 43.65228271 C127.09454468 86.33344762 194.83454411 123.76394346 265.84375 154 C266.52643951 154.29081451 267.20912903 154.58162903 267.9125061 154.8812561 C270.58916181 156.01357692 273.24136528 157.08045509 276 158 C276 158.66 276 159.32 276 160 C232.13031973 184.72102075 182.54174894 191.742477 133.65991211 178.6784668 C85.81058226 164.93289769 46.58770296 132.99828476 22 90 C8.32519644 65.14434172 -0.40995713 35.95571215 -0.0625 7.4375 C-0.05798828 6.71498047 -0.05347656 5.99246094 -0.04882812 5.24804688 C-0.03724279 3.49866056 -0.01931762 1.74931801 0 0 Z " fill="#EAEBF9" transform="translate(119,299)"/>
</svg>
